M48
; DRILL file {KiCad 5.1.6} date Sun Aug  9 17:58:13 2020
; FORMAT={-:-/ absolute / metric / decimal}
; #@! TF.CreationDate,2020-08-09T17:58:13+02:00
; #@! TF.GenerationSoftware,Kicad,Pcbnew,5.1.6
; #@! TF.FileFunction,Plated,1,2,PTH
FMAT,2
METRIC
T1C1.016
%
G90
G05
T1
X44.0Y-72.0
X46.54Y-72.0
X49.08Y-72.0
X51.62Y-72.0
X54.16Y-72.0
X56.7Y-72.0
X59.24Y-72.0
X61.78Y-72.0
X64.32Y-72.0
X66.86Y-72.0
X69.4Y-72.0
X71.94Y-72.0
X74.48Y-72.0
X77.02Y-72.0
X79.56Y-72.0
X82.1Y-72.0
X84.64Y-72.0
X87.18Y-72.0
X89.72Y-72.0
X92.26Y-72.0
X94.8Y-72.0
X97.34Y-72.0
X99.88Y-72.0
X102.42Y-72.0
X104.96Y-72.0
X107.5Y-72.0
X110.04Y-72.0
X112.58Y-72.0
X115.12Y-72.0
X117.66Y-72.0
X120.2Y-72.0
X122.74Y-72.0
X125.28Y-72.0
X127.82Y-72.0
X130.36Y-72.0
X132.9Y-72.0
X135.44Y-72.0
X137.98Y-72.0
X140.52Y-72.0
T0
M30
