%TF.GenerationSoftware,KiCad,Pcbnew,5.1.6*%
%TF.CreationDate,2020-08-09T17:58:10+02:00*%
%TF.ProjectId,RC2014-Ethernet,52433230-3134-42d4-9574-6865726e6574,rev?*%
%TF.SameCoordinates,Original*%
%TF.FileFunction,Legend,Top*%
%TF.FilePolarity,Positive*%
%FSLAX46Y46*%
G04 Gerber Fmt 4.6, Leading zero omitted, Abs format (unit mm)*
G04 Created by KiCad (PCBNEW 5.1.6) date 2020-08-09 17:58:10*
%MOMM*%
%LPD*%
G01*
G04 APERTURE LIST*
%ADD10C,0.300000*%
%ADD11C,0.150000*%
G04 APERTURE END LIST*
D10*
X44292533Y-78096842D02*
X44292533Y-77382557D01*
X44718247Y-78239700D02*
X43228247Y-77739700D01*
X44718247Y-77239700D01*
X44718247Y-75953985D02*
X44718247Y-76811128D01*
X44718247Y-76382557D02*
X43228247Y-76382557D01*
X43441104Y-76525414D01*
X43583009Y-76668271D01*
X43653961Y-76811128D01*
X43228247Y-74596842D02*
X43228247Y-75311128D01*
X43937771Y-75382557D01*
X43866819Y-75311128D01*
X43795866Y-75168271D01*
X43795866Y-74811128D01*
X43866819Y-74668271D01*
X43937771Y-74596842D01*
X44079676Y-74525414D01*
X44434438Y-74525414D01*
X44576342Y-74596842D01*
X44647295Y-74668271D01*
X44718247Y-74811128D01*
X44718247Y-75168271D01*
X44647295Y-75311128D01*
X44576342Y-75382557D01*
X46827533Y-78096842D02*
X46827533Y-77382557D01*
X47253247Y-78239700D02*
X45763247Y-77739700D01*
X47253247Y-77239700D01*
X47253247Y-75953985D02*
X47253247Y-76811128D01*
X47253247Y-76382557D02*
X45763247Y-76382557D01*
X45976104Y-76525414D01*
X46118009Y-76668271D01*
X46188961Y-76811128D01*
X46259914Y-74668271D02*
X47253247Y-74668271D01*
X45692295Y-75025414D02*
X46756580Y-75382557D01*
X46756580Y-74453985D01*
X49362533Y-78096842D02*
X49362533Y-77382557D01*
X49788247Y-78239700D02*
X48298247Y-77739700D01*
X49788247Y-77239700D01*
X49788247Y-75953985D02*
X49788247Y-76811128D01*
X49788247Y-76382557D02*
X48298247Y-76382557D01*
X48511104Y-76525414D01*
X48653009Y-76668271D01*
X48723961Y-76811128D01*
X48298247Y-75453985D02*
X48298247Y-74525414D01*
X48865866Y-75025414D01*
X48865866Y-74811128D01*
X48936819Y-74668271D01*
X49007771Y-74596842D01*
X49149676Y-74525414D01*
X49504438Y-74525414D01*
X49646342Y-74596842D01*
X49717295Y-74668271D01*
X49788247Y-74811128D01*
X49788247Y-75239700D01*
X49717295Y-75382557D01*
X49646342Y-75453985D01*
X51897533Y-78096842D02*
X51897533Y-77382557D01*
X52323247Y-78239700D02*
X50833247Y-77739700D01*
X52323247Y-77239700D01*
X52323247Y-75953985D02*
X52323247Y-76811128D01*
X52323247Y-76382557D02*
X50833247Y-76382557D01*
X51046104Y-76525414D01*
X51188009Y-76668271D01*
X51258961Y-76811128D01*
X50975152Y-75382557D02*
X50904200Y-75311128D01*
X50833247Y-75168271D01*
X50833247Y-74811128D01*
X50904200Y-74668271D01*
X50975152Y-74596842D01*
X51117057Y-74525414D01*
X51258961Y-74525414D01*
X51471819Y-74596842D01*
X52323247Y-75453985D01*
X52323247Y-74525414D01*
X54432533Y-78096842D02*
X54432533Y-77382557D01*
X54858247Y-78239700D02*
X53368247Y-77739700D01*
X54858247Y-77239700D01*
X54858247Y-75953985D02*
X54858247Y-76811128D01*
X54858247Y-76382557D02*
X53368247Y-76382557D01*
X53581104Y-76525414D01*
X53723009Y-76668271D01*
X53793961Y-76811128D01*
X54858247Y-74525414D02*
X54858247Y-75382557D01*
X54858247Y-74953985D02*
X53368247Y-74953985D01*
X53581104Y-75096842D01*
X53723009Y-75239700D01*
X53793961Y-75382557D01*
X56967533Y-78096842D02*
X56967533Y-77382557D01*
X57393247Y-78239700D02*
X55903247Y-77739700D01*
X57393247Y-77239700D01*
X57393247Y-75953985D02*
X57393247Y-76811128D01*
X57393247Y-76382557D02*
X55903247Y-76382557D01*
X56116104Y-76525414D01*
X56258009Y-76668271D01*
X56328961Y-76811128D01*
X55903247Y-75025414D02*
X55903247Y-74882557D01*
X55974200Y-74739700D01*
X56045152Y-74668271D01*
X56187057Y-74596842D01*
X56470866Y-74525414D01*
X56825628Y-74525414D01*
X57109438Y-74596842D01*
X57251342Y-74668271D01*
X57322295Y-74739700D01*
X57393247Y-74882557D01*
X57393247Y-75025414D01*
X57322295Y-75168271D01*
X57251342Y-75239700D01*
X57109438Y-75311128D01*
X56825628Y-75382557D01*
X56470866Y-75382557D01*
X56187057Y-75311128D01*
X56045152Y-75239700D01*
X55974200Y-75168271D01*
X55903247Y-75025414D01*
X59502533Y-76668271D02*
X59502533Y-75953985D01*
X59928247Y-76811128D02*
X58438247Y-76311128D01*
X59928247Y-75811128D01*
X59928247Y-75239700D02*
X59928247Y-74953985D01*
X59857295Y-74811128D01*
X59786342Y-74739700D01*
X59573485Y-74596842D01*
X59289676Y-74525414D01*
X58722057Y-74525414D01*
X58580152Y-74596842D01*
X58509200Y-74668271D01*
X58438247Y-74811128D01*
X58438247Y-75096842D01*
X58509200Y-75239700D01*
X58580152Y-75311128D01*
X58722057Y-75382557D01*
X59076819Y-75382557D01*
X59218723Y-75311128D01*
X59289676Y-75239700D01*
X59360628Y-75096842D01*
X59360628Y-74811128D01*
X59289676Y-74668271D01*
X59218723Y-74596842D01*
X59076819Y-74525414D01*
X62037533Y-76668271D02*
X62037533Y-75953985D01*
X62463247Y-76811128D02*
X60973247Y-76311128D01*
X62463247Y-75811128D01*
X61611819Y-75096842D02*
X61540866Y-75239700D01*
X61469914Y-75311128D01*
X61328009Y-75382557D01*
X61257057Y-75382557D01*
X61115152Y-75311128D01*
X61044200Y-75239700D01*
X60973247Y-75096842D01*
X60973247Y-74811128D01*
X61044200Y-74668271D01*
X61115152Y-74596842D01*
X61257057Y-74525414D01*
X61328009Y-74525414D01*
X61469914Y-74596842D01*
X61540866Y-74668271D01*
X61611819Y-74811128D01*
X61611819Y-75096842D01*
X61682771Y-75239700D01*
X61753723Y-75311128D01*
X61895628Y-75382557D01*
X62179438Y-75382557D01*
X62321342Y-75311128D01*
X62392295Y-75239700D01*
X62463247Y-75096842D01*
X62463247Y-74811128D01*
X62392295Y-74668271D01*
X62321342Y-74596842D01*
X62179438Y-74525414D01*
X61895628Y-74525414D01*
X61753723Y-74596842D01*
X61682771Y-74668271D01*
X61611819Y-74811128D01*
X64572533Y-76668271D02*
X64572533Y-75953985D01*
X64998247Y-76811128D02*
X63508247Y-76311128D01*
X64998247Y-75811128D01*
X63508247Y-75453985D02*
X63508247Y-74453985D01*
X64998247Y-75096842D01*
X67107533Y-76668271D02*
X67107533Y-75953985D01*
X67533247Y-76811128D02*
X66043247Y-76311128D01*
X67533247Y-75811128D01*
X66043247Y-74668271D02*
X66043247Y-74953985D01*
X66114200Y-75096842D01*
X66185152Y-75168271D01*
X66398009Y-75311128D01*
X66681819Y-75382557D01*
X67249438Y-75382557D01*
X67391342Y-75311128D01*
X67462295Y-75239700D01*
X67533247Y-75096842D01*
X67533247Y-74811128D01*
X67462295Y-74668271D01*
X67391342Y-74596842D01*
X67249438Y-74525414D01*
X66894676Y-74525414D01*
X66752771Y-74596842D01*
X66681819Y-74668271D01*
X66610866Y-74811128D01*
X66610866Y-75096842D01*
X66681819Y-75239700D01*
X66752771Y-75311128D01*
X66894676Y-75382557D01*
X69642533Y-76668271D02*
X69642533Y-75953985D01*
X70068247Y-76811128D02*
X68578247Y-76311128D01*
X70068247Y-75811128D01*
X68578247Y-74596842D02*
X68578247Y-75311128D01*
X69287771Y-75382557D01*
X69216819Y-75311128D01*
X69145866Y-75168271D01*
X69145866Y-74811128D01*
X69216819Y-74668271D01*
X69287771Y-74596842D01*
X69429676Y-74525414D01*
X69784438Y-74525414D01*
X69926342Y-74596842D01*
X69997295Y-74668271D01*
X70068247Y-74811128D01*
X70068247Y-75168271D01*
X69997295Y-75311128D01*
X69926342Y-75382557D01*
X72177533Y-76668271D02*
X72177533Y-75953985D01*
X72603247Y-76811128D02*
X71113247Y-76311128D01*
X72603247Y-75811128D01*
X71609914Y-74668271D02*
X72603247Y-74668271D01*
X71042295Y-75025414D02*
X72106580Y-75382557D01*
X72106580Y-74453985D01*
X74712533Y-76668271D02*
X74712533Y-75953985D01*
X75138247Y-76811128D02*
X73648247Y-76311128D01*
X75138247Y-75811128D01*
X73648247Y-75453985D02*
X73648247Y-74525414D01*
X74215866Y-75025414D01*
X74215866Y-74811128D01*
X74286819Y-74668271D01*
X74357771Y-74596842D01*
X74499676Y-74525414D01*
X74854438Y-74525414D01*
X74996342Y-74596842D01*
X75067295Y-74668271D01*
X75138247Y-74811128D01*
X75138247Y-75239700D01*
X75067295Y-75382557D01*
X74996342Y-75453985D01*
X77247533Y-76668271D02*
X77247533Y-75953985D01*
X77673247Y-76811128D02*
X76183247Y-76311128D01*
X77673247Y-75811128D01*
X76325152Y-75382557D02*
X76254200Y-75311128D01*
X76183247Y-75168271D01*
X76183247Y-74811128D01*
X76254200Y-74668271D01*
X76325152Y-74596842D01*
X76467057Y-74525414D01*
X76608961Y-74525414D01*
X76821819Y-74596842D01*
X77673247Y-75453985D01*
X77673247Y-74525414D01*
X79782533Y-76668271D02*
X79782533Y-75953985D01*
X80208247Y-76811128D02*
X78718247Y-76311128D01*
X80208247Y-75811128D01*
X80208247Y-74525414D02*
X80208247Y-75382557D01*
X80208247Y-74953985D02*
X78718247Y-74953985D01*
X78931104Y-75096842D01*
X79073009Y-75239700D01*
X79143961Y-75382557D01*
X82317533Y-76668271D02*
X82317533Y-75953985D01*
X82743247Y-76811128D02*
X81253247Y-76311128D01*
X82743247Y-75811128D01*
X81253247Y-75025414D02*
X81253247Y-74882557D01*
X81324200Y-74739700D01*
X81395152Y-74668271D01*
X81537057Y-74596842D01*
X81820866Y-74525414D01*
X82175628Y-74525414D01*
X82459438Y-74596842D01*
X82601342Y-74668271D01*
X82672295Y-74739700D01*
X82743247Y-74882557D01*
X82743247Y-75025414D01*
X82672295Y-75168271D01*
X82601342Y-75239700D01*
X82459438Y-75311128D01*
X82175628Y-75382557D01*
X81820866Y-75382557D01*
X81537057Y-75311128D01*
X81395152Y-75239700D01*
X81324200Y-75168271D01*
X81253247Y-75025414D01*
X83859200Y-77311128D02*
X83788247Y-77453985D01*
X83788247Y-77668271D01*
X83859200Y-77882557D01*
X84001104Y-78025414D01*
X84143009Y-78096842D01*
X84426819Y-78168271D01*
X84639676Y-78168271D01*
X84923485Y-78096842D01*
X85065390Y-78025414D01*
X85207295Y-77882557D01*
X85278247Y-77668271D01*
X85278247Y-77525414D01*
X85207295Y-77311128D01*
X85136342Y-77239700D01*
X84639676Y-77239700D01*
X84639676Y-77525414D01*
X84284914Y-76596842D02*
X85278247Y-76596842D01*
X84426819Y-76596842D02*
X84355866Y-76525414D01*
X84284914Y-76382557D01*
X84284914Y-76168271D01*
X84355866Y-76025414D01*
X84497771Y-75953985D01*
X85278247Y-75953985D01*
X85278247Y-74596842D02*
X83788247Y-74596842D01*
X85207295Y-74596842D02*
X85278247Y-74739700D01*
X85278247Y-75025414D01*
X85207295Y-75168271D01*
X85136342Y-75239700D01*
X84994438Y-75311128D01*
X84568723Y-75311128D01*
X84426819Y-75239700D01*
X84355866Y-75168271D01*
X84284914Y-75025414D01*
X84284914Y-74739700D01*
X84355866Y-74596842D01*
X86323247Y-75739700D02*
X86323247Y-76453985D01*
X87032771Y-76525414D01*
X86961819Y-76453985D01*
X86890866Y-76311128D01*
X86890866Y-75953985D01*
X86961819Y-75811128D01*
X87032771Y-75739700D01*
X87174676Y-75668271D01*
X87529438Y-75668271D01*
X87671342Y-75739700D01*
X87742295Y-75811128D01*
X87813247Y-75953985D01*
X87813247Y-76311128D01*
X87742295Y-76453985D01*
X87671342Y-76525414D01*
X86819914Y-75168271D02*
X87813247Y-74811128D01*
X86819914Y-74453985D01*
X90348247Y-77025414D02*
X88858247Y-77025414D01*
X89922533Y-76525414D01*
X88858247Y-76025414D01*
X90348247Y-76025414D01*
X90348247Y-74525414D02*
X90348247Y-75382557D01*
X90348247Y-74953985D02*
X88858247Y-74953985D01*
X89071104Y-75096842D01*
X89213009Y-75239700D01*
X89283961Y-75382557D01*
X92883247Y-79168271D02*
X92173723Y-79668271D01*
X92883247Y-80025414D02*
X91393247Y-80025414D01*
X91393247Y-79453985D01*
X91464200Y-79311128D01*
X91535152Y-79239700D01*
X91677057Y-79168271D01*
X91889914Y-79168271D01*
X92031819Y-79239700D01*
X92102771Y-79311128D01*
X92173723Y-79453985D01*
X92173723Y-80025414D01*
X92812295Y-77953985D02*
X92883247Y-78096842D01*
X92883247Y-78382557D01*
X92812295Y-78525414D01*
X92670390Y-78596842D01*
X92102771Y-78596842D01*
X91960866Y-78525414D01*
X91889914Y-78382557D01*
X91889914Y-78096842D01*
X91960866Y-77953985D01*
X92102771Y-77882557D01*
X92244676Y-77882557D01*
X92386580Y-78596842D01*
X92812295Y-77311128D02*
X92883247Y-77168271D01*
X92883247Y-76882557D01*
X92812295Y-76739700D01*
X92670390Y-76668271D01*
X92599438Y-76668271D01*
X92457533Y-76739700D01*
X92386580Y-76882557D01*
X92386580Y-77096842D01*
X92315628Y-77239700D01*
X92173723Y-77311128D01*
X92102771Y-77311128D01*
X91960866Y-77239700D01*
X91889914Y-77096842D01*
X91889914Y-76882557D01*
X91960866Y-76739700D01*
X92812295Y-75453985D02*
X92883247Y-75596842D01*
X92883247Y-75882557D01*
X92812295Y-76025414D01*
X92670390Y-76096842D01*
X92102771Y-76096842D01*
X91960866Y-76025414D01*
X91889914Y-75882557D01*
X91889914Y-75596842D01*
X91960866Y-75453985D01*
X92102771Y-75382557D01*
X92244676Y-75382557D01*
X92386580Y-76096842D01*
X91889914Y-74953985D02*
X91889914Y-74382557D01*
X91393247Y-74739700D02*
X92670390Y-74739700D01*
X92812295Y-74668271D01*
X92883247Y-74525414D01*
X92883247Y-74382557D01*
X95276342Y-79168271D02*
X95347295Y-79239700D01*
X95418247Y-79453985D01*
X95418247Y-79596842D01*
X95347295Y-79811128D01*
X95205390Y-79953985D01*
X95063485Y-80025414D01*
X94779676Y-80096842D01*
X94566819Y-80096842D01*
X94283009Y-80025414D01*
X94141104Y-79953985D01*
X93999200Y-79811128D01*
X93928247Y-79596842D01*
X93928247Y-79453985D01*
X93999200Y-79239700D01*
X94070152Y-79168271D01*
X95418247Y-78311128D02*
X95347295Y-78453985D01*
X95205390Y-78525414D01*
X93928247Y-78525414D01*
X95418247Y-77525414D02*
X95347295Y-77668271D01*
X95276342Y-77739700D01*
X95134438Y-77811128D01*
X94708723Y-77811128D01*
X94566819Y-77739700D01*
X94495866Y-77668271D01*
X94424914Y-77525414D01*
X94424914Y-77311128D01*
X94495866Y-77168271D01*
X94566819Y-77096842D01*
X94708723Y-77025414D01*
X95134438Y-77025414D01*
X95276342Y-77096842D01*
X95347295Y-77168271D01*
X95418247Y-77311128D01*
X95418247Y-77525414D01*
X95347295Y-75739700D02*
X95418247Y-75882557D01*
X95418247Y-76168271D01*
X95347295Y-76311128D01*
X95276342Y-76382557D01*
X95134438Y-76453985D01*
X94708723Y-76453985D01*
X94566819Y-76382557D01*
X94495866Y-76311128D01*
X94424914Y-76168271D01*
X94424914Y-75882557D01*
X94495866Y-75739700D01*
X95418247Y-75096842D02*
X93928247Y-75096842D01*
X94850628Y-74953985D02*
X95418247Y-74525414D01*
X94424914Y-74525414D02*
X94992533Y-75096842D01*
X97953247Y-77311128D02*
X96463247Y-77311128D01*
X97953247Y-76596842D02*
X96463247Y-76596842D01*
X97953247Y-75739700D01*
X96463247Y-75739700D01*
X96463247Y-75239700D02*
X96463247Y-74382557D01*
X97953247Y-74811128D02*
X96463247Y-74811128D01*
X100488247Y-79168271D02*
X98998247Y-79168271D01*
X100062533Y-78668271D01*
X98998247Y-78168271D01*
X100488247Y-78168271D01*
X100488247Y-77453985D02*
X99494914Y-77453985D01*
X99778723Y-77453985D02*
X99636819Y-77382557D01*
X99565866Y-77311128D01*
X99494914Y-77168271D01*
X99494914Y-77025414D01*
X100417295Y-75953985D02*
X100488247Y-76096842D01*
X100488247Y-76382557D01*
X100417295Y-76525414D01*
X100275390Y-76596842D01*
X99707771Y-76596842D01*
X99565866Y-76525414D01*
X99494914Y-76382557D01*
X99494914Y-76096842D01*
X99565866Y-75953985D01*
X99707771Y-75882557D01*
X99849676Y-75882557D01*
X99991580Y-76596842D01*
X99494914Y-74596842D02*
X100984914Y-74596842D01*
X100417295Y-74596842D02*
X100488247Y-74739700D01*
X100488247Y-75025414D01*
X100417295Y-75168271D01*
X100346342Y-75239700D01*
X100204438Y-75311128D01*
X99778723Y-75311128D01*
X99636819Y-75239700D01*
X99565866Y-75168271D01*
X99494914Y-75025414D01*
X99494914Y-74739700D01*
X99565866Y-74596842D01*
X101533247Y-76668271D02*
X103023247Y-76311128D01*
X101958961Y-76025414D01*
X103023247Y-75739700D01*
X101533247Y-75382557D01*
X103023247Y-74811128D02*
X102029914Y-74811128D01*
X102313723Y-74811128D02*
X102171819Y-74739700D01*
X102100866Y-74668271D01*
X102029914Y-74525414D01*
X102029914Y-74382557D01*
X105558247Y-75882557D02*
X104848723Y-76382557D01*
X105558247Y-76739700D02*
X104068247Y-76739700D01*
X104068247Y-76168271D01*
X104139200Y-76025414D01*
X104210152Y-75953985D01*
X104352057Y-75882557D01*
X104564914Y-75882557D01*
X104706819Y-75953985D01*
X104777771Y-76025414D01*
X104848723Y-76168271D01*
X104848723Y-76739700D01*
X105558247Y-75025414D02*
X105487295Y-75168271D01*
X105416342Y-75239700D01*
X105274438Y-75311128D01*
X104848723Y-75311128D01*
X104706819Y-75239700D01*
X104635866Y-75168271D01*
X104564914Y-75025414D01*
X104564914Y-74811128D01*
X104635866Y-74668271D01*
X104706819Y-74596842D01*
X104848723Y-74525414D01*
X105274438Y-74525414D01*
X105416342Y-74596842D01*
X105487295Y-74668271D01*
X105558247Y-74811128D01*
X105558247Y-75025414D01*
X108093247Y-79239700D02*
X106603247Y-79239700D01*
X106603247Y-78239700D02*
X106603247Y-77953985D01*
X106674200Y-77811128D01*
X106816104Y-77668271D01*
X107099914Y-77596842D01*
X107596580Y-77596842D01*
X107880390Y-77668271D01*
X108022295Y-77811128D01*
X108093247Y-77953985D01*
X108093247Y-78239700D01*
X108022295Y-78382557D01*
X107880390Y-78525414D01*
X107596580Y-78596842D01*
X107099914Y-78596842D01*
X106816104Y-78525414D01*
X106674200Y-78382557D01*
X106603247Y-78239700D01*
X108093247Y-76096842D02*
X107383723Y-76596842D01*
X108093247Y-76953985D02*
X106603247Y-76953985D01*
X106603247Y-76382557D01*
X106674200Y-76239700D01*
X106745152Y-76168271D01*
X106887057Y-76096842D01*
X107099914Y-76096842D01*
X107241819Y-76168271D01*
X107312771Y-76239700D01*
X107383723Y-76382557D01*
X107383723Y-76953985D01*
X108235152Y-74453985D02*
X108164200Y-74596842D01*
X108022295Y-74739700D01*
X107809438Y-74953985D01*
X107738485Y-75096842D01*
X107738485Y-75239700D01*
X108093247Y-75168271D02*
X108022295Y-75311128D01*
X107880390Y-75453985D01*
X107596580Y-75525414D01*
X107099914Y-75525414D01*
X106816104Y-75453985D01*
X106674200Y-75311128D01*
X106603247Y-75168271D01*
X106603247Y-74882557D01*
X106674200Y-74739700D01*
X106816104Y-74596842D01*
X107099914Y-74525414D01*
X107596580Y-74525414D01*
X107880390Y-74596842D01*
X108022295Y-74739700D01*
X108093247Y-74882557D01*
X108093247Y-75168271D01*
X110628247Y-76811128D02*
X109138247Y-76811128D01*
X109138247Y-76453985D01*
X109209200Y-76239700D01*
X109351104Y-76096842D01*
X109493009Y-76025414D01*
X109776819Y-75953985D01*
X109989676Y-75953985D01*
X110273485Y-76025414D01*
X110415390Y-76096842D01*
X110557295Y-76239700D01*
X110628247Y-76453985D01*
X110628247Y-76811128D01*
X109138247Y-75025414D02*
X109138247Y-74882557D01*
X109209200Y-74739700D01*
X109280152Y-74668271D01*
X109422057Y-74596842D01*
X109705866Y-74525414D01*
X110060628Y-74525414D01*
X110344438Y-74596842D01*
X110486342Y-74668271D01*
X110557295Y-74739700D01*
X110628247Y-74882557D01*
X110628247Y-75025414D01*
X110557295Y-75168271D01*
X110486342Y-75239700D01*
X110344438Y-75311128D01*
X110060628Y-75382557D01*
X109705866Y-75382557D01*
X109422057Y-75311128D01*
X109280152Y-75239700D01*
X109209200Y-75168271D01*
X109138247Y-75025414D01*
X113163247Y-76811128D02*
X111673247Y-76811128D01*
X111673247Y-76453985D01*
X111744200Y-76239700D01*
X111886104Y-76096842D01*
X112028009Y-76025414D01*
X112311819Y-75953985D01*
X112524676Y-75953985D01*
X112808485Y-76025414D01*
X112950390Y-76096842D01*
X113092295Y-76239700D01*
X113163247Y-76453985D01*
X113163247Y-76811128D01*
X113163247Y-74525414D02*
X113163247Y-75382557D01*
X113163247Y-74953985D02*
X111673247Y-74953985D01*
X111886104Y-75096842D01*
X112028009Y-75239700D01*
X112098961Y-75382557D01*
X115698247Y-76811128D02*
X114208247Y-76811128D01*
X114208247Y-76453985D01*
X114279200Y-76239700D01*
X114421104Y-76096842D01*
X114563009Y-76025414D01*
X114846819Y-75953985D01*
X115059676Y-75953985D01*
X115343485Y-76025414D01*
X115485390Y-76096842D01*
X115627295Y-76239700D01*
X115698247Y-76453985D01*
X115698247Y-76811128D01*
X114350152Y-75382557D02*
X114279200Y-75311128D01*
X114208247Y-75168271D01*
X114208247Y-74811128D01*
X114279200Y-74668271D01*
X114350152Y-74596842D01*
X114492057Y-74525414D01*
X114633961Y-74525414D01*
X114846819Y-74596842D01*
X115698247Y-75453985D01*
X115698247Y-74525414D01*
X118233247Y-76811128D02*
X116743247Y-76811128D01*
X116743247Y-76453985D01*
X116814200Y-76239700D01*
X116956104Y-76096842D01*
X117098009Y-76025414D01*
X117381819Y-75953985D01*
X117594676Y-75953985D01*
X117878485Y-76025414D01*
X118020390Y-76096842D01*
X118162295Y-76239700D01*
X118233247Y-76453985D01*
X118233247Y-76811128D01*
X116743247Y-75453985D02*
X116743247Y-74525414D01*
X117310866Y-75025414D01*
X117310866Y-74811128D01*
X117381819Y-74668271D01*
X117452771Y-74596842D01*
X117594676Y-74525414D01*
X117949438Y-74525414D01*
X118091342Y-74596842D01*
X118162295Y-74668271D01*
X118233247Y-74811128D01*
X118233247Y-75239700D01*
X118162295Y-75382557D01*
X118091342Y-75453985D01*
X120768247Y-76811128D02*
X119278247Y-76811128D01*
X119278247Y-76453985D01*
X119349200Y-76239700D01*
X119491104Y-76096842D01*
X119633009Y-76025414D01*
X119916819Y-75953985D01*
X120129676Y-75953985D01*
X120413485Y-76025414D01*
X120555390Y-76096842D01*
X120697295Y-76239700D01*
X120768247Y-76453985D01*
X120768247Y-76811128D01*
X119774914Y-74668271D02*
X120768247Y-74668271D01*
X119207295Y-75025414D02*
X120271580Y-75382557D01*
X120271580Y-74453985D01*
X123303247Y-76811128D02*
X121813247Y-76811128D01*
X121813247Y-76453985D01*
X121884200Y-76239700D01*
X122026104Y-76096842D01*
X122168009Y-76025414D01*
X122451819Y-75953985D01*
X122664676Y-75953985D01*
X122948485Y-76025414D01*
X123090390Y-76096842D01*
X123232295Y-76239700D01*
X123303247Y-76453985D01*
X123303247Y-76811128D01*
X121813247Y-74596842D02*
X121813247Y-75311128D01*
X122522771Y-75382557D01*
X122451819Y-75311128D01*
X122380866Y-75168271D01*
X122380866Y-74811128D01*
X122451819Y-74668271D01*
X122522771Y-74596842D01*
X122664676Y-74525414D01*
X123019438Y-74525414D01*
X123161342Y-74596842D01*
X123232295Y-74668271D01*
X123303247Y-74811128D01*
X123303247Y-75168271D01*
X123232295Y-75311128D01*
X123161342Y-75382557D01*
X125838247Y-76811128D02*
X124348247Y-76811128D01*
X124348247Y-76453985D01*
X124419200Y-76239700D01*
X124561104Y-76096842D01*
X124703009Y-76025414D01*
X124986819Y-75953985D01*
X125199676Y-75953985D01*
X125483485Y-76025414D01*
X125625390Y-76096842D01*
X125767295Y-76239700D01*
X125838247Y-76453985D01*
X125838247Y-76811128D01*
X124348247Y-74668271D02*
X124348247Y-74953985D01*
X124419200Y-75096842D01*
X124490152Y-75168271D01*
X124703009Y-75311128D01*
X124986819Y-75382557D01*
X125554438Y-75382557D01*
X125696342Y-75311128D01*
X125767295Y-75239700D01*
X125838247Y-75096842D01*
X125838247Y-74811128D01*
X125767295Y-74668271D01*
X125696342Y-74596842D01*
X125554438Y-74525414D01*
X125199676Y-74525414D01*
X125057771Y-74596842D01*
X124986819Y-74668271D01*
X124915866Y-74811128D01*
X124915866Y-75096842D01*
X124986819Y-75239700D01*
X125057771Y-75311128D01*
X125199676Y-75382557D01*
X128373247Y-76811128D02*
X126883247Y-76811128D01*
X126883247Y-76453985D01*
X126954200Y-76239700D01*
X127096104Y-76096842D01*
X127238009Y-76025414D01*
X127521819Y-75953985D01*
X127734676Y-75953985D01*
X128018485Y-76025414D01*
X128160390Y-76096842D01*
X128302295Y-76239700D01*
X128373247Y-76453985D01*
X128373247Y-76811128D01*
X126883247Y-75453985D02*
X126883247Y-74453985D01*
X128373247Y-75096842D01*
X129418247Y-76453985D02*
X129418247Y-75596842D01*
X130908247Y-76025414D02*
X129418247Y-76025414D01*
X130908247Y-75239700D02*
X129914914Y-74453985D01*
X129914914Y-75239700D02*
X130908247Y-74453985D01*
X133443247Y-75739700D02*
X132733723Y-76239700D01*
X133443247Y-76596842D02*
X131953247Y-76596842D01*
X131953247Y-76025414D01*
X132024200Y-75882557D01*
X132095152Y-75811128D01*
X132237057Y-75739700D01*
X132449914Y-75739700D01*
X132591819Y-75811128D01*
X132662771Y-75882557D01*
X132733723Y-76025414D01*
X132733723Y-76596842D01*
X133443247Y-75239700D02*
X132449914Y-74453985D01*
X132449914Y-75239700D02*
X133443247Y-74453985D01*
X134488247Y-79811128D02*
X135694438Y-79811128D01*
X135836342Y-79739700D01*
X135907295Y-79668271D01*
X135978247Y-79525414D01*
X135978247Y-79239700D01*
X135907295Y-79096842D01*
X135836342Y-79025414D01*
X135694438Y-78953985D01*
X134488247Y-78953985D01*
X135907295Y-78311128D02*
X135978247Y-78096842D01*
X135978247Y-77739700D01*
X135907295Y-77596842D01*
X135836342Y-77525414D01*
X135694438Y-77453985D01*
X135552533Y-77453985D01*
X135410628Y-77525414D01*
X135339676Y-77596842D01*
X135268723Y-77739700D01*
X135197771Y-78025414D01*
X135126819Y-78168271D01*
X135055866Y-78239700D01*
X134913961Y-78311128D01*
X134772057Y-78311128D01*
X134630152Y-78239700D01*
X134559200Y-78168271D01*
X134488247Y-78025414D01*
X134488247Y-77668271D01*
X134559200Y-77453985D01*
X135978247Y-75953985D02*
X135268723Y-76453985D01*
X135978247Y-76811128D02*
X134488247Y-76811128D01*
X134488247Y-76239700D01*
X134559200Y-76096842D01*
X134630152Y-76025414D01*
X134772057Y-75953985D01*
X134984914Y-75953985D01*
X135126819Y-76025414D01*
X135197771Y-76096842D01*
X135268723Y-76239700D01*
X135268723Y-76811128D01*
X135978247Y-74525414D02*
X135978247Y-75382557D01*
X135978247Y-74953985D02*
X134488247Y-74953985D01*
X134701104Y-75096842D01*
X134843009Y-75239700D01*
X134913961Y-75382557D01*
X137023247Y-79811128D02*
X138229438Y-79811128D01*
X138371342Y-79739700D01*
X138442295Y-79668271D01*
X138513247Y-79525414D01*
X138513247Y-79239700D01*
X138442295Y-79096842D01*
X138371342Y-79025414D01*
X138229438Y-78953985D01*
X137023247Y-78953985D01*
X138442295Y-78311128D02*
X138513247Y-78096842D01*
X138513247Y-77739700D01*
X138442295Y-77596842D01*
X138371342Y-77525414D01*
X138229438Y-77453985D01*
X138087533Y-77453985D01*
X137945628Y-77525414D01*
X137874676Y-77596842D01*
X137803723Y-77739700D01*
X137732771Y-78025414D01*
X137661819Y-78168271D01*
X137590866Y-78239700D01*
X137448961Y-78311128D01*
X137307057Y-78311128D01*
X137165152Y-78239700D01*
X137094200Y-78168271D01*
X137023247Y-78025414D01*
X137023247Y-77668271D01*
X137094200Y-77453985D01*
X138513247Y-75953985D02*
X137803723Y-76453985D01*
X138513247Y-76811128D02*
X137023247Y-76811128D01*
X137023247Y-76239700D01*
X137094200Y-76096842D01*
X137165152Y-76025414D01*
X137307057Y-75953985D01*
X137519914Y-75953985D01*
X137661819Y-76025414D01*
X137732771Y-76096842D01*
X137803723Y-76239700D01*
X137803723Y-76811128D01*
X137165152Y-75382557D02*
X137094200Y-75311128D01*
X137023247Y-75168271D01*
X137023247Y-74811128D01*
X137094200Y-74668271D01*
X137165152Y-74596842D01*
X137307057Y-74525414D01*
X137448961Y-74525414D01*
X137661819Y-74596842D01*
X138513247Y-75453985D01*
X138513247Y-74525414D01*
X139558247Y-79811128D02*
X140764438Y-79811128D01*
X140906342Y-79739700D01*
X140977295Y-79668271D01*
X141048247Y-79525414D01*
X141048247Y-79239700D01*
X140977295Y-79096842D01*
X140906342Y-79025414D01*
X140764438Y-78953985D01*
X139558247Y-78953985D01*
X140977295Y-78311128D02*
X141048247Y-78096842D01*
X141048247Y-77739700D01*
X140977295Y-77596842D01*
X140906342Y-77525414D01*
X140764438Y-77453985D01*
X140622533Y-77453985D01*
X140480628Y-77525414D01*
X140409676Y-77596842D01*
X140338723Y-77739700D01*
X140267771Y-78025414D01*
X140196819Y-78168271D01*
X140125866Y-78239700D01*
X139983961Y-78311128D01*
X139842057Y-78311128D01*
X139700152Y-78239700D01*
X139629200Y-78168271D01*
X139558247Y-78025414D01*
X139558247Y-77668271D01*
X139629200Y-77453985D01*
X141048247Y-75953985D02*
X140338723Y-76453985D01*
X141048247Y-76811128D02*
X139558247Y-76811128D01*
X139558247Y-76239700D01*
X139629200Y-76096842D01*
X139700152Y-76025414D01*
X139842057Y-75953985D01*
X140054914Y-75953985D01*
X140196819Y-76025414D01*
X140267771Y-76096842D01*
X140338723Y-76239700D01*
X140338723Y-76811128D01*
X139558247Y-75453985D02*
X139558247Y-74525414D01*
X140125866Y-75025414D01*
X140125866Y-74811128D01*
X140196819Y-74668271D01*
X140267771Y-74596842D01*
X140409676Y-74525414D01*
X140764438Y-74525414D01*
X140906342Y-74596842D01*
X140977295Y-74668271D01*
X141048247Y-74811128D01*
X141048247Y-75239700D01*
X140977295Y-75382557D01*
X140906342Y-75453985D01*
X44658251Y-69702865D02*
X43158251Y-69702865D01*
X43158251Y-69131437D01*
X43229680Y-68988580D01*
X43301108Y-68917151D01*
X43443965Y-68845722D01*
X43658251Y-68845722D01*
X43801108Y-68917151D01*
X43872537Y-68988580D01*
X43943965Y-69131437D01*
X43943965Y-69702865D01*
X44658251Y-68202865D02*
X43658251Y-68202865D01*
X43158251Y-68202865D02*
X43229680Y-68274294D01*
X43301108Y-68202865D01*
X43229680Y-68131437D01*
X43158251Y-68202865D01*
X43301108Y-68202865D01*
X43658251Y-67488580D02*
X44658251Y-67488580D01*
X43801108Y-67488580D02*
X43729680Y-67417151D01*
X43658251Y-67274294D01*
X43658251Y-67060008D01*
X43729680Y-66917151D01*
X43872537Y-66845722D01*
X44658251Y-66845722D01*
X44658251Y-64202865D02*
X44658251Y-65060008D01*
X44658251Y-64631437D02*
X43158251Y-64631437D01*
X43372537Y-64774294D01*
X43515394Y-64917151D01*
X43586822Y-65060008D01*
D11*
%TO.C,*%
X42450000Y-73550000D02*
X42450000Y-70450000D01*
X44000000Y-73550000D02*
X42450000Y-73550000D01*
X45270000Y-70730000D02*
X45270000Y-73270000D01*
X42450000Y-70450000D02*
X44000000Y-70450000D01*
X141459800Y-70730000D02*
X45270000Y-70730000D01*
X141459800Y-73270000D02*
X141459800Y-70730000D01*
X45270000Y-73270000D02*
X141459800Y-73270000D01*
%TD*%
M02*
