M48
; DRILL file {KiCad 5.1.6} date Sun Aug 16 22:11:40 2020
; FORMAT={-:-/ absolute / metric / decimal}
; #@! TF.CreationDate,2020-08-16T22:11:40+02:00
; #@! TF.GenerationSoftware,Kicad,Pcbnew,5.1.6
; #@! TF.FileFunction,Plated,1,2,PTH
FMAT,2
METRIC
T1C0.300
T2C0.900
T3C1.000
T4C1.800
%
G90
G05
T1
X43.18Y-39.116
X43.434Y-66.04
X46.101Y-55.626
X51.75Y-58.33
X55.7Y-54.6
X56.845Y-58.293
X57.658Y-24.892
X58.369Y-54.508
X58.395Y-52.629
X59.436Y-69.596
X60.985Y-54.966
X61.468Y-70.358
X63.881Y-62.738
X64.287Y-46.558
X66.929Y-63.754
X67.7Y-49.8
X67.7Y-52.2
X67.8Y-46.5
X68.199Y-67.564
X68.834Y-68.326
X69.596Y-69.088
X70.358Y-69.85
X70.5Y-58.0
X71.12Y-70.612
X71.2Y-61.4
X71.9Y-56.7
X73.7Y-44.8
X74.676Y-61.214
X75.438Y-61.214
X76.2Y-61.214
X76.7Y-46.3
X76.7Y-48.2
X76.759Y-41.758
X76.81Y-55.575
X76.9Y-56.6
X76.962Y-61.214
X78.6Y-56.6
X78.613Y-55.651
X78.7Y-46.3
X78.7Y-48.2
X79.883Y-61.595
X81.3Y-35.2
X82.042Y-44.958
X82.2Y-27.0
X82.296Y-36.982
X83.8Y-46.3
X83.871Y-54.737
X86.106Y-40.64
X86.868Y-56.388
X88.138Y-64.643
X89.408Y-58.674
X89.662Y-42.164
X90.0Y-47.1
X90.17Y-48.514
X90.424Y-40.386
X90.932Y-57.658
X91.567Y-64.516
X91.567Y-65.786
X91.948Y-47.244
X92.1Y-55.0
X93.2Y-54.3
X94.699Y-39.667
X95.2Y-53.7
X97.0Y-53.0
X98.806Y-69.85
X99.0Y-52.4
X100.8Y-51.7
X102.7Y-51.1
X104.6Y-50.4
X104.953Y-36.297
X106.5Y-49.8
X106.782Y-36.297
X109.982Y-26.67
X109.982Y-52.07
X122.1Y-36.4
X122.174Y-33.274
X122.428Y-39.878
X122.428Y-45.466
X122.428Y-46.99
X123.3Y-42.7
X123.444Y-38.354
X131.572Y-28.956
X131.572Y-32.512
X131.572Y-45.72
X131.572Y-49.276
X131.572Y-56.134
X131.623Y-51.918
X136.906Y-24.511
X137.955Y-24.584
X139.846Y-25.466
X140.577Y-26.222
X141.224Y-69.596
X141.393Y-28.143
X141.393Y-29.21
T2
X127.532Y-32.39
X127.532Y-34.68
X127.532Y-43.82
X127.532Y-46.11
X132.332Y-36.7
X132.332Y-38.74
X132.332Y-40.78
X132.332Y-42.82
X134.112Y-35.68
X134.112Y-37.72
X134.112Y-39.76
X134.112Y-41.8
T3
X44.704Y-42.164
X44.704Y-44.704
X47.244Y-42.164
X47.244Y-44.704
X49.784Y-42.164
X49.784Y-44.704
X52.324Y-42.164
X52.324Y-44.704
X54.864Y-42.164
X54.864Y-44.704
X57.404Y-42.164
X57.404Y-44.704
X59.944Y-42.164
X59.944Y-44.704
X62.484Y-42.164
X62.484Y-44.704
X44.0Y-72.0
X46.54Y-72.0
X49.08Y-72.0
X51.62Y-72.0
X54.16Y-72.0
X56.7Y-72.0
X59.24Y-72.0
X61.78Y-72.0
X64.32Y-72.0
X66.86Y-72.0
X69.4Y-72.0
X71.94Y-72.0
X74.48Y-72.0
X77.02Y-72.0
X79.56Y-72.0
X82.1Y-72.0
X84.64Y-72.0
X87.18Y-72.0
X89.72Y-72.0
X92.26Y-72.0
X94.8Y-72.0
X97.34Y-72.0
X99.88Y-72.0
X102.42Y-72.0
X104.96Y-72.0
X107.5Y-72.0
X110.04Y-72.0
X112.58Y-72.0
X115.12Y-72.0
X117.66Y-72.0
X120.2Y-72.0
X122.74Y-72.0
X125.28Y-72.0
X127.82Y-72.0
X130.36Y-72.0
X132.9Y-72.0
X135.44Y-72.0
X137.98Y-72.0
X140.52Y-72.0
T4
X133.092Y-31.05
X133.092Y-47.45
T0
M30
