%TF.GenerationSoftware,KiCad,Pcbnew,5.1.6*%
%TF.CreationDate,2020-08-16T22:16:08+02:00*%
%TF.ProjectId,RC2014-Ethernet,52433230-3134-42d4-9574-6865726e6574,rev?*%
%TF.SameCoordinates,Original*%
%TF.FileFunction,Soldermask,Bot*%
%TF.FilePolarity,Negative*%
%FSLAX46Y46*%
G04 Gerber Fmt 4.6, Leading zero omitted, Abs format (unit mm)*
G04 Created by KiCad (PCBNEW 5.1.6) date 2020-08-16 22:16:08*
%MOMM*%
%LPD*%
G01*
G04 APERTURE LIST*
%ADD10C,1.252000*%
%ADD11C,1.500000*%
%ADD12C,2.600000*%
%ADD13C,3.300000*%
%ADD14R,2.600000X2.600000*%
%ADD15O,1.800000X1.800000*%
%ADD16R,1.800000X1.800000*%
G04 APERTURE END LIST*
D10*
%TO.C,H2*%
X139319000Y-26670000D03*
%TD*%
%TO.C,H1*%
X45720000Y-69215000D03*
%TD*%
D11*
%TO.C,J2*%
X127532000Y-43820000D03*
X127532000Y-46110000D03*
X127532000Y-34680000D03*
X127532000Y-32390000D03*
X132332000Y-42820000D03*
X134112000Y-41800000D03*
X132332000Y-40780000D03*
X134112000Y-39760000D03*
X132332000Y-38740000D03*
X134112000Y-37720000D03*
X132332000Y-36700000D03*
X134112000Y-35680000D03*
D12*
X133092000Y-47450000D03*
X133092000Y-31050000D03*
D13*
X136652000Y-45600000D03*
X136652000Y-32900000D03*
%TD*%
D14*
%TO.C,TP1*%
X83820000Y-51308000D03*
%TD*%
D15*
%TO.C,J3*%
X62484000Y-42164000D03*
X62484000Y-44704000D03*
X59944000Y-42164000D03*
X59944000Y-44704000D03*
X57404000Y-42164000D03*
X57404000Y-44704000D03*
X54864000Y-42164000D03*
X54864000Y-44704000D03*
X52324000Y-42164000D03*
X52324000Y-44704000D03*
X49784000Y-42164000D03*
X49784000Y-44704000D03*
X47244000Y-42164000D03*
X47244000Y-44704000D03*
X44704000Y-42164000D03*
D16*
X44704000Y-44704000D03*
%TD*%
D15*
%TO.C,J1*%
X140520000Y-72000000D03*
X137980000Y-72000000D03*
X135440000Y-72000000D03*
X132900000Y-72000000D03*
X130360000Y-72000000D03*
X127820000Y-72000000D03*
X125280000Y-72000000D03*
X122740000Y-72000000D03*
X120200000Y-72000000D03*
X117660000Y-72000000D03*
X115120000Y-72000000D03*
X112580000Y-72000000D03*
X110040000Y-72000000D03*
X107500000Y-72000000D03*
X104960000Y-72000000D03*
X102420000Y-72000000D03*
X99880000Y-72000000D03*
X97340000Y-72000000D03*
X94800000Y-72000000D03*
X92260000Y-72000000D03*
X89720000Y-72000000D03*
X87180000Y-72000000D03*
X84640000Y-72000000D03*
X82100000Y-72000000D03*
X79560000Y-72000000D03*
X77020000Y-72000000D03*
X74480000Y-72000000D03*
X71940000Y-72000000D03*
X69400000Y-72000000D03*
X66860000Y-72000000D03*
X64320000Y-72000000D03*
X61780000Y-72000000D03*
X59240000Y-72000000D03*
X56700000Y-72000000D03*
X54160000Y-72000000D03*
X51620000Y-72000000D03*
X49080000Y-72000000D03*
X46540000Y-72000000D03*
D16*
X44000000Y-72000000D03*
%TD*%
M02*
