%TF.GenerationSoftware,KiCad,Pcbnew,5.1.6*%
%TF.CreationDate,2020-08-16T22:16:08+02:00*%
%TF.ProjectId,RC2014-Ethernet,52433230-3134-42d4-9574-6865726e6574,rev?*%
%TF.SameCoordinates,Original*%
%TF.FileFunction,Legend,Bot*%
%TF.FilePolarity,Positive*%
%FSLAX46Y46*%
G04 Gerber Fmt 4.6, Leading zero omitted, Abs format (unit mm)*
G04 Created by KiCad (PCBNEW 5.1.6) date 2020-08-16 22:16:08*
%MOMM*%
%LPD*%
G01*
G04 APERTURE LIST*
%ADD10C,0.300000*%
%ADD11C,0.120000*%
%ADD12C,0.150000*%
G04 APERTURE END LIST*
D10*
X87014285Y-48938571D02*
X87014285Y-47438571D01*
X86014285Y-47438571D02*
X85728571Y-47438571D01*
X85585714Y-47510000D01*
X85442857Y-47652857D01*
X85371428Y-47938571D01*
X85371428Y-48438571D01*
X85442857Y-48724285D01*
X85585714Y-48867142D01*
X85728571Y-48938571D01*
X86014285Y-48938571D01*
X86157142Y-48867142D01*
X86300000Y-48724285D01*
X86371428Y-48438571D01*
X86371428Y-47938571D01*
X86300000Y-47652857D01*
X86157142Y-47510000D01*
X86014285Y-47438571D01*
X83871428Y-48795714D02*
X83942857Y-48867142D01*
X84157142Y-48938571D01*
X84300000Y-48938571D01*
X84514285Y-48867142D01*
X84657142Y-48724285D01*
X84728571Y-48581428D01*
X84800000Y-48295714D01*
X84800000Y-48081428D01*
X84728571Y-47795714D01*
X84657142Y-47652857D01*
X84514285Y-47510000D01*
X84300000Y-47438571D01*
X84157142Y-47438571D01*
X83942857Y-47510000D01*
X83871428Y-47581428D01*
X83228571Y-48938571D02*
X83228571Y-47438571D01*
X83228571Y-48152857D02*
X82371428Y-48152857D01*
X82371428Y-48938571D02*
X82371428Y-47438571D01*
X80800000Y-48938571D02*
X81300000Y-48224285D01*
X81657142Y-48938571D02*
X81657142Y-47438571D01*
X81085714Y-47438571D01*
X80942857Y-47510000D01*
X80871428Y-47581428D01*
X80800000Y-47724285D01*
X80800000Y-47938571D01*
X80871428Y-48081428D01*
X80942857Y-48152857D01*
X81085714Y-48224285D01*
X81657142Y-48224285D01*
X80157142Y-48938571D02*
X80157142Y-47438571D01*
X79800000Y-47438571D01*
X79585714Y-47510000D01*
X79442857Y-47652857D01*
X79371428Y-47795714D01*
X79300000Y-48081428D01*
X79300000Y-48295714D01*
X79371428Y-48581428D01*
X79442857Y-48724285D01*
X79585714Y-48867142D01*
X79800000Y-48938571D01*
X80157142Y-48938571D01*
X78371428Y-48224285D02*
X78371428Y-48938571D01*
X78871428Y-47438571D02*
X78371428Y-48224285D01*
X77871428Y-47438571D01*
D11*
%TO.C,TP1*%
X82370000Y-52758000D02*
X85270000Y-52758000D01*
X85270000Y-52758000D02*
X85270000Y-49858000D01*
X85270000Y-49858000D02*
X82370000Y-49858000D01*
X82370000Y-49858000D02*
X82370000Y-52758000D01*
D12*
X85081904Y-52908380D02*
X84510476Y-52908380D01*
X84796190Y-53908380D02*
X84796190Y-52908380D01*
X84177142Y-53908380D02*
X84177142Y-52908380D01*
X83796190Y-52908380D01*
X83700952Y-52956000D01*
X83653333Y-53003619D01*
X83605714Y-53098857D01*
X83605714Y-53241714D01*
X83653333Y-53336952D01*
X83700952Y-53384571D01*
X83796190Y-53432190D01*
X84177142Y-53432190D01*
X82653333Y-53908380D02*
X83224761Y-53908380D01*
X82939047Y-53908380D02*
X82939047Y-52908380D01*
X83034285Y-53051238D01*
X83129523Y-53146476D01*
X83224761Y-53194095D01*
%TD*%
M02*
