%TF.GenerationSoftware,KiCad,Pcbnew,5.1.6*%
%TF.CreationDate,2020-08-16T22:16:08+02:00*%
%TF.ProjectId,RC2014-Ethernet,52433230-3134-42d4-9574-6865726e6574,rev?*%
%TF.SameCoordinates,Original*%
%TF.FileFunction,Paste,Top*%
%TF.FilePolarity,Positive*%
%FSLAX46Y46*%
G04 Gerber Fmt 4.6, Leading zero omitted, Abs format (unit mm)*
G04 Created by KiCad (PCBNEW 5.1.6) date 2020-08-16 22:16:08*
%MOMM*%
%LPD*%
G01*
G04 APERTURE LIST*
%ADD10R,1.200000X0.480000*%
%ADD11R,0.960000X1.120000*%
G04 APERTURE END LIST*
D10*
%TO.C,T1*%
X117426000Y-35055000D03*
X117426000Y-36325000D03*
X117426000Y-37595000D03*
X117426000Y-41405000D03*
X117426000Y-42675000D03*
X117426000Y-43945000D03*
X108126000Y-43945000D03*
X108126000Y-42675000D03*
X108126000Y-41405000D03*
X108126000Y-37595000D03*
X108126000Y-36325000D03*
X108126000Y-35055000D03*
%TD*%
%TO.C,FB3*%
G36*
G01*
X131207000Y-54776500D02*
X131937000Y-54776500D01*
G75*
G02*
X132132000Y-54971500I0J-195000D01*
G01*
X132132000Y-55361500D01*
G75*
G02*
X131937000Y-55556500I-195000J0D01*
G01*
X131207000Y-55556500D01*
G75*
G02*
X131012000Y-55361500I0J195000D01*
G01*
X131012000Y-54971500D01*
G75*
G02*
X131207000Y-54776500I195000J0D01*
G01*
G37*
G36*
G01*
X131207000Y-52901500D02*
X131937000Y-52901500D01*
G75*
G02*
X132132000Y-53096500I0J-195000D01*
G01*
X132132000Y-53486500D01*
G75*
G02*
X131937000Y-53681500I-195000J0D01*
G01*
X131207000Y-53681500D01*
G75*
G02*
X131012000Y-53486500I0J195000D01*
G01*
X131012000Y-53096500D01*
G75*
G02*
X131207000Y-52901500I195000J0D01*
G01*
G37*
%TD*%
%TO.C,U2*%
G36*
G01*
X48062500Y-52596000D02*
X47822500Y-52596000D01*
G75*
G02*
X47702500Y-52476000I0J120000D01*
G01*
X47702500Y-51156000D01*
G75*
G02*
X47822500Y-51036000I120000J0D01*
G01*
X48062500Y-51036000D01*
G75*
G02*
X48182500Y-51156000I0J-120000D01*
G01*
X48182500Y-52476000D01*
G75*
G02*
X48062500Y-52596000I-120000J0D01*
G01*
G37*
G36*
G01*
X49332500Y-52596000D02*
X49092500Y-52596000D01*
G75*
G02*
X48972500Y-52476000I0J120000D01*
G01*
X48972500Y-51156000D01*
G75*
G02*
X49092500Y-51036000I120000J0D01*
G01*
X49332500Y-51036000D01*
G75*
G02*
X49452500Y-51156000I0J-120000D01*
G01*
X49452500Y-52476000D01*
G75*
G02*
X49332500Y-52596000I-120000J0D01*
G01*
G37*
G36*
G01*
X50602500Y-52596000D02*
X50362500Y-52596000D01*
G75*
G02*
X50242500Y-52476000I0J120000D01*
G01*
X50242500Y-51156000D01*
G75*
G02*
X50362500Y-51036000I120000J0D01*
G01*
X50602500Y-51036000D01*
G75*
G02*
X50722500Y-51156000I0J-120000D01*
G01*
X50722500Y-52476000D01*
G75*
G02*
X50602500Y-52596000I-120000J0D01*
G01*
G37*
G36*
G01*
X51872500Y-52596000D02*
X51632500Y-52596000D01*
G75*
G02*
X51512500Y-52476000I0J120000D01*
G01*
X51512500Y-51156000D01*
G75*
G02*
X51632500Y-51036000I120000J0D01*
G01*
X51872500Y-51036000D01*
G75*
G02*
X51992500Y-51156000I0J-120000D01*
G01*
X51992500Y-52476000D01*
G75*
G02*
X51872500Y-52596000I-120000J0D01*
G01*
G37*
G36*
G01*
X53142500Y-52596000D02*
X52902500Y-52596000D01*
G75*
G02*
X52782500Y-52476000I0J120000D01*
G01*
X52782500Y-51156000D01*
G75*
G02*
X52902500Y-51036000I120000J0D01*
G01*
X53142500Y-51036000D01*
G75*
G02*
X53262500Y-51156000I0J-120000D01*
G01*
X53262500Y-52476000D01*
G75*
G02*
X53142500Y-52596000I-120000J0D01*
G01*
G37*
G36*
G01*
X54412500Y-52596000D02*
X54172500Y-52596000D01*
G75*
G02*
X54052500Y-52476000I0J120000D01*
G01*
X54052500Y-51156000D01*
G75*
G02*
X54172500Y-51036000I120000J0D01*
G01*
X54412500Y-51036000D01*
G75*
G02*
X54532500Y-51156000I0J-120000D01*
G01*
X54532500Y-52476000D01*
G75*
G02*
X54412500Y-52596000I-120000J0D01*
G01*
G37*
G36*
G01*
X55682500Y-52596000D02*
X55442500Y-52596000D01*
G75*
G02*
X55322500Y-52476000I0J120000D01*
G01*
X55322500Y-51156000D01*
G75*
G02*
X55442500Y-51036000I120000J0D01*
G01*
X55682500Y-51036000D01*
G75*
G02*
X55802500Y-51156000I0J-120000D01*
G01*
X55802500Y-52476000D01*
G75*
G02*
X55682500Y-52596000I-120000J0D01*
G01*
G37*
G36*
G01*
X56952500Y-52596000D02*
X56712500Y-52596000D01*
G75*
G02*
X56592500Y-52476000I0J120000D01*
G01*
X56592500Y-51156000D01*
G75*
G02*
X56712500Y-51036000I120000J0D01*
G01*
X56952500Y-51036000D01*
G75*
G02*
X57072500Y-51156000I0J-120000D01*
G01*
X57072500Y-52476000D01*
G75*
G02*
X56952500Y-52596000I-120000J0D01*
G01*
G37*
G36*
G01*
X56952500Y-57546000D02*
X56712500Y-57546000D01*
G75*
G02*
X56592500Y-57426000I0J120000D01*
G01*
X56592500Y-56106000D01*
G75*
G02*
X56712500Y-55986000I120000J0D01*
G01*
X56952500Y-55986000D01*
G75*
G02*
X57072500Y-56106000I0J-120000D01*
G01*
X57072500Y-57426000D01*
G75*
G02*
X56952500Y-57546000I-120000J0D01*
G01*
G37*
G36*
G01*
X55682500Y-57546000D02*
X55442500Y-57546000D01*
G75*
G02*
X55322500Y-57426000I0J120000D01*
G01*
X55322500Y-56106000D01*
G75*
G02*
X55442500Y-55986000I120000J0D01*
G01*
X55682500Y-55986000D01*
G75*
G02*
X55802500Y-56106000I0J-120000D01*
G01*
X55802500Y-57426000D01*
G75*
G02*
X55682500Y-57546000I-120000J0D01*
G01*
G37*
G36*
G01*
X54412500Y-57546000D02*
X54172500Y-57546000D01*
G75*
G02*
X54052500Y-57426000I0J120000D01*
G01*
X54052500Y-56106000D01*
G75*
G02*
X54172500Y-55986000I120000J0D01*
G01*
X54412500Y-55986000D01*
G75*
G02*
X54532500Y-56106000I0J-120000D01*
G01*
X54532500Y-57426000D01*
G75*
G02*
X54412500Y-57546000I-120000J0D01*
G01*
G37*
G36*
G01*
X53142500Y-57546000D02*
X52902500Y-57546000D01*
G75*
G02*
X52782500Y-57426000I0J120000D01*
G01*
X52782500Y-56106000D01*
G75*
G02*
X52902500Y-55986000I120000J0D01*
G01*
X53142500Y-55986000D01*
G75*
G02*
X53262500Y-56106000I0J-120000D01*
G01*
X53262500Y-57426000D01*
G75*
G02*
X53142500Y-57546000I-120000J0D01*
G01*
G37*
G36*
G01*
X51872500Y-57546000D02*
X51632500Y-57546000D01*
G75*
G02*
X51512500Y-57426000I0J120000D01*
G01*
X51512500Y-56106000D01*
G75*
G02*
X51632500Y-55986000I120000J0D01*
G01*
X51872500Y-55986000D01*
G75*
G02*
X51992500Y-56106000I0J-120000D01*
G01*
X51992500Y-57426000D01*
G75*
G02*
X51872500Y-57546000I-120000J0D01*
G01*
G37*
G36*
G01*
X50602500Y-57546000D02*
X50362500Y-57546000D01*
G75*
G02*
X50242500Y-57426000I0J120000D01*
G01*
X50242500Y-56106000D01*
G75*
G02*
X50362500Y-55986000I120000J0D01*
G01*
X50602500Y-55986000D01*
G75*
G02*
X50722500Y-56106000I0J-120000D01*
G01*
X50722500Y-57426000D01*
G75*
G02*
X50602500Y-57546000I-120000J0D01*
G01*
G37*
G36*
G01*
X49332500Y-57546000D02*
X49092500Y-57546000D01*
G75*
G02*
X48972500Y-57426000I0J120000D01*
G01*
X48972500Y-56106000D01*
G75*
G02*
X49092500Y-55986000I120000J0D01*
G01*
X49332500Y-55986000D01*
G75*
G02*
X49452500Y-56106000I0J-120000D01*
G01*
X49452500Y-57426000D01*
G75*
G02*
X49332500Y-57546000I-120000J0D01*
G01*
G37*
G36*
G01*
X48062500Y-57546000D02*
X47822500Y-57546000D01*
G75*
G02*
X47702500Y-57426000I0J120000D01*
G01*
X47702500Y-56106000D01*
G75*
G02*
X47822500Y-55986000I120000J0D01*
G01*
X48062500Y-55986000D01*
G75*
G02*
X48182500Y-56106000I0J-120000D01*
G01*
X48182500Y-57426000D01*
G75*
G02*
X48062500Y-57546000I-120000J0D01*
G01*
G37*
%TD*%
%TO.C,U1*%
G36*
G01*
X66901500Y-57770000D02*
X65661500Y-57770000D01*
G75*
G02*
X65581500Y-57690000I0J80000D01*
G01*
X65581500Y-57530000D01*
G75*
G02*
X65661500Y-57450000I80000J0D01*
G01*
X66901500Y-57450000D01*
G75*
G02*
X66981500Y-57530000I0J-80000D01*
G01*
X66981500Y-57690000D01*
G75*
G02*
X66901500Y-57770000I-80000J0D01*
G01*
G37*
G36*
G01*
X66901500Y-57120000D02*
X65661500Y-57120000D01*
G75*
G02*
X65581500Y-57040000I0J80000D01*
G01*
X65581500Y-56880000D01*
G75*
G02*
X65661500Y-56800000I80000J0D01*
G01*
X66901500Y-56800000D01*
G75*
G02*
X66981500Y-56880000I0J-80000D01*
G01*
X66981500Y-57040000D01*
G75*
G02*
X66901500Y-57120000I-80000J0D01*
G01*
G37*
G36*
G01*
X66901500Y-56470000D02*
X65661500Y-56470000D01*
G75*
G02*
X65581500Y-56390000I0J80000D01*
G01*
X65581500Y-56230000D01*
G75*
G02*
X65661500Y-56150000I80000J0D01*
G01*
X66901500Y-56150000D01*
G75*
G02*
X66981500Y-56230000I0J-80000D01*
G01*
X66981500Y-56390000D01*
G75*
G02*
X66901500Y-56470000I-80000J0D01*
G01*
G37*
G36*
G01*
X66901500Y-55820000D02*
X65661500Y-55820000D01*
G75*
G02*
X65581500Y-55740000I0J80000D01*
G01*
X65581500Y-55580000D01*
G75*
G02*
X65661500Y-55500000I80000J0D01*
G01*
X66901500Y-55500000D01*
G75*
G02*
X66981500Y-55580000I0J-80000D01*
G01*
X66981500Y-55740000D01*
G75*
G02*
X66901500Y-55820000I-80000J0D01*
G01*
G37*
G36*
G01*
X66901500Y-55170000D02*
X65661500Y-55170000D01*
G75*
G02*
X65581500Y-55090000I0J80000D01*
G01*
X65581500Y-54930000D01*
G75*
G02*
X65661500Y-54850000I80000J0D01*
G01*
X66901500Y-54850000D01*
G75*
G02*
X66981500Y-54930000I0J-80000D01*
G01*
X66981500Y-55090000D01*
G75*
G02*
X66901500Y-55170000I-80000J0D01*
G01*
G37*
G36*
G01*
X66901500Y-54520000D02*
X65661500Y-54520000D01*
G75*
G02*
X65581500Y-54440000I0J80000D01*
G01*
X65581500Y-54280000D01*
G75*
G02*
X65661500Y-54200000I80000J0D01*
G01*
X66901500Y-54200000D01*
G75*
G02*
X66981500Y-54280000I0J-80000D01*
G01*
X66981500Y-54440000D01*
G75*
G02*
X66901500Y-54520000I-80000J0D01*
G01*
G37*
G36*
G01*
X66901500Y-53870000D02*
X65661500Y-53870000D01*
G75*
G02*
X65581500Y-53790000I0J80000D01*
G01*
X65581500Y-53630000D01*
G75*
G02*
X65661500Y-53550000I80000J0D01*
G01*
X66901500Y-53550000D01*
G75*
G02*
X66981500Y-53630000I0J-80000D01*
G01*
X66981500Y-53790000D01*
G75*
G02*
X66901500Y-53870000I-80000J0D01*
G01*
G37*
G36*
G01*
X66901500Y-53220000D02*
X65661500Y-53220000D01*
G75*
G02*
X65581500Y-53140000I0J80000D01*
G01*
X65581500Y-52980000D01*
G75*
G02*
X65661500Y-52900000I80000J0D01*
G01*
X66901500Y-52900000D01*
G75*
G02*
X66981500Y-52980000I0J-80000D01*
G01*
X66981500Y-53140000D01*
G75*
G02*
X66901500Y-53220000I-80000J0D01*
G01*
G37*
G36*
G01*
X66901500Y-52570000D02*
X65661500Y-52570000D01*
G75*
G02*
X65581500Y-52490000I0J80000D01*
G01*
X65581500Y-52330000D01*
G75*
G02*
X65661500Y-52250000I80000J0D01*
G01*
X66901500Y-52250000D01*
G75*
G02*
X66981500Y-52330000I0J-80000D01*
G01*
X66981500Y-52490000D01*
G75*
G02*
X66901500Y-52570000I-80000J0D01*
G01*
G37*
G36*
G01*
X66901500Y-51920000D02*
X65661500Y-51920000D01*
G75*
G02*
X65581500Y-51840000I0J80000D01*
G01*
X65581500Y-51680000D01*
G75*
G02*
X65661500Y-51600000I80000J0D01*
G01*
X66901500Y-51600000D01*
G75*
G02*
X66981500Y-51680000I0J-80000D01*
G01*
X66981500Y-51840000D01*
G75*
G02*
X66901500Y-51920000I-80000J0D01*
G01*
G37*
G36*
G01*
X66901500Y-51270000D02*
X65661500Y-51270000D01*
G75*
G02*
X65581500Y-51190000I0J80000D01*
G01*
X65581500Y-51030000D01*
G75*
G02*
X65661500Y-50950000I80000J0D01*
G01*
X66901500Y-50950000D01*
G75*
G02*
X66981500Y-51030000I0J-80000D01*
G01*
X66981500Y-51190000D01*
G75*
G02*
X66901500Y-51270000I-80000J0D01*
G01*
G37*
G36*
G01*
X66901500Y-50620000D02*
X65661500Y-50620000D01*
G75*
G02*
X65581500Y-50540000I0J80000D01*
G01*
X65581500Y-50380000D01*
G75*
G02*
X65661500Y-50300000I80000J0D01*
G01*
X66901500Y-50300000D01*
G75*
G02*
X66981500Y-50380000I0J-80000D01*
G01*
X66981500Y-50540000D01*
G75*
G02*
X66901500Y-50620000I-80000J0D01*
G01*
G37*
G36*
G01*
X66901500Y-49970000D02*
X65661500Y-49970000D01*
G75*
G02*
X65581500Y-49890000I0J80000D01*
G01*
X65581500Y-49730000D01*
G75*
G02*
X65661500Y-49650000I80000J0D01*
G01*
X66901500Y-49650000D01*
G75*
G02*
X66981500Y-49730000I0J-80000D01*
G01*
X66981500Y-49890000D01*
G75*
G02*
X66901500Y-49970000I-80000J0D01*
G01*
G37*
G36*
G01*
X66901500Y-49320000D02*
X65661500Y-49320000D01*
G75*
G02*
X65581500Y-49240000I0J80000D01*
G01*
X65581500Y-49080000D01*
G75*
G02*
X65661500Y-49000000I80000J0D01*
G01*
X66901500Y-49000000D01*
G75*
G02*
X66981500Y-49080000I0J-80000D01*
G01*
X66981500Y-49240000D01*
G75*
G02*
X66901500Y-49320000I-80000J0D01*
G01*
G37*
G36*
G01*
X66901500Y-48670000D02*
X65661500Y-48670000D01*
G75*
G02*
X65581500Y-48590000I0J80000D01*
G01*
X65581500Y-48430000D01*
G75*
G02*
X65661500Y-48350000I80000J0D01*
G01*
X66901500Y-48350000D01*
G75*
G02*
X66981500Y-48430000I0J-80000D01*
G01*
X66981500Y-48590000D01*
G75*
G02*
X66901500Y-48670000I-80000J0D01*
G01*
G37*
G36*
G01*
X66901500Y-48020000D02*
X65661500Y-48020000D01*
G75*
G02*
X65581500Y-47940000I0J80000D01*
G01*
X65581500Y-47780000D01*
G75*
G02*
X65661500Y-47700000I80000J0D01*
G01*
X66901500Y-47700000D01*
G75*
G02*
X66981500Y-47780000I0J-80000D01*
G01*
X66981500Y-47940000D01*
G75*
G02*
X66901500Y-48020000I-80000J0D01*
G01*
G37*
G36*
G01*
X66901500Y-47370000D02*
X65661500Y-47370000D01*
G75*
G02*
X65581500Y-47290000I0J80000D01*
G01*
X65581500Y-47130000D01*
G75*
G02*
X65661500Y-47050000I80000J0D01*
G01*
X66901500Y-47050000D01*
G75*
G02*
X66981500Y-47130000I0J-80000D01*
G01*
X66981500Y-47290000D01*
G75*
G02*
X66901500Y-47370000I-80000J0D01*
G01*
G37*
G36*
G01*
X66901500Y-46720000D02*
X65661500Y-46720000D01*
G75*
G02*
X65581500Y-46640000I0J80000D01*
G01*
X65581500Y-46480000D01*
G75*
G02*
X65661500Y-46400000I80000J0D01*
G01*
X66901500Y-46400000D01*
G75*
G02*
X66981500Y-46480000I0J-80000D01*
G01*
X66981500Y-46640000D01*
G75*
G02*
X66901500Y-46720000I-80000J0D01*
G01*
G37*
G36*
G01*
X66901500Y-46070000D02*
X65661500Y-46070000D01*
G75*
G02*
X65581500Y-45990000I0J80000D01*
G01*
X65581500Y-45830000D01*
G75*
G02*
X65661500Y-45750000I80000J0D01*
G01*
X66901500Y-45750000D01*
G75*
G02*
X66981500Y-45830000I0J-80000D01*
G01*
X66981500Y-45990000D01*
G75*
G02*
X66901500Y-46070000I-80000J0D01*
G01*
G37*
G36*
G01*
X66901500Y-45420000D02*
X65661500Y-45420000D01*
G75*
G02*
X65581500Y-45340000I0J80000D01*
G01*
X65581500Y-45180000D01*
G75*
G02*
X65661500Y-45100000I80000J0D01*
G01*
X66901500Y-45100000D01*
G75*
G02*
X66981500Y-45180000I0J-80000D01*
G01*
X66981500Y-45340000D01*
G75*
G02*
X66901500Y-45420000I-80000J0D01*
G01*
G37*
G36*
G01*
X68061500Y-44010000D02*
X67901500Y-44010000D01*
G75*
G02*
X67821500Y-43930000I0J80000D01*
G01*
X67821500Y-42690000D01*
G75*
G02*
X67901500Y-42610000I80000J0D01*
G01*
X68061500Y-42610000D01*
G75*
G02*
X68141500Y-42690000I0J-80000D01*
G01*
X68141500Y-43930000D01*
G75*
G02*
X68061500Y-44010000I-80000J0D01*
G01*
G37*
G36*
G01*
X68711500Y-44010000D02*
X68551500Y-44010000D01*
G75*
G02*
X68471500Y-43930000I0J80000D01*
G01*
X68471500Y-42690000D01*
G75*
G02*
X68551500Y-42610000I80000J0D01*
G01*
X68711500Y-42610000D01*
G75*
G02*
X68791500Y-42690000I0J-80000D01*
G01*
X68791500Y-43930000D01*
G75*
G02*
X68711500Y-44010000I-80000J0D01*
G01*
G37*
G36*
G01*
X69361500Y-44010000D02*
X69201500Y-44010000D01*
G75*
G02*
X69121500Y-43930000I0J80000D01*
G01*
X69121500Y-42690000D01*
G75*
G02*
X69201500Y-42610000I80000J0D01*
G01*
X69361500Y-42610000D01*
G75*
G02*
X69441500Y-42690000I0J-80000D01*
G01*
X69441500Y-43930000D01*
G75*
G02*
X69361500Y-44010000I-80000J0D01*
G01*
G37*
G36*
G01*
X70011500Y-44010000D02*
X69851500Y-44010000D01*
G75*
G02*
X69771500Y-43930000I0J80000D01*
G01*
X69771500Y-42690000D01*
G75*
G02*
X69851500Y-42610000I80000J0D01*
G01*
X70011500Y-42610000D01*
G75*
G02*
X70091500Y-42690000I0J-80000D01*
G01*
X70091500Y-43930000D01*
G75*
G02*
X70011500Y-44010000I-80000J0D01*
G01*
G37*
G36*
G01*
X70661500Y-44010000D02*
X70501500Y-44010000D01*
G75*
G02*
X70421500Y-43930000I0J80000D01*
G01*
X70421500Y-42690000D01*
G75*
G02*
X70501500Y-42610000I80000J0D01*
G01*
X70661500Y-42610000D01*
G75*
G02*
X70741500Y-42690000I0J-80000D01*
G01*
X70741500Y-43930000D01*
G75*
G02*
X70661500Y-44010000I-80000J0D01*
G01*
G37*
G36*
G01*
X71311500Y-44010000D02*
X71151500Y-44010000D01*
G75*
G02*
X71071500Y-43930000I0J80000D01*
G01*
X71071500Y-42690000D01*
G75*
G02*
X71151500Y-42610000I80000J0D01*
G01*
X71311500Y-42610000D01*
G75*
G02*
X71391500Y-42690000I0J-80000D01*
G01*
X71391500Y-43930000D01*
G75*
G02*
X71311500Y-44010000I-80000J0D01*
G01*
G37*
G36*
G01*
X71961500Y-44010000D02*
X71801500Y-44010000D01*
G75*
G02*
X71721500Y-43930000I0J80000D01*
G01*
X71721500Y-42690000D01*
G75*
G02*
X71801500Y-42610000I80000J0D01*
G01*
X71961500Y-42610000D01*
G75*
G02*
X72041500Y-42690000I0J-80000D01*
G01*
X72041500Y-43930000D01*
G75*
G02*
X71961500Y-44010000I-80000J0D01*
G01*
G37*
G36*
G01*
X72611500Y-44010000D02*
X72451500Y-44010000D01*
G75*
G02*
X72371500Y-43930000I0J80000D01*
G01*
X72371500Y-42690000D01*
G75*
G02*
X72451500Y-42610000I80000J0D01*
G01*
X72611500Y-42610000D01*
G75*
G02*
X72691500Y-42690000I0J-80000D01*
G01*
X72691500Y-43930000D01*
G75*
G02*
X72611500Y-44010000I-80000J0D01*
G01*
G37*
G36*
G01*
X73261500Y-44010000D02*
X73101500Y-44010000D01*
G75*
G02*
X73021500Y-43930000I0J80000D01*
G01*
X73021500Y-42690000D01*
G75*
G02*
X73101500Y-42610000I80000J0D01*
G01*
X73261500Y-42610000D01*
G75*
G02*
X73341500Y-42690000I0J-80000D01*
G01*
X73341500Y-43930000D01*
G75*
G02*
X73261500Y-44010000I-80000J0D01*
G01*
G37*
G36*
G01*
X73911500Y-44010000D02*
X73751500Y-44010000D01*
G75*
G02*
X73671500Y-43930000I0J80000D01*
G01*
X73671500Y-42690000D01*
G75*
G02*
X73751500Y-42610000I80000J0D01*
G01*
X73911500Y-42610000D01*
G75*
G02*
X73991500Y-42690000I0J-80000D01*
G01*
X73991500Y-43930000D01*
G75*
G02*
X73911500Y-44010000I-80000J0D01*
G01*
G37*
G36*
G01*
X74561500Y-44010000D02*
X74401500Y-44010000D01*
G75*
G02*
X74321500Y-43930000I0J80000D01*
G01*
X74321500Y-42690000D01*
G75*
G02*
X74401500Y-42610000I80000J0D01*
G01*
X74561500Y-42610000D01*
G75*
G02*
X74641500Y-42690000I0J-80000D01*
G01*
X74641500Y-43930000D01*
G75*
G02*
X74561500Y-44010000I-80000J0D01*
G01*
G37*
G36*
G01*
X75211500Y-44010000D02*
X75051500Y-44010000D01*
G75*
G02*
X74971500Y-43930000I0J80000D01*
G01*
X74971500Y-42690000D01*
G75*
G02*
X75051500Y-42610000I80000J0D01*
G01*
X75211500Y-42610000D01*
G75*
G02*
X75291500Y-42690000I0J-80000D01*
G01*
X75291500Y-43930000D01*
G75*
G02*
X75211500Y-44010000I-80000J0D01*
G01*
G37*
G36*
G01*
X75861500Y-44010000D02*
X75701500Y-44010000D01*
G75*
G02*
X75621500Y-43930000I0J80000D01*
G01*
X75621500Y-42690000D01*
G75*
G02*
X75701500Y-42610000I80000J0D01*
G01*
X75861500Y-42610000D01*
G75*
G02*
X75941500Y-42690000I0J-80000D01*
G01*
X75941500Y-43930000D01*
G75*
G02*
X75861500Y-44010000I-80000J0D01*
G01*
G37*
G36*
G01*
X76511500Y-44010000D02*
X76351500Y-44010000D01*
G75*
G02*
X76271500Y-43930000I0J80000D01*
G01*
X76271500Y-42690000D01*
G75*
G02*
X76351500Y-42610000I80000J0D01*
G01*
X76511500Y-42610000D01*
G75*
G02*
X76591500Y-42690000I0J-80000D01*
G01*
X76591500Y-43930000D01*
G75*
G02*
X76511500Y-44010000I-80000J0D01*
G01*
G37*
G36*
G01*
X77161500Y-44010000D02*
X77001500Y-44010000D01*
G75*
G02*
X76921500Y-43930000I0J80000D01*
G01*
X76921500Y-42690000D01*
G75*
G02*
X77001500Y-42610000I80000J0D01*
G01*
X77161500Y-42610000D01*
G75*
G02*
X77241500Y-42690000I0J-80000D01*
G01*
X77241500Y-43930000D01*
G75*
G02*
X77161500Y-44010000I-80000J0D01*
G01*
G37*
G36*
G01*
X77811500Y-44010000D02*
X77651500Y-44010000D01*
G75*
G02*
X77571500Y-43930000I0J80000D01*
G01*
X77571500Y-42690000D01*
G75*
G02*
X77651500Y-42610000I80000J0D01*
G01*
X77811500Y-42610000D01*
G75*
G02*
X77891500Y-42690000I0J-80000D01*
G01*
X77891500Y-43930000D01*
G75*
G02*
X77811500Y-44010000I-80000J0D01*
G01*
G37*
G36*
G01*
X78461500Y-44010000D02*
X78301500Y-44010000D01*
G75*
G02*
X78221500Y-43930000I0J80000D01*
G01*
X78221500Y-42690000D01*
G75*
G02*
X78301500Y-42610000I80000J0D01*
G01*
X78461500Y-42610000D01*
G75*
G02*
X78541500Y-42690000I0J-80000D01*
G01*
X78541500Y-43930000D01*
G75*
G02*
X78461500Y-44010000I-80000J0D01*
G01*
G37*
G36*
G01*
X79111500Y-44010000D02*
X78951500Y-44010000D01*
G75*
G02*
X78871500Y-43930000I0J80000D01*
G01*
X78871500Y-42690000D01*
G75*
G02*
X78951500Y-42610000I80000J0D01*
G01*
X79111500Y-42610000D01*
G75*
G02*
X79191500Y-42690000I0J-80000D01*
G01*
X79191500Y-43930000D01*
G75*
G02*
X79111500Y-44010000I-80000J0D01*
G01*
G37*
G36*
G01*
X79761500Y-44010000D02*
X79601500Y-44010000D01*
G75*
G02*
X79521500Y-43930000I0J80000D01*
G01*
X79521500Y-42690000D01*
G75*
G02*
X79601500Y-42610000I80000J0D01*
G01*
X79761500Y-42610000D01*
G75*
G02*
X79841500Y-42690000I0J-80000D01*
G01*
X79841500Y-43930000D01*
G75*
G02*
X79761500Y-44010000I-80000J0D01*
G01*
G37*
G36*
G01*
X80411500Y-44010000D02*
X80251500Y-44010000D01*
G75*
G02*
X80171500Y-43930000I0J80000D01*
G01*
X80171500Y-42690000D01*
G75*
G02*
X80251500Y-42610000I80000J0D01*
G01*
X80411500Y-42610000D01*
G75*
G02*
X80491500Y-42690000I0J-80000D01*
G01*
X80491500Y-43930000D01*
G75*
G02*
X80411500Y-44010000I-80000J0D01*
G01*
G37*
G36*
G01*
X81061500Y-44010000D02*
X80901500Y-44010000D01*
G75*
G02*
X80821500Y-43930000I0J80000D01*
G01*
X80821500Y-42690000D01*
G75*
G02*
X80901500Y-42610000I80000J0D01*
G01*
X81061500Y-42610000D01*
G75*
G02*
X81141500Y-42690000I0J-80000D01*
G01*
X81141500Y-43930000D01*
G75*
G02*
X81061500Y-44010000I-80000J0D01*
G01*
G37*
G36*
G01*
X81711500Y-44010000D02*
X81551500Y-44010000D01*
G75*
G02*
X81471500Y-43930000I0J80000D01*
G01*
X81471500Y-42690000D01*
G75*
G02*
X81551500Y-42610000I80000J0D01*
G01*
X81711500Y-42610000D01*
G75*
G02*
X81791500Y-42690000I0J-80000D01*
G01*
X81791500Y-43930000D01*
G75*
G02*
X81711500Y-44010000I-80000J0D01*
G01*
G37*
G36*
G01*
X82361500Y-44010000D02*
X82201500Y-44010000D01*
G75*
G02*
X82121500Y-43930000I0J80000D01*
G01*
X82121500Y-42690000D01*
G75*
G02*
X82201500Y-42610000I80000J0D01*
G01*
X82361500Y-42610000D01*
G75*
G02*
X82441500Y-42690000I0J-80000D01*
G01*
X82441500Y-43930000D01*
G75*
G02*
X82361500Y-44010000I-80000J0D01*
G01*
G37*
G36*
G01*
X83011500Y-44010000D02*
X82851500Y-44010000D01*
G75*
G02*
X82771500Y-43930000I0J80000D01*
G01*
X82771500Y-42690000D01*
G75*
G02*
X82851500Y-42610000I80000J0D01*
G01*
X83011500Y-42610000D01*
G75*
G02*
X83091500Y-42690000I0J-80000D01*
G01*
X83091500Y-43930000D01*
G75*
G02*
X83011500Y-44010000I-80000J0D01*
G01*
G37*
G36*
G01*
X83661500Y-44010000D02*
X83501500Y-44010000D01*
G75*
G02*
X83421500Y-43930000I0J80000D01*
G01*
X83421500Y-42690000D01*
G75*
G02*
X83501500Y-42610000I80000J0D01*
G01*
X83661500Y-42610000D01*
G75*
G02*
X83741500Y-42690000I0J-80000D01*
G01*
X83741500Y-43930000D01*
G75*
G02*
X83661500Y-44010000I-80000J0D01*
G01*
G37*
G36*
G01*
X84311500Y-44010000D02*
X84151500Y-44010000D01*
G75*
G02*
X84071500Y-43930000I0J80000D01*
G01*
X84071500Y-42690000D01*
G75*
G02*
X84151500Y-42610000I80000J0D01*
G01*
X84311500Y-42610000D01*
G75*
G02*
X84391500Y-42690000I0J-80000D01*
G01*
X84391500Y-43930000D01*
G75*
G02*
X84311500Y-44010000I-80000J0D01*
G01*
G37*
G36*
G01*
X84961500Y-44010000D02*
X84801500Y-44010000D01*
G75*
G02*
X84721500Y-43930000I0J80000D01*
G01*
X84721500Y-42690000D01*
G75*
G02*
X84801500Y-42610000I80000J0D01*
G01*
X84961500Y-42610000D01*
G75*
G02*
X85041500Y-42690000I0J-80000D01*
G01*
X85041500Y-43930000D01*
G75*
G02*
X84961500Y-44010000I-80000J0D01*
G01*
G37*
G36*
G01*
X85611500Y-44010000D02*
X85451500Y-44010000D01*
G75*
G02*
X85371500Y-43930000I0J80000D01*
G01*
X85371500Y-42690000D01*
G75*
G02*
X85451500Y-42610000I80000J0D01*
G01*
X85611500Y-42610000D01*
G75*
G02*
X85691500Y-42690000I0J-80000D01*
G01*
X85691500Y-43930000D01*
G75*
G02*
X85611500Y-44010000I-80000J0D01*
G01*
G37*
G36*
G01*
X86261500Y-44010000D02*
X86101500Y-44010000D01*
G75*
G02*
X86021500Y-43930000I0J80000D01*
G01*
X86021500Y-42690000D01*
G75*
G02*
X86101500Y-42610000I80000J0D01*
G01*
X86261500Y-42610000D01*
G75*
G02*
X86341500Y-42690000I0J-80000D01*
G01*
X86341500Y-43930000D01*
G75*
G02*
X86261500Y-44010000I-80000J0D01*
G01*
G37*
G36*
G01*
X86911500Y-44010000D02*
X86751500Y-44010000D01*
G75*
G02*
X86671500Y-43930000I0J80000D01*
G01*
X86671500Y-42690000D01*
G75*
G02*
X86751500Y-42610000I80000J0D01*
G01*
X86911500Y-42610000D01*
G75*
G02*
X86991500Y-42690000I0J-80000D01*
G01*
X86991500Y-43930000D01*
G75*
G02*
X86911500Y-44010000I-80000J0D01*
G01*
G37*
G36*
G01*
X89151500Y-45420000D02*
X87911500Y-45420000D01*
G75*
G02*
X87831500Y-45340000I0J80000D01*
G01*
X87831500Y-45180000D01*
G75*
G02*
X87911500Y-45100000I80000J0D01*
G01*
X89151500Y-45100000D01*
G75*
G02*
X89231500Y-45180000I0J-80000D01*
G01*
X89231500Y-45340000D01*
G75*
G02*
X89151500Y-45420000I-80000J0D01*
G01*
G37*
G36*
G01*
X89151500Y-46070000D02*
X87911500Y-46070000D01*
G75*
G02*
X87831500Y-45990000I0J80000D01*
G01*
X87831500Y-45830000D01*
G75*
G02*
X87911500Y-45750000I80000J0D01*
G01*
X89151500Y-45750000D01*
G75*
G02*
X89231500Y-45830000I0J-80000D01*
G01*
X89231500Y-45990000D01*
G75*
G02*
X89151500Y-46070000I-80000J0D01*
G01*
G37*
G36*
G01*
X89151500Y-46720000D02*
X87911500Y-46720000D01*
G75*
G02*
X87831500Y-46640000I0J80000D01*
G01*
X87831500Y-46480000D01*
G75*
G02*
X87911500Y-46400000I80000J0D01*
G01*
X89151500Y-46400000D01*
G75*
G02*
X89231500Y-46480000I0J-80000D01*
G01*
X89231500Y-46640000D01*
G75*
G02*
X89151500Y-46720000I-80000J0D01*
G01*
G37*
G36*
G01*
X89151500Y-47370000D02*
X87911500Y-47370000D01*
G75*
G02*
X87831500Y-47290000I0J80000D01*
G01*
X87831500Y-47130000D01*
G75*
G02*
X87911500Y-47050000I80000J0D01*
G01*
X89151500Y-47050000D01*
G75*
G02*
X89231500Y-47130000I0J-80000D01*
G01*
X89231500Y-47290000D01*
G75*
G02*
X89151500Y-47370000I-80000J0D01*
G01*
G37*
G36*
G01*
X89151500Y-48020000D02*
X87911500Y-48020000D01*
G75*
G02*
X87831500Y-47940000I0J80000D01*
G01*
X87831500Y-47780000D01*
G75*
G02*
X87911500Y-47700000I80000J0D01*
G01*
X89151500Y-47700000D01*
G75*
G02*
X89231500Y-47780000I0J-80000D01*
G01*
X89231500Y-47940000D01*
G75*
G02*
X89151500Y-48020000I-80000J0D01*
G01*
G37*
G36*
G01*
X89151500Y-48670000D02*
X87911500Y-48670000D01*
G75*
G02*
X87831500Y-48590000I0J80000D01*
G01*
X87831500Y-48430000D01*
G75*
G02*
X87911500Y-48350000I80000J0D01*
G01*
X89151500Y-48350000D01*
G75*
G02*
X89231500Y-48430000I0J-80000D01*
G01*
X89231500Y-48590000D01*
G75*
G02*
X89151500Y-48670000I-80000J0D01*
G01*
G37*
G36*
G01*
X89151500Y-49320000D02*
X87911500Y-49320000D01*
G75*
G02*
X87831500Y-49240000I0J80000D01*
G01*
X87831500Y-49080000D01*
G75*
G02*
X87911500Y-49000000I80000J0D01*
G01*
X89151500Y-49000000D01*
G75*
G02*
X89231500Y-49080000I0J-80000D01*
G01*
X89231500Y-49240000D01*
G75*
G02*
X89151500Y-49320000I-80000J0D01*
G01*
G37*
G36*
G01*
X89151500Y-49970000D02*
X87911500Y-49970000D01*
G75*
G02*
X87831500Y-49890000I0J80000D01*
G01*
X87831500Y-49730000D01*
G75*
G02*
X87911500Y-49650000I80000J0D01*
G01*
X89151500Y-49650000D01*
G75*
G02*
X89231500Y-49730000I0J-80000D01*
G01*
X89231500Y-49890000D01*
G75*
G02*
X89151500Y-49970000I-80000J0D01*
G01*
G37*
G36*
G01*
X89151500Y-50620000D02*
X87911500Y-50620000D01*
G75*
G02*
X87831500Y-50540000I0J80000D01*
G01*
X87831500Y-50380000D01*
G75*
G02*
X87911500Y-50300000I80000J0D01*
G01*
X89151500Y-50300000D01*
G75*
G02*
X89231500Y-50380000I0J-80000D01*
G01*
X89231500Y-50540000D01*
G75*
G02*
X89151500Y-50620000I-80000J0D01*
G01*
G37*
G36*
G01*
X89151500Y-51270000D02*
X87911500Y-51270000D01*
G75*
G02*
X87831500Y-51190000I0J80000D01*
G01*
X87831500Y-51030000D01*
G75*
G02*
X87911500Y-50950000I80000J0D01*
G01*
X89151500Y-50950000D01*
G75*
G02*
X89231500Y-51030000I0J-80000D01*
G01*
X89231500Y-51190000D01*
G75*
G02*
X89151500Y-51270000I-80000J0D01*
G01*
G37*
G36*
G01*
X89151500Y-51920000D02*
X87911500Y-51920000D01*
G75*
G02*
X87831500Y-51840000I0J80000D01*
G01*
X87831500Y-51680000D01*
G75*
G02*
X87911500Y-51600000I80000J0D01*
G01*
X89151500Y-51600000D01*
G75*
G02*
X89231500Y-51680000I0J-80000D01*
G01*
X89231500Y-51840000D01*
G75*
G02*
X89151500Y-51920000I-80000J0D01*
G01*
G37*
G36*
G01*
X89151500Y-52570000D02*
X87911500Y-52570000D01*
G75*
G02*
X87831500Y-52490000I0J80000D01*
G01*
X87831500Y-52330000D01*
G75*
G02*
X87911500Y-52250000I80000J0D01*
G01*
X89151500Y-52250000D01*
G75*
G02*
X89231500Y-52330000I0J-80000D01*
G01*
X89231500Y-52490000D01*
G75*
G02*
X89151500Y-52570000I-80000J0D01*
G01*
G37*
G36*
G01*
X89151500Y-53220000D02*
X87911500Y-53220000D01*
G75*
G02*
X87831500Y-53140000I0J80000D01*
G01*
X87831500Y-52980000D01*
G75*
G02*
X87911500Y-52900000I80000J0D01*
G01*
X89151500Y-52900000D01*
G75*
G02*
X89231500Y-52980000I0J-80000D01*
G01*
X89231500Y-53140000D01*
G75*
G02*
X89151500Y-53220000I-80000J0D01*
G01*
G37*
G36*
G01*
X89151500Y-53870000D02*
X87911500Y-53870000D01*
G75*
G02*
X87831500Y-53790000I0J80000D01*
G01*
X87831500Y-53630000D01*
G75*
G02*
X87911500Y-53550000I80000J0D01*
G01*
X89151500Y-53550000D01*
G75*
G02*
X89231500Y-53630000I0J-80000D01*
G01*
X89231500Y-53790000D01*
G75*
G02*
X89151500Y-53870000I-80000J0D01*
G01*
G37*
G36*
G01*
X89151500Y-54520000D02*
X87911500Y-54520000D01*
G75*
G02*
X87831500Y-54440000I0J80000D01*
G01*
X87831500Y-54280000D01*
G75*
G02*
X87911500Y-54200000I80000J0D01*
G01*
X89151500Y-54200000D01*
G75*
G02*
X89231500Y-54280000I0J-80000D01*
G01*
X89231500Y-54440000D01*
G75*
G02*
X89151500Y-54520000I-80000J0D01*
G01*
G37*
G36*
G01*
X89151500Y-55170000D02*
X87911500Y-55170000D01*
G75*
G02*
X87831500Y-55090000I0J80000D01*
G01*
X87831500Y-54930000D01*
G75*
G02*
X87911500Y-54850000I80000J0D01*
G01*
X89151500Y-54850000D01*
G75*
G02*
X89231500Y-54930000I0J-80000D01*
G01*
X89231500Y-55090000D01*
G75*
G02*
X89151500Y-55170000I-80000J0D01*
G01*
G37*
G36*
G01*
X89151500Y-55820000D02*
X87911500Y-55820000D01*
G75*
G02*
X87831500Y-55740000I0J80000D01*
G01*
X87831500Y-55580000D01*
G75*
G02*
X87911500Y-55500000I80000J0D01*
G01*
X89151500Y-55500000D01*
G75*
G02*
X89231500Y-55580000I0J-80000D01*
G01*
X89231500Y-55740000D01*
G75*
G02*
X89151500Y-55820000I-80000J0D01*
G01*
G37*
G36*
G01*
X89151500Y-56470000D02*
X87911500Y-56470000D01*
G75*
G02*
X87831500Y-56390000I0J80000D01*
G01*
X87831500Y-56230000D01*
G75*
G02*
X87911500Y-56150000I80000J0D01*
G01*
X89151500Y-56150000D01*
G75*
G02*
X89231500Y-56230000I0J-80000D01*
G01*
X89231500Y-56390000D01*
G75*
G02*
X89151500Y-56470000I-80000J0D01*
G01*
G37*
G36*
G01*
X89151500Y-57120000D02*
X87911500Y-57120000D01*
G75*
G02*
X87831500Y-57040000I0J80000D01*
G01*
X87831500Y-56880000D01*
G75*
G02*
X87911500Y-56800000I80000J0D01*
G01*
X89151500Y-56800000D01*
G75*
G02*
X89231500Y-56880000I0J-80000D01*
G01*
X89231500Y-57040000D01*
G75*
G02*
X89151500Y-57120000I-80000J0D01*
G01*
G37*
G36*
G01*
X89151500Y-57770000D02*
X87911500Y-57770000D01*
G75*
G02*
X87831500Y-57690000I0J80000D01*
G01*
X87831500Y-57530000D01*
G75*
G02*
X87911500Y-57450000I80000J0D01*
G01*
X89151500Y-57450000D01*
G75*
G02*
X89231500Y-57530000I0J-80000D01*
G01*
X89231500Y-57690000D01*
G75*
G02*
X89151500Y-57770000I-80000J0D01*
G01*
G37*
G36*
G01*
X86911500Y-60260000D02*
X86751500Y-60260000D01*
G75*
G02*
X86671500Y-60180000I0J80000D01*
G01*
X86671500Y-58940000D01*
G75*
G02*
X86751500Y-58860000I80000J0D01*
G01*
X86911500Y-58860000D01*
G75*
G02*
X86991500Y-58940000I0J-80000D01*
G01*
X86991500Y-60180000D01*
G75*
G02*
X86911500Y-60260000I-80000J0D01*
G01*
G37*
G36*
G01*
X86261500Y-60260000D02*
X86101500Y-60260000D01*
G75*
G02*
X86021500Y-60180000I0J80000D01*
G01*
X86021500Y-58940000D01*
G75*
G02*
X86101500Y-58860000I80000J0D01*
G01*
X86261500Y-58860000D01*
G75*
G02*
X86341500Y-58940000I0J-80000D01*
G01*
X86341500Y-60180000D01*
G75*
G02*
X86261500Y-60260000I-80000J0D01*
G01*
G37*
G36*
G01*
X85611500Y-60260000D02*
X85451500Y-60260000D01*
G75*
G02*
X85371500Y-60180000I0J80000D01*
G01*
X85371500Y-58940000D01*
G75*
G02*
X85451500Y-58860000I80000J0D01*
G01*
X85611500Y-58860000D01*
G75*
G02*
X85691500Y-58940000I0J-80000D01*
G01*
X85691500Y-60180000D01*
G75*
G02*
X85611500Y-60260000I-80000J0D01*
G01*
G37*
G36*
G01*
X84961500Y-60260000D02*
X84801500Y-60260000D01*
G75*
G02*
X84721500Y-60180000I0J80000D01*
G01*
X84721500Y-58940000D01*
G75*
G02*
X84801500Y-58860000I80000J0D01*
G01*
X84961500Y-58860000D01*
G75*
G02*
X85041500Y-58940000I0J-80000D01*
G01*
X85041500Y-60180000D01*
G75*
G02*
X84961500Y-60260000I-80000J0D01*
G01*
G37*
G36*
G01*
X84311500Y-60260000D02*
X84151500Y-60260000D01*
G75*
G02*
X84071500Y-60180000I0J80000D01*
G01*
X84071500Y-58940000D01*
G75*
G02*
X84151500Y-58860000I80000J0D01*
G01*
X84311500Y-58860000D01*
G75*
G02*
X84391500Y-58940000I0J-80000D01*
G01*
X84391500Y-60180000D01*
G75*
G02*
X84311500Y-60260000I-80000J0D01*
G01*
G37*
G36*
G01*
X83661500Y-60260000D02*
X83501500Y-60260000D01*
G75*
G02*
X83421500Y-60180000I0J80000D01*
G01*
X83421500Y-58940000D01*
G75*
G02*
X83501500Y-58860000I80000J0D01*
G01*
X83661500Y-58860000D01*
G75*
G02*
X83741500Y-58940000I0J-80000D01*
G01*
X83741500Y-60180000D01*
G75*
G02*
X83661500Y-60260000I-80000J0D01*
G01*
G37*
G36*
G01*
X83011500Y-60260000D02*
X82851500Y-60260000D01*
G75*
G02*
X82771500Y-60180000I0J80000D01*
G01*
X82771500Y-58940000D01*
G75*
G02*
X82851500Y-58860000I80000J0D01*
G01*
X83011500Y-58860000D01*
G75*
G02*
X83091500Y-58940000I0J-80000D01*
G01*
X83091500Y-60180000D01*
G75*
G02*
X83011500Y-60260000I-80000J0D01*
G01*
G37*
G36*
G01*
X82361500Y-60260000D02*
X82201500Y-60260000D01*
G75*
G02*
X82121500Y-60180000I0J80000D01*
G01*
X82121500Y-58940000D01*
G75*
G02*
X82201500Y-58860000I80000J0D01*
G01*
X82361500Y-58860000D01*
G75*
G02*
X82441500Y-58940000I0J-80000D01*
G01*
X82441500Y-60180000D01*
G75*
G02*
X82361500Y-60260000I-80000J0D01*
G01*
G37*
G36*
G01*
X81711500Y-60260000D02*
X81551500Y-60260000D01*
G75*
G02*
X81471500Y-60180000I0J80000D01*
G01*
X81471500Y-58940000D01*
G75*
G02*
X81551500Y-58860000I80000J0D01*
G01*
X81711500Y-58860000D01*
G75*
G02*
X81791500Y-58940000I0J-80000D01*
G01*
X81791500Y-60180000D01*
G75*
G02*
X81711500Y-60260000I-80000J0D01*
G01*
G37*
G36*
G01*
X81061500Y-60260000D02*
X80901500Y-60260000D01*
G75*
G02*
X80821500Y-60180000I0J80000D01*
G01*
X80821500Y-58940000D01*
G75*
G02*
X80901500Y-58860000I80000J0D01*
G01*
X81061500Y-58860000D01*
G75*
G02*
X81141500Y-58940000I0J-80000D01*
G01*
X81141500Y-60180000D01*
G75*
G02*
X81061500Y-60260000I-80000J0D01*
G01*
G37*
G36*
G01*
X80411500Y-60260000D02*
X80251500Y-60260000D01*
G75*
G02*
X80171500Y-60180000I0J80000D01*
G01*
X80171500Y-58940000D01*
G75*
G02*
X80251500Y-58860000I80000J0D01*
G01*
X80411500Y-58860000D01*
G75*
G02*
X80491500Y-58940000I0J-80000D01*
G01*
X80491500Y-60180000D01*
G75*
G02*
X80411500Y-60260000I-80000J0D01*
G01*
G37*
G36*
G01*
X79761500Y-60260000D02*
X79601500Y-60260000D01*
G75*
G02*
X79521500Y-60180000I0J80000D01*
G01*
X79521500Y-58940000D01*
G75*
G02*
X79601500Y-58860000I80000J0D01*
G01*
X79761500Y-58860000D01*
G75*
G02*
X79841500Y-58940000I0J-80000D01*
G01*
X79841500Y-60180000D01*
G75*
G02*
X79761500Y-60260000I-80000J0D01*
G01*
G37*
G36*
G01*
X79111500Y-60260000D02*
X78951500Y-60260000D01*
G75*
G02*
X78871500Y-60180000I0J80000D01*
G01*
X78871500Y-58940000D01*
G75*
G02*
X78951500Y-58860000I80000J0D01*
G01*
X79111500Y-58860000D01*
G75*
G02*
X79191500Y-58940000I0J-80000D01*
G01*
X79191500Y-60180000D01*
G75*
G02*
X79111500Y-60260000I-80000J0D01*
G01*
G37*
G36*
G01*
X78461500Y-60260000D02*
X78301500Y-60260000D01*
G75*
G02*
X78221500Y-60180000I0J80000D01*
G01*
X78221500Y-58940000D01*
G75*
G02*
X78301500Y-58860000I80000J0D01*
G01*
X78461500Y-58860000D01*
G75*
G02*
X78541500Y-58940000I0J-80000D01*
G01*
X78541500Y-60180000D01*
G75*
G02*
X78461500Y-60260000I-80000J0D01*
G01*
G37*
G36*
G01*
X77811500Y-60260000D02*
X77651500Y-60260000D01*
G75*
G02*
X77571500Y-60180000I0J80000D01*
G01*
X77571500Y-58940000D01*
G75*
G02*
X77651500Y-58860000I80000J0D01*
G01*
X77811500Y-58860000D01*
G75*
G02*
X77891500Y-58940000I0J-80000D01*
G01*
X77891500Y-60180000D01*
G75*
G02*
X77811500Y-60260000I-80000J0D01*
G01*
G37*
G36*
G01*
X77161500Y-60260000D02*
X77001500Y-60260000D01*
G75*
G02*
X76921500Y-60180000I0J80000D01*
G01*
X76921500Y-58940000D01*
G75*
G02*
X77001500Y-58860000I80000J0D01*
G01*
X77161500Y-58860000D01*
G75*
G02*
X77241500Y-58940000I0J-80000D01*
G01*
X77241500Y-60180000D01*
G75*
G02*
X77161500Y-60260000I-80000J0D01*
G01*
G37*
G36*
G01*
X76511500Y-60260000D02*
X76351500Y-60260000D01*
G75*
G02*
X76271500Y-60180000I0J80000D01*
G01*
X76271500Y-58940000D01*
G75*
G02*
X76351500Y-58860000I80000J0D01*
G01*
X76511500Y-58860000D01*
G75*
G02*
X76591500Y-58940000I0J-80000D01*
G01*
X76591500Y-60180000D01*
G75*
G02*
X76511500Y-60260000I-80000J0D01*
G01*
G37*
G36*
G01*
X75861500Y-60260000D02*
X75701500Y-60260000D01*
G75*
G02*
X75621500Y-60180000I0J80000D01*
G01*
X75621500Y-58940000D01*
G75*
G02*
X75701500Y-58860000I80000J0D01*
G01*
X75861500Y-58860000D01*
G75*
G02*
X75941500Y-58940000I0J-80000D01*
G01*
X75941500Y-60180000D01*
G75*
G02*
X75861500Y-60260000I-80000J0D01*
G01*
G37*
G36*
G01*
X75211500Y-60260000D02*
X75051500Y-60260000D01*
G75*
G02*
X74971500Y-60180000I0J80000D01*
G01*
X74971500Y-58940000D01*
G75*
G02*
X75051500Y-58860000I80000J0D01*
G01*
X75211500Y-58860000D01*
G75*
G02*
X75291500Y-58940000I0J-80000D01*
G01*
X75291500Y-60180000D01*
G75*
G02*
X75211500Y-60260000I-80000J0D01*
G01*
G37*
G36*
G01*
X74561500Y-60260000D02*
X74401500Y-60260000D01*
G75*
G02*
X74321500Y-60180000I0J80000D01*
G01*
X74321500Y-58940000D01*
G75*
G02*
X74401500Y-58860000I80000J0D01*
G01*
X74561500Y-58860000D01*
G75*
G02*
X74641500Y-58940000I0J-80000D01*
G01*
X74641500Y-60180000D01*
G75*
G02*
X74561500Y-60260000I-80000J0D01*
G01*
G37*
G36*
G01*
X73911500Y-60260000D02*
X73751500Y-60260000D01*
G75*
G02*
X73671500Y-60180000I0J80000D01*
G01*
X73671500Y-58940000D01*
G75*
G02*
X73751500Y-58860000I80000J0D01*
G01*
X73911500Y-58860000D01*
G75*
G02*
X73991500Y-58940000I0J-80000D01*
G01*
X73991500Y-60180000D01*
G75*
G02*
X73911500Y-60260000I-80000J0D01*
G01*
G37*
G36*
G01*
X73261500Y-60260000D02*
X73101500Y-60260000D01*
G75*
G02*
X73021500Y-60180000I0J80000D01*
G01*
X73021500Y-58940000D01*
G75*
G02*
X73101500Y-58860000I80000J0D01*
G01*
X73261500Y-58860000D01*
G75*
G02*
X73341500Y-58940000I0J-80000D01*
G01*
X73341500Y-60180000D01*
G75*
G02*
X73261500Y-60260000I-80000J0D01*
G01*
G37*
G36*
G01*
X72611500Y-60260000D02*
X72451500Y-60260000D01*
G75*
G02*
X72371500Y-60180000I0J80000D01*
G01*
X72371500Y-58940000D01*
G75*
G02*
X72451500Y-58860000I80000J0D01*
G01*
X72611500Y-58860000D01*
G75*
G02*
X72691500Y-58940000I0J-80000D01*
G01*
X72691500Y-60180000D01*
G75*
G02*
X72611500Y-60260000I-80000J0D01*
G01*
G37*
G36*
G01*
X71961500Y-60260000D02*
X71801500Y-60260000D01*
G75*
G02*
X71721500Y-60180000I0J80000D01*
G01*
X71721500Y-58940000D01*
G75*
G02*
X71801500Y-58860000I80000J0D01*
G01*
X71961500Y-58860000D01*
G75*
G02*
X72041500Y-58940000I0J-80000D01*
G01*
X72041500Y-60180000D01*
G75*
G02*
X71961500Y-60260000I-80000J0D01*
G01*
G37*
G36*
G01*
X71311500Y-60260000D02*
X71151500Y-60260000D01*
G75*
G02*
X71071500Y-60180000I0J80000D01*
G01*
X71071500Y-58940000D01*
G75*
G02*
X71151500Y-58860000I80000J0D01*
G01*
X71311500Y-58860000D01*
G75*
G02*
X71391500Y-58940000I0J-80000D01*
G01*
X71391500Y-60180000D01*
G75*
G02*
X71311500Y-60260000I-80000J0D01*
G01*
G37*
G36*
G01*
X70661500Y-60260000D02*
X70501500Y-60260000D01*
G75*
G02*
X70421500Y-60180000I0J80000D01*
G01*
X70421500Y-58940000D01*
G75*
G02*
X70501500Y-58860000I80000J0D01*
G01*
X70661500Y-58860000D01*
G75*
G02*
X70741500Y-58940000I0J-80000D01*
G01*
X70741500Y-60180000D01*
G75*
G02*
X70661500Y-60260000I-80000J0D01*
G01*
G37*
G36*
G01*
X70011500Y-60260000D02*
X69851500Y-60260000D01*
G75*
G02*
X69771500Y-60180000I0J80000D01*
G01*
X69771500Y-58940000D01*
G75*
G02*
X69851500Y-58860000I80000J0D01*
G01*
X70011500Y-58860000D01*
G75*
G02*
X70091500Y-58940000I0J-80000D01*
G01*
X70091500Y-60180000D01*
G75*
G02*
X70011500Y-60260000I-80000J0D01*
G01*
G37*
G36*
G01*
X69361500Y-60260000D02*
X69201500Y-60260000D01*
G75*
G02*
X69121500Y-60180000I0J80000D01*
G01*
X69121500Y-58940000D01*
G75*
G02*
X69201500Y-58860000I80000J0D01*
G01*
X69361500Y-58860000D01*
G75*
G02*
X69441500Y-58940000I0J-80000D01*
G01*
X69441500Y-60180000D01*
G75*
G02*
X69361500Y-60260000I-80000J0D01*
G01*
G37*
G36*
G01*
X68711500Y-60260000D02*
X68551500Y-60260000D01*
G75*
G02*
X68471500Y-60180000I0J80000D01*
G01*
X68471500Y-58940000D01*
G75*
G02*
X68551500Y-58860000I80000J0D01*
G01*
X68711500Y-58860000D01*
G75*
G02*
X68791500Y-58940000I0J-80000D01*
G01*
X68791500Y-60180000D01*
G75*
G02*
X68711500Y-60260000I-80000J0D01*
G01*
G37*
G36*
G01*
X68061500Y-60260000D02*
X67901500Y-60260000D01*
G75*
G02*
X67821500Y-60180000I0J80000D01*
G01*
X67821500Y-58940000D01*
G75*
G02*
X67901500Y-58860000I80000J0D01*
G01*
X68061500Y-58860000D01*
G75*
G02*
X68141500Y-58940000I0J-80000D01*
G01*
X68141500Y-60180000D01*
G75*
G02*
X68061500Y-60260000I-80000J0D01*
G01*
G37*
%TD*%
%TO.C,R7*%
G36*
G01*
X69839000Y-62225000D02*
X70115000Y-62225000D01*
G75*
G02*
X70233000Y-62343000I0J-118000D01*
G01*
X70233000Y-62579000D01*
G75*
G02*
X70115000Y-62697000I-118000J0D01*
G01*
X69839000Y-62697000D01*
G75*
G02*
X69721000Y-62579000I0J118000D01*
G01*
X69721000Y-62343000D01*
G75*
G02*
X69839000Y-62225000I118000J0D01*
G01*
G37*
G36*
G01*
X69839000Y-61255000D02*
X70115000Y-61255000D01*
G75*
G02*
X70233000Y-61373000I0J-118000D01*
G01*
X70233000Y-61609000D01*
G75*
G02*
X70115000Y-61727000I-118000J0D01*
G01*
X69839000Y-61727000D01*
G75*
G02*
X69721000Y-61609000I0J118000D01*
G01*
X69721000Y-61373000D01*
G75*
G02*
X69839000Y-61255000I118000J0D01*
G01*
G37*
%TD*%
%TO.C,C11*%
G36*
G01*
X45899500Y-54478000D02*
X46175500Y-54478000D01*
G75*
G02*
X46293500Y-54596000I0J-118000D01*
G01*
X46293500Y-54832000D01*
G75*
G02*
X46175500Y-54950000I-118000J0D01*
G01*
X45899500Y-54950000D01*
G75*
G02*
X45781500Y-54832000I0J118000D01*
G01*
X45781500Y-54596000D01*
G75*
G02*
X45899500Y-54478000I118000J0D01*
G01*
G37*
G36*
G01*
X45899500Y-53508000D02*
X46175500Y-53508000D01*
G75*
G02*
X46293500Y-53626000I0J-118000D01*
G01*
X46293500Y-53862000D01*
G75*
G02*
X46175500Y-53980000I-118000J0D01*
G01*
X45899500Y-53980000D01*
G75*
G02*
X45781500Y-53862000I0J118000D01*
G01*
X45781500Y-53626000D01*
G75*
G02*
X45899500Y-53508000I118000J0D01*
G01*
G37*
%TD*%
D11*
%TO.C,Y1*%
X93369500Y-39667000D03*
X93369500Y-41867000D03*
X91669500Y-41867000D03*
X91669500Y-39667000D03*
%TD*%
%TO.C,R6*%
G36*
G01*
X123185000Y-39254000D02*
X123185000Y-38978000D01*
G75*
G02*
X123303000Y-38860000I118000J0D01*
G01*
X123539000Y-38860000D01*
G75*
G02*
X123657000Y-38978000I0J-118000D01*
G01*
X123657000Y-39254000D01*
G75*
G02*
X123539000Y-39372000I-118000J0D01*
G01*
X123303000Y-39372000D01*
G75*
G02*
X123185000Y-39254000I0J118000D01*
G01*
G37*
G36*
G01*
X122215000Y-39254000D02*
X122215000Y-38978000D01*
G75*
G02*
X122333000Y-38860000I118000J0D01*
G01*
X122569000Y-38860000D01*
G75*
G02*
X122687000Y-38978000I0J-118000D01*
G01*
X122687000Y-39254000D01*
G75*
G02*
X122569000Y-39372000I-118000J0D01*
G01*
X122333000Y-39372000D01*
G75*
G02*
X122215000Y-39254000I0J118000D01*
G01*
G37*
%TD*%
%TO.C,R5*%
G36*
G01*
X123185000Y-47890000D02*
X123185000Y-47614000D01*
G75*
G02*
X123303000Y-47496000I118000J0D01*
G01*
X123539000Y-47496000D01*
G75*
G02*
X123657000Y-47614000I0J-118000D01*
G01*
X123657000Y-47890000D01*
G75*
G02*
X123539000Y-48008000I-118000J0D01*
G01*
X123303000Y-48008000D01*
G75*
G02*
X123185000Y-47890000I0J118000D01*
G01*
G37*
G36*
G01*
X122215000Y-47890000D02*
X122215000Y-47614000D01*
G75*
G02*
X122333000Y-47496000I118000J0D01*
G01*
X122569000Y-47496000D01*
G75*
G02*
X122687000Y-47614000I0J-118000D01*
G01*
X122687000Y-47890000D01*
G75*
G02*
X122569000Y-48008000I-118000J0D01*
G01*
X122333000Y-48008000D01*
G75*
G02*
X122215000Y-47890000I0J118000D01*
G01*
G37*
%TD*%
%TO.C,R4*%
G36*
G01*
X105780000Y-36571000D02*
X106056000Y-36571000D01*
G75*
G02*
X106174000Y-36689000I0J-118000D01*
G01*
X106174000Y-36925000D01*
G75*
G02*
X106056000Y-37043000I-118000J0D01*
G01*
X105780000Y-37043000D01*
G75*
G02*
X105662000Y-36925000I0J118000D01*
G01*
X105662000Y-36689000D01*
G75*
G02*
X105780000Y-36571000I118000J0D01*
G01*
G37*
G36*
G01*
X105780000Y-35601000D02*
X106056000Y-35601000D01*
G75*
G02*
X106174000Y-35719000I0J-118000D01*
G01*
X106174000Y-35955000D01*
G75*
G02*
X106056000Y-36073000I-118000J0D01*
G01*
X105780000Y-36073000D01*
G75*
G02*
X105662000Y-35955000I0J118000D01*
G01*
X105662000Y-35719000D01*
G75*
G02*
X105780000Y-35601000I118000J0D01*
G01*
G37*
%TD*%
%TO.C,R3*%
G36*
G01*
X73919000Y-40502000D02*
X73919000Y-40778000D01*
G75*
G02*
X73801000Y-40896000I-118000J0D01*
G01*
X73565000Y-40896000D01*
G75*
G02*
X73447000Y-40778000I0J118000D01*
G01*
X73447000Y-40502000D01*
G75*
G02*
X73565000Y-40384000I118000J0D01*
G01*
X73801000Y-40384000D01*
G75*
G02*
X73919000Y-40502000I0J-118000D01*
G01*
G37*
G36*
G01*
X74889000Y-40502000D02*
X74889000Y-40778000D01*
G75*
G02*
X74771000Y-40896000I-118000J0D01*
G01*
X74535000Y-40896000D01*
G75*
G02*
X74417000Y-40778000I0J118000D01*
G01*
X74417000Y-40502000D01*
G75*
G02*
X74535000Y-40384000I118000J0D01*
G01*
X74771000Y-40384000D01*
G75*
G02*
X74889000Y-40502000I0J-118000D01*
G01*
G37*
%TD*%
%TO.C,R2*%
G36*
G01*
X88343489Y-42564651D02*
X88538650Y-42369489D01*
G75*
G02*
X88705528Y-42369489I83439J-83439D01*
G01*
X88872405Y-42536366D01*
G75*
G02*
X88872405Y-42703244I-83439J-83439D01*
G01*
X88677244Y-42898405D01*
G75*
G02*
X88510366Y-42898405I-83439J83439D01*
G01*
X88343489Y-42731528D01*
G75*
G02*
X88343489Y-42564650I83439J83439D01*
G01*
G37*
G36*
G01*
X87657595Y-41878757D02*
X87852756Y-41683595D01*
G75*
G02*
X88019634Y-41683595I83439J-83439D01*
G01*
X88186511Y-41850472D01*
G75*
G02*
X88186511Y-42017350I-83439J-83439D01*
G01*
X87991350Y-42212511D01*
G75*
G02*
X87824472Y-42212511I-83439J83439D01*
G01*
X87657595Y-42045634D01*
G75*
G02*
X87657595Y-41878756I83439J83439D01*
G01*
G37*
%TD*%
%TO.C,R1*%
G36*
G01*
X62108000Y-54853000D02*
X62108000Y-55129000D01*
G75*
G02*
X61990000Y-55247000I-118000J0D01*
G01*
X61754000Y-55247000D01*
G75*
G02*
X61636000Y-55129000I0J118000D01*
G01*
X61636000Y-54853000D01*
G75*
G02*
X61754000Y-54735000I118000J0D01*
G01*
X61990000Y-54735000D01*
G75*
G02*
X62108000Y-54853000I0J-118000D01*
G01*
G37*
G36*
G01*
X63078000Y-54853000D02*
X63078000Y-55129000D01*
G75*
G02*
X62960000Y-55247000I-118000J0D01*
G01*
X62724000Y-55247000D01*
G75*
G02*
X62606000Y-55129000I0J118000D01*
G01*
X62606000Y-54853000D01*
G75*
G02*
X62724000Y-54735000I118000J0D01*
G01*
X62960000Y-54735000D01*
G75*
G02*
X63078000Y-54853000I0J-118000D01*
G01*
G37*
%TD*%
%TO.C,C10*%
G36*
G01*
X90159000Y-58415000D02*
X90435000Y-58415000D01*
G75*
G02*
X90553000Y-58533000I0J-118000D01*
G01*
X90553000Y-58769000D01*
G75*
G02*
X90435000Y-58887000I-118000J0D01*
G01*
X90159000Y-58887000D01*
G75*
G02*
X90041000Y-58769000I0J118000D01*
G01*
X90041000Y-58533000D01*
G75*
G02*
X90159000Y-58415000I118000J0D01*
G01*
G37*
G36*
G01*
X90159000Y-57445000D02*
X90435000Y-57445000D01*
G75*
G02*
X90553000Y-57563000I0J-118000D01*
G01*
X90553000Y-57799000D01*
G75*
G02*
X90435000Y-57917000I-118000J0D01*
G01*
X90159000Y-57917000D01*
G75*
G02*
X90041000Y-57799000I0J118000D01*
G01*
X90041000Y-57563000D01*
G75*
G02*
X90159000Y-57445000I118000J0D01*
G01*
G37*
%TD*%
%TO.C,C9*%
G36*
G01*
X84958000Y-40778000D02*
X84958000Y-40502000D01*
G75*
G02*
X85076000Y-40384000I118000J0D01*
G01*
X85312000Y-40384000D01*
G75*
G02*
X85430000Y-40502000I0J-118000D01*
G01*
X85430000Y-40778000D01*
G75*
G02*
X85312000Y-40896000I-118000J0D01*
G01*
X85076000Y-40896000D01*
G75*
G02*
X84958000Y-40778000I0J118000D01*
G01*
G37*
G36*
G01*
X83988000Y-40778000D02*
X83988000Y-40502000D01*
G75*
G02*
X84106000Y-40384000I118000J0D01*
G01*
X84342000Y-40384000D01*
G75*
G02*
X84460000Y-40502000I0J-118000D01*
G01*
X84460000Y-40778000D01*
G75*
G02*
X84342000Y-40896000I-118000J0D01*
G01*
X84106000Y-40896000D01*
G75*
G02*
X83988000Y-40778000I0J118000D01*
G01*
G37*
%TD*%
%TO.C,C8*%
G36*
G01*
X78735000Y-61733000D02*
X78735000Y-61457000D01*
G75*
G02*
X78853000Y-61339000I118000J0D01*
G01*
X79089000Y-61339000D01*
G75*
G02*
X79207000Y-61457000I0J-118000D01*
G01*
X79207000Y-61733000D01*
G75*
G02*
X79089000Y-61851000I-118000J0D01*
G01*
X78853000Y-61851000D01*
G75*
G02*
X78735000Y-61733000I0J118000D01*
G01*
G37*
G36*
G01*
X77765000Y-61733000D02*
X77765000Y-61457000D01*
G75*
G02*
X77883000Y-61339000I118000J0D01*
G01*
X78119000Y-61339000D01*
G75*
G02*
X78237000Y-61457000I0J-118000D01*
G01*
X78237000Y-61733000D01*
G75*
G02*
X78119000Y-61851000I-118000J0D01*
G01*
X77883000Y-61851000D01*
G75*
G02*
X77765000Y-61733000I0J118000D01*
G01*
G37*
%TD*%
%TO.C,C7*%
G36*
G01*
X64400000Y-47780000D02*
X64124000Y-47780000D01*
G75*
G02*
X64006000Y-47662000I0J118000D01*
G01*
X64006000Y-47426000D01*
G75*
G02*
X64124000Y-47308000I118000J0D01*
G01*
X64400000Y-47308000D01*
G75*
G02*
X64518000Y-47426000I0J-118000D01*
G01*
X64518000Y-47662000D01*
G75*
G02*
X64400000Y-47780000I-118000J0D01*
G01*
G37*
G36*
G01*
X64400000Y-48750000D02*
X64124000Y-48750000D01*
G75*
G02*
X64006000Y-48632000I0J118000D01*
G01*
X64006000Y-48396000D01*
G75*
G02*
X64124000Y-48278000I118000J0D01*
G01*
X64400000Y-48278000D01*
G75*
G02*
X64518000Y-48396000I0J-118000D01*
G01*
X64518000Y-48632000D01*
G75*
G02*
X64400000Y-48750000I-118000J0D01*
G01*
G37*
%TD*%
%TO.C,C6*%
G36*
G01*
X119896000Y-35698000D02*
X120896000Y-35698000D01*
G75*
G02*
X121096000Y-35898000I0J-200000D01*
G01*
X121096000Y-36498000D01*
G75*
G02*
X120896000Y-36698000I-200000J0D01*
G01*
X119896000Y-36698000D01*
G75*
G02*
X119696000Y-36498000I0J200000D01*
G01*
X119696000Y-35898000D01*
G75*
G02*
X119896000Y-35698000I200000J0D01*
G01*
G37*
G36*
G01*
X119896000Y-32898000D02*
X120896000Y-32898000D01*
G75*
G02*
X121096000Y-33098000I0J-200000D01*
G01*
X121096000Y-33698000D01*
G75*
G02*
X120896000Y-33898000I-200000J0D01*
G01*
X119896000Y-33898000D01*
G75*
G02*
X119696000Y-33698000I0J200000D01*
G01*
X119696000Y-33098000D01*
G75*
G02*
X119896000Y-32898000I200000J0D01*
G01*
G37*
%TD*%
%TO.C,C5*%
G36*
G01*
X119896000Y-44972000D02*
X120896000Y-44972000D01*
G75*
G02*
X121096000Y-45172000I0J-200000D01*
G01*
X121096000Y-45772000D01*
G75*
G02*
X120896000Y-45972000I-200000J0D01*
G01*
X119896000Y-45972000D01*
G75*
G02*
X119696000Y-45772000I0J200000D01*
G01*
X119696000Y-45172000D01*
G75*
G02*
X119896000Y-44972000I200000J0D01*
G01*
G37*
G36*
G01*
X119896000Y-42172000D02*
X120896000Y-42172000D01*
G75*
G02*
X121096000Y-42372000I0J-200000D01*
G01*
X121096000Y-42972000D01*
G75*
G02*
X120896000Y-43172000I-200000J0D01*
G01*
X119896000Y-43172000D01*
G75*
G02*
X119696000Y-42972000I0J200000D01*
G01*
X119696000Y-42372000D01*
G75*
G02*
X119896000Y-42172000I200000J0D01*
G01*
G37*
%TD*%
%TO.C,C4*%
G36*
G01*
X95493000Y-41016000D02*
X95769000Y-41016000D01*
G75*
G02*
X95887000Y-41134000I0J-118000D01*
G01*
X95887000Y-41370000D01*
G75*
G02*
X95769000Y-41488000I-118000J0D01*
G01*
X95493000Y-41488000D01*
G75*
G02*
X95375000Y-41370000I0J118000D01*
G01*
X95375000Y-41134000D01*
G75*
G02*
X95493000Y-41016000I118000J0D01*
G01*
G37*
G36*
G01*
X95493000Y-40046000D02*
X95769000Y-40046000D01*
G75*
G02*
X95887000Y-40164000I0J-118000D01*
G01*
X95887000Y-40400000D01*
G75*
G02*
X95769000Y-40518000I-118000J0D01*
G01*
X95493000Y-40518000D01*
G75*
G02*
X95375000Y-40400000I0J118000D01*
G01*
X95375000Y-40164000D01*
G75*
G02*
X95493000Y-40046000I118000J0D01*
G01*
G37*
%TD*%
%TO.C,C3*%
G36*
G01*
X89673000Y-40518000D02*
X89397000Y-40518000D01*
G75*
G02*
X89279000Y-40400000I0J118000D01*
G01*
X89279000Y-40164000D01*
G75*
G02*
X89397000Y-40046000I118000J0D01*
G01*
X89673000Y-40046000D01*
G75*
G02*
X89791000Y-40164000I0J-118000D01*
G01*
X89791000Y-40400000D01*
G75*
G02*
X89673000Y-40518000I-118000J0D01*
G01*
G37*
G36*
G01*
X89673000Y-41488000D02*
X89397000Y-41488000D01*
G75*
G02*
X89279000Y-41370000I0J118000D01*
G01*
X89279000Y-41134000D01*
G75*
G02*
X89397000Y-41016000I118000J0D01*
G01*
X89673000Y-41016000D01*
G75*
G02*
X89791000Y-41134000I0J-118000D01*
G01*
X89791000Y-41370000D01*
G75*
G02*
X89673000Y-41488000I-118000J0D01*
G01*
G37*
%TD*%
%TO.C,C2*%
G36*
G01*
X109482000Y-50176000D02*
X110482000Y-50176000D01*
G75*
G02*
X110682000Y-50376000I0J-200000D01*
G01*
X110682000Y-50976000D01*
G75*
G02*
X110482000Y-51176000I-200000J0D01*
G01*
X109482000Y-51176000D01*
G75*
G02*
X109282000Y-50976000I0J200000D01*
G01*
X109282000Y-50376000D01*
G75*
G02*
X109482000Y-50176000I200000J0D01*
G01*
G37*
G36*
G01*
X109482000Y-47376000D02*
X110482000Y-47376000D01*
G75*
G02*
X110682000Y-47576000I0J-200000D01*
G01*
X110682000Y-48176000D01*
G75*
G02*
X110482000Y-48376000I-200000J0D01*
G01*
X109482000Y-48376000D01*
G75*
G02*
X109282000Y-48176000I0J200000D01*
G01*
X109282000Y-47576000D01*
G75*
G02*
X109482000Y-47376000I200000J0D01*
G01*
G37*
%TD*%
%TO.C,C1*%
G36*
G01*
X109482000Y-30364000D02*
X110482000Y-30364000D01*
G75*
G02*
X110682000Y-30564000I0J-200000D01*
G01*
X110682000Y-31164000D01*
G75*
G02*
X110482000Y-31364000I-200000J0D01*
G01*
X109482000Y-31364000D01*
G75*
G02*
X109282000Y-31164000I0J200000D01*
G01*
X109282000Y-30564000D01*
G75*
G02*
X109482000Y-30364000I200000J0D01*
G01*
G37*
G36*
G01*
X109482000Y-27564000D02*
X110482000Y-27564000D01*
G75*
G02*
X110682000Y-27764000I0J-200000D01*
G01*
X110682000Y-28364000D01*
G75*
G02*
X110482000Y-28564000I-200000J0D01*
G01*
X109482000Y-28564000D01*
G75*
G02*
X109282000Y-28364000I0J200000D01*
G01*
X109282000Y-27764000D01*
G75*
G02*
X109482000Y-27564000I200000J0D01*
G01*
G37*
%TD*%
M02*
