%TF.GenerationSoftware,KiCad,Pcbnew,5.1.6*%
%TF.CreationDate,2020-08-16T22:16:08+02:00*%
%TF.ProjectId,RC2014-Ethernet,52433230-3134-42d4-9574-6865726e6574,rev?*%
%TF.SameCoordinates,Original*%
%TF.FileFunction,Copper,L2,Bot*%
%TF.FilePolarity,Positive*%
%FSLAX46Y46*%
G04 Gerber Fmt 4.6, Leading zero omitted, Abs format (unit mm)*
G04 Created by KiCad (PCBNEW 5.1.6) date 2020-08-16 22:16:08*
%MOMM*%
%LPD*%
G01*
G04 APERTURE LIST*
%TA.AperFunction,ComponentPad*%
%ADD10C,1.400000*%
%TD*%
%TA.AperFunction,ComponentPad*%
%ADD11C,2.500000*%
%TD*%
%TA.AperFunction,SMDPad,CuDef*%
%ADD12R,2.500000X2.500000*%
%TD*%
%TA.AperFunction,ComponentPad*%
%ADD13O,1.700000X1.700000*%
%TD*%
%TA.AperFunction,ComponentPad*%
%ADD14R,1.700000X1.700000*%
%TD*%
%TA.AperFunction,ViaPad*%
%ADD15C,0.600000*%
%TD*%
%TA.AperFunction,Conductor*%
%ADD16C,0.254000*%
%TD*%
%TA.AperFunction,Conductor*%
%ADD17C,0.127000*%
%TD*%
G04 APERTURE END LIST*
D10*
%TO.P,J2,11*%
%TO.N,/LED1*%
X127532000Y-43820000D03*
%TO.P,J2,12*%
%TO.N,Net-(J2-Pad12)*%
X127532000Y-46110000D03*
%TO.P,J2,10*%
%TO.N,Net-(J2-Pad10)*%
X127532000Y-34680000D03*
%TO.P,J2,9*%
%TO.N,/LED0*%
X127532000Y-32390000D03*
%TO.P,J2,8*%
%TO.N,Net-(J2-Pad8)*%
X132332000Y-42820000D03*
%TO.P,J2,7*%
%TO.N,Net-(J2-Pad7)*%
X134112000Y-41800000D03*
%TO.P,J2,6*%
%TO.N,Net-(J2-Pad6)*%
X132332000Y-40780000D03*
%TO.P,J2,5*%
%TO.N,Net-(J2-Pad5)*%
X134112000Y-39760000D03*
%TO.P,J2,4*%
%TO.N,Net-(J2-Pad4)*%
X132332000Y-38740000D03*
%TO.P,J2,3*%
%TO.N,Net-(J2-Pad3)*%
X134112000Y-37720000D03*
%TO.P,J2,2*%
%TO.N,Net-(J2-Pad2)*%
X132332000Y-36700000D03*
%TO.P,J2,1*%
%TO.N,Net-(J2-Pad1)*%
X134112000Y-35680000D03*
D11*
%TO.P,J2,SH*%
%TO.N,Earth*%
X133092000Y-47450000D03*
X133092000Y-31050000D03*
%TD*%
D12*
%TO.P,TP1,1*%
%TO.N,Net-(TP1-Pad1)*%
X83820000Y-51308000D03*
%TD*%
D13*
%TO.P,J3,16*%
%TO.N,/~AEN*%
X62484000Y-42164000D03*
%TO.P,J3,15*%
%TO.N,Net-(J3-Pad15)*%
X62484000Y-44704000D03*
%TO.P,J3,14*%
%TO.N,/~AEN*%
X59944000Y-42164000D03*
%TO.P,J3,13*%
%TO.N,Net-(J3-Pad13)*%
X59944000Y-44704000D03*
%TO.P,J3,12*%
%TO.N,/~AEN*%
X57404000Y-42164000D03*
%TO.P,J3,11*%
%TO.N,Net-(J3-Pad11)*%
X57404000Y-44704000D03*
%TO.P,J3,10*%
%TO.N,/~AEN*%
X54864000Y-42164000D03*
%TO.P,J3,9*%
%TO.N,Net-(J3-Pad9)*%
X54864000Y-44704000D03*
%TO.P,J3,8*%
%TO.N,/~AEN*%
X52324000Y-42164000D03*
%TO.P,J3,7*%
%TO.N,Net-(J3-Pad7)*%
X52324000Y-44704000D03*
%TO.P,J3,6*%
%TO.N,/~AEN*%
X49784000Y-42164000D03*
%TO.P,J3,5*%
%TO.N,Net-(J3-Pad5)*%
X49784000Y-44704000D03*
%TO.P,J3,4*%
%TO.N,/~AEN*%
X47244000Y-42164000D03*
%TO.P,J3,3*%
%TO.N,Net-(J3-Pad3)*%
X47244000Y-44704000D03*
%TO.P,J3,2*%
%TO.N,/~AEN*%
X44704000Y-42164000D03*
D14*
%TO.P,J3,1*%
%TO.N,Net-(J3-Pad1)*%
X44704000Y-44704000D03*
%TD*%
D13*
%TO.P,J1,39*%
%TO.N,Net-(J1-Pad39)*%
X140520000Y-72000000D03*
%TO.P,J1,38*%
%TO.N,Net-(J1-Pad38)*%
X137980000Y-72000000D03*
%TO.P,J1,37*%
%TO.N,Net-(J1-Pad37)*%
X135440000Y-72000000D03*
%TO.P,J1,36*%
%TO.N,Net-(J1-Pad36)*%
X132900000Y-72000000D03*
%TO.P,J1,35*%
%TO.N,Net-(J1-Pad35)*%
X130360000Y-72000000D03*
%TO.P,J1,34*%
%TO.N,/D7*%
X127820000Y-72000000D03*
%TO.P,J1,33*%
%TO.N,/D6*%
X125280000Y-72000000D03*
%TO.P,J1,32*%
%TO.N,/D5*%
X122740000Y-72000000D03*
%TO.P,J1,31*%
%TO.N,/D4*%
X120200000Y-72000000D03*
%TO.P,J1,30*%
%TO.N,/D3*%
X117660000Y-72000000D03*
%TO.P,J1,29*%
%TO.N,/D2*%
X115120000Y-72000000D03*
%TO.P,J1,28*%
%TO.N,/D1*%
X112580000Y-72000000D03*
%TO.P,J1,27*%
%TO.N,/D0*%
X110040000Y-72000000D03*
%TO.P,J1,26*%
%TO.N,/~IORQ*%
X107500000Y-72000000D03*
%TO.P,J1,25*%
%TO.N,/~RD*%
X104960000Y-72000000D03*
%TO.P,J1,24*%
%TO.N,/~WR*%
X102420000Y-72000000D03*
%TO.P,J1,23*%
%TO.N,Net-(J1-Pad23)*%
X99880000Y-72000000D03*
%TO.P,J1,22*%
%TO.N,/~INT*%
X97340000Y-72000000D03*
%TO.P,J1,21*%
%TO.N,Net-(J1-Pad21)*%
X94800000Y-72000000D03*
%TO.P,J1,20*%
%TO.N,/~RESET*%
X92260000Y-72000000D03*
%TO.P,J1,19*%
%TO.N,/~M1*%
X89720000Y-72000000D03*
%TO.P,J1,18*%
%TO.N,+5V*%
X87180000Y-72000000D03*
%TO.P,J1,17*%
%TO.N,GND*%
X84640000Y-72000000D03*
%TO.P,J1,16*%
%TO.N,/A0*%
X82100000Y-72000000D03*
%TO.P,J1,15*%
%TO.N,/A1*%
X79560000Y-72000000D03*
%TO.P,J1,14*%
%TO.N,/A2*%
X77020000Y-72000000D03*
%TO.P,J1,13*%
%TO.N,/A3*%
X74480000Y-72000000D03*
%TO.P,J1,12*%
%TO.N,/A4*%
X71940000Y-72000000D03*
%TO.P,J1,11*%
%TO.N,/A5*%
X69400000Y-72000000D03*
%TO.P,J1,10*%
%TO.N,/A6*%
X66860000Y-72000000D03*
%TO.P,J1,9*%
%TO.N,/A7*%
X64320000Y-72000000D03*
%TO.P,J1,8*%
%TO.N,Net-(J1-Pad8)*%
X61780000Y-72000000D03*
%TO.P,J1,7*%
%TO.N,Net-(J1-Pad7)*%
X59240000Y-72000000D03*
%TO.P,J1,6*%
%TO.N,Net-(J1-Pad6)*%
X56700000Y-72000000D03*
%TO.P,J1,5*%
%TO.N,Net-(J1-Pad5)*%
X54160000Y-72000000D03*
%TO.P,J1,4*%
%TO.N,Net-(J1-Pad4)*%
X51620000Y-72000000D03*
%TO.P,J1,3*%
%TO.N,Net-(J1-Pad3)*%
X49080000Y-72000000D03*
%TO.P,J1,2*%
%TO.N,Net-(J1-Pad2)*%
X46540000Y-72000000D03*
D14*
%TO.P,J1,1*%
%TO.N,Net-(J1-Pad1)*%
X44000000Y-72000000D03*
%TD*%
D15*
%TO.N,GND*%
X43434000Y-66040000D03*
X43180000Y-39116000D03*
X57658000Y-24892000D03*
X141224000Y-69596000D03*
%TO.N,Earth*%
X141392538Y-29210000D03*
%TO.N,GND*%
X136906000Y-24511000D03*
X137954779Y-24584177D03*
%TO.N,Earth*%
X139846365Y-25465887D03*
X140576795Y-26222038D03*
X141392538Y-28142994D03*
%TO.N,GND*%
X74676000Y-61214000D03*
X75438000Y-61214000D03*
X76200000Y-61214000D03*
X76962000Y-61214000D03*
X79883000Y-61595000D03*
X46101000Y-55626000D03*
X51750000Y-58330000D03*
X56845200Y-58293000D03*
X60985400Y-54965600D03*
X64287400Y-46558200D03*
X106781600Y-36296600D03*
X104952800Y-36296600D03*
X82296000Y-36982400D03*
X76758800Y-41757600D03*
X76700000Y-46300000D03*
X82042000Y-44958000D03*
X86868000Y-56388000D03*
X89662000Y-42164000D03*
X94699000Y-39667000D03*
X90424000Y-40386000D03*
X86106000Y-40640000D03*
X89408000Y-58674000D03*
X109982000Y-26670000D03*
X109982000Y-52070000D03*
X131572000Y-56134000D03*
X92100000Y-55000000D03*
X93200000Y-54300000D03*
X95200000Y-53700000D03*
X97000000Y-53000000D03*
X99000000Y-52400000D03*
X100800000Y-51700000D03*
X102700000Y-51100000D03*
X104600000Y-50400000D03*
X106500000Y-49800000D03*
X90000000Y-47100000D03*
X81300000Y-35200000D03*
X82200000Y-27000000D03*
X55700000Y-54600000D03*
X71200000Y-61400000D03*
X76900000Y-56600000D03*
X78600000Y-56600000D03*
X70500000Y-58000000D03*
X67700000Y-52200000D03*
X67700000Y-49800000D03*
X67800000Y-46500000D03*
X71900000Y-56700000D03*
X73700000Y-44800000D03*
X76700000Y-48200000D03*
X78700000Y-48200000D03*
X78700000Y-46300000D03*
X83800000Y-46300000D03*
%TO.N,+5V*%
X122428000Y-39878000D03*
X122428000Y-46990000D03*
X122428000Y-45466000D03*
X90932000Y-57658000D03*
%TO.N,Net-(J2-Pad10)*%
X123444000Y-38354000D03*
%TO.N,Net-(T1-Pad6)*%
X90170000Y-48514000D03*
X91948000Y-47244000D03*
%TO.N,/~IORQ*%
X66929000Y-63754000D03*
%TO.N,/~RD*%
X91567000Y-65786000D03*
X98806000Y-69850000D03*
%TO.N,/~WR*%
X91567000Y-64516000D03*
%TO.N,/~INT*%
X68199000Y-67564000D03*
%TO.N,/~M1*%
X88138000Y-64643000D03*
X63881000Y-62738000D03*
%TO.N,/A0*%
X68834000Y-68326000D03*
%TO.N,/A1*%
X69596000Y-69088000D03*
%TO.N,/A2*%
X70358000Y-69850000D03*
%TO.N,/A3*%
X71120000Y-70612000D03*
%TO.N,/A5*%
X59436000Y-69596000D03*
%TO.N,/A6*%
X61468000Y-70358000D03*
%TO.N,/~AEN*%
X78613000Y-55651400D03*
X76809600Y-55575200D03*
%TO.N,Net-(J3-Pad15)*%
X58394600Y-52628800D03*
X58369200Y-54508400D03*
%TO.N,Net-(TP1-Pad1)*%
X83870800Y-54737000D03*
%TO.N,Earth*%
X131622800Y-51917600D03*
X131572000Y-49276000D03*
X131572000Y-45720000D03*
X131572000Y-28956000D03*
X131572000Y-32512000D03*
X122174000Y-33274000D03*
X122100000Y-36400000D03*
X123300000Y-42700000D03*
%TD*%
D16*
%TO.N,+5V*%
X122428000Y-39878000D02*
X122428000Y-45466000D01*
X122428000Y-45466000D02*
X122428000Y-46990000D01*
X90932000Y-57658000D02*
X117856000Y-57658000D01*
X122428000Y-53086000D02*
X122428000Y-46990000D01*
X117856000Y-57658000D02*
X122428000Y-53086000D01*
%TO.N,Net-(J2-Pad10)*%
X123444000Y-37366000D02*
X123444000Y-38354000D01*
X126130000Y-34680000D02*
X123444000Y-37366000D01*
X127532000Y-34680000D02*
X126130000Y-34680000D01*
%TO.N,Net-(T1-Pad6)*%
X90678000Y-48514000D02*
X91948000Y-47244000D01*
X90170000Y-48514000D02*
X90678000Y-48514000D01*
%TO.N,/~IORQ*%
X99254000Y-63754000D02*
X107500000Y-72000000D01*
X66929000Y-63754000D02*
X99254000Y-63754000D01*
%TO.N,/~RD*%
X94742000Y-65786000D02*
X98806000Y-69850000D01*
X91567000Y-65786000D02*
X94742000Y-65786000D01*
%TO.N,/~WR*%
X102420000Y-72000000D02*
X94936000Y-64516000D01*
X94936000Y-64516000D02*
X91567000Y-64516000D01*
%TO.N,/~INT*%
X92904000Y-67564000D02*
X97340000Y-72000000D01*
X68199000Y-67564000D02*
X92904000Y-67564000D01*
%TO.N,/~M1*%
X88138000Y-64643000D02*
X65913000Y-64643000D01*
X64008000Y-62738000D02*
X63881000Y-62738000D01*
X65913000Y-64643000D02*
X64008000Y-62738000D01*
%TO.N,/A0*%
X78426000Y-68326000D02*
X68834000Y-68326000D01*
X82100000Y-72000000D02*
X78426000Y-68326000D01*
%TO.N,/A1*%
X76648000Y-69088000D02*
X79560000Y-72000000D01*
X69596000Y-69088000D02*
X76648000Y-69088000D01*
%TO.N,/A2*%
X74870000Y-69850000D02*
X77020000Y-72000000D01*
X70358000Y-69850000D02*
X74870000Y-69850000D01*
%TO.N,/A3*%
X73092000Y-70612000D02*
X74480000Y-72000000D01*
X71120000Y-70612000D02*
X73092000Y-70612000D01*
%TO.N,/A5*%
X59436000Y-69596000D02*
X67818000Y-69596000D01*
X69400000Y-71178000D02*
X69400000Y-72000000D01*
X67818000Y-69596000D02*
X69400000Y-71178000D01*
%TO.N,/A6*%
X61468000Y-70358000D02*
X65218000Y-70358000D01*
X65218000Y-70358000D02*
X66860000Y-72000000D01*
%TO.N,/~AEN*%
X76885800Y-55651400D02*
X76809600Y-55575200D01*
X78613000Y-55651400D02*
X76885800Y-55651400D01*
%TO.N,Net-(J3-Pad15)*%
X58394600Y-54483000D02*
X58369200Y-54508400D01*
X58394600Y-52628800D02*
X58394600Y-54483000D01*
%TO.N,Net-(TP1-Pad1)*%
X83870800Y-51358800D02*
X83820000Y-51308000D01*
X83870800Y-54737000D02*
X83870800Y-51358800D01*
%TD*%
D17*
%TO.N,GND*%
G36*
X137985622Y-24233562D02*
G01*
X138812908Y-24455232D01*
X139589142Y-24817196D01*
X139686381Y-24885283D01*
X115951456Y-24828501D01*
X115913835Y-24832160D01*
X115878099Y-24843001D01*
X115845164Y-24860605D01*
X115816296Y-24884296D01*
X115792605Y-24913164D01*
X115775001Y-24946099D01*
X115764160Y-24981835D01*
X115760500Y-25019000D01*
X115760500Y-54102000D01*
X115764072Y-54138718D01*
X115774827Y-54174480D01*
X115792352Y-54207457D01*
X115815974Y-54236381D01*
X115844785Y-54260141D01*
X115877678Y-54277824D01*
X115913388Y-54288750D01*
X115950544Y-54292499D01*
X120760980Y-54304007D01*
X117724488Y-57340500D01*
X91308171Y-57340500D01*
X91244675Y-57277004D01*
X91164339Y-57223325D01*
X91075073Y-57186350D01*
X90980310Y-57167500D01*
X90883690Y-57167500D01*
X90788927Y-57186350D01*
X90699661Y-57223325D01*
X90619325Y-57277004D01*
X90551004Y-57345325D01*
X90497325Y-57425661D01*
X90460350Y-57514927D01*
X90441500Y-57609690D01*
X90441500Y-57706310D01*
X90460350Y-57801073D01*
X90497325Y-57890339D01*
X90551004Y-57970675D01*
X90619325Y-58038996D01*
X90699661Y-58092675D01*
X90788927Y-58129650D01*
X90883690Y-58148500D01*
X90980310Y-58148500D01*
X91075073Y-58129650D01*
X91164339Y-58092675D01*
X91244675Y-58038996D01*
X91308171Y-57975500D01*
X117840404Y-57975500D01*
X117856000Y-57977036D01*
X117871596Y-57975500D01*
X117918241Y-57970906D01*
X117978090Y-57952751D01*
X118033247Y-57923269D01*
X118081593Y-57883593D01*
X118091542Y-57871470D01*
X121656862Y-54306150D01*
X142048501Y-54354934D01*
X142048501Y-73487100D01*
X42462100Y-73487100D01*
X42462100Y-71150000D01*
X42958579Y-71150000D01*
X42958579Y-72850000D01*
X42962257Y-72887344D01*
X42973150Y-72923254D01*
X42990839Y-72956348D01*
X43014645Y-72985355D01*
X43043652Y-73009161D01*
X43076746Y-73026850D01*
X43112656Y-73037743D01*
X43150000Y-73041421D01*
X44850000Y-73041421D01*
X44887344Y-73037743D01*
X44923254Y-73026850D01*
X44956348Y-73009161D01*
X44985355Y-72985355D01*
X45009161Y-72956348D01*
X45026850Y-72923254D01*
X45037743Y-72887344D01*
X45041421Y-72850000D01*
X45041421Y-71897520D01*
X45499500Y-71897520D01*
X45499500Y-72102480D01*
X45539485Y-72303503D01*
X45617920Y-72492862D01*
X45731791Y-72663280D01*
X45876720Y-72808209D01*
X46047138Y-72922080D01*
X46236497Y-73000515D01*
X46437520Y-73040500D01*
X46642480Y-73040500D01*
X46843503Y-73000515D01*
X47032862Y-72922080D01*
X47203280Y-72808209D01*
X47348209Y-72663280D01*
X47462080Y-72492862D01*
X47540515Y-72303503D01*
X47580500Y-72102480D01*
X47580500Y-71897520D01*
X48039500Y-71897520D01*
X48039500Y-72102480D01*
X48079485Y-72303503D01*
X48157920Y-72492862D01*
X48271791Y-72663280D01*
X48416720Y-72808209D01*
X48587138Y-72922080D01*
X48776497Y-73000515D01*
X48977520Y-73040500D01*
X49182480Y-73040500D01*
X49383503Y-73000515D01*
X49572862Y-72922080D01*
X49743280Y-72808209D01*
X49888209Y-72663280D01*
X50002080Y-72492862D01*
X50080515Y-72303503D01*
X50120500Y-72102480D01*
X50120500Y-71897520D01*
X50579500Y-71897520D01*
X50579500Y-72102480D01*
X50619485Y-72303503D01*
X50697920Y-72492862D01*
X50811791Y-72663280D01*
X50956720Y-72808209D01*
X51127138Y-72922080D01*
X51316497Y-73000515D01*
X51517520Y-73040500D01*
X51722480Y-73040500D01*
X51923503Y-73000515D01*
X52112862Y-72922080D01*
X52283280Y-72808209D01*
X52428209Y-72663280D01*
X52542080Y-72492862D01*
X52620515Y-72303503D01*
X52660500Y-72102480D01*
X52660500Y-71897520D01*
X53119500Y-71897520D01*
X53119500Y-72102480D01*
X53159485Y-72303503D01*
X53237920Y-72492862D01*
X53351791Y-72663280D01*
X53496720Y-72808209D01*
X53667138Y-72922080D01*
X53856497Y-73000515D01*
X54057520Y-73040500D01*
X54262480Y-73040500D01*
X54463503Y-73000515D01*
X54652862Y-72922080D01*
X54823280Y-72808209D01*
X54968209Y-72663280D01*
X55082080Y-72492862D01*
X55160515Y-72303503D01*
X55200500Y-72102480D01*
X55200500Y-71897520D01*
X55659500Y-71897520D01*
X55659500Y-72102480D01*
X55699485Y-72303503D01*
X55777920Y-72492862D01*
X55891791Y-72663280D01*
X56036720Y-72808209D01*
X56207138Y-72922080D01*
X56396497Y-73000515D01*
X56597520Y-73040500D01*
X56802480Y-73040500D01*
X57003503Y-73000515D01*
X57192862Y-72922080D01*
X57363280Y-72808209D01*
X57508209Y-72663280D01*
X57622080Y-72492862D01*
X57700515Y-72303503D01*
X57740500Y-72102480D01*
X57740500Y-71897520D01*
X58199500Y-71897520D01*
X58199500Y-72102480D01*
X58239485Y-72303503D01*
X58317920Y-72492862D01*
X58431791Y-72663280D01*
X58576720Y-72808209D01*
X58747138Y-72922080D01*
X58936497Y-73000515D01*
X59137520Y-73040500D01*
X59342480Y-73040500D01*
X59543503Y-73000515D01*
X59732862Y-72922080D01*
X59903280Y-72808209D01*
X60048209Y-72663280D01*
X60162080Y-72492862D01*
X60240515Y-72303503D01*
X60280500Y-72102480D01*
X60280500Y-71897520D01*
X60739500Y-71897520D01*
X60739500Y-72102480D01*
X60779485Y-72303503D01*
X60857920Y-72492862D01*
X60971791Y-72663280D01*
X61116720Y-72808209D01*
X61287138Y-72922080D01*
X61476497Y-73000515D01*
X61677520Y-73040500D01*
X61882480Y-73040500D01*
X62083503Y-73000515D01*
X62272862Y-72922080D01*
X62443280Y-72808209D01*
X62588209Y-72663280D01*
X62702080Y-72492862D01*
X62780515Y-72303503D01*
X62820500Y-72102480D01*
X62820500Y-71897520D01*
X63279500Y-71897520D01*
X63279500Y-72102480D01*
X63319485Y-72303503D01*
X63397920Y-72492862D01*
X63511791Y-72663280D01*
X63656720Y-72808209D01*
X63827138Y-72922080D01*
X64016497Y-73000515D01*
X64217520Y-73040500D01*
X64422480Y-73040500D01*
X64623503Y-73000515D01*
X64812862Y-72922080D01*
X64983280Y-72808209D01*
X65128209Y-72663280D01*
X65242080Y-72492862D01*
X65320515Y-72303503D01*
X65360500Y-72102480D01*
X65360500Y-71897520D01*
X65320515Y-71696497D01*
X65242080Y-71507138D01*
X65128209Y-71336720D01*
X64983280Y-71191791D01*
X64812862Y-71077920D01*
X64623503Y-70999485D01*
X64422480Y-70959500D01*
X64217520Y-70959500D01*
X64016497Y-70999485D01*
X63827138Y-71077920D01*
X63656720Y-71191791D01*
X63511791Y-71336720D01*
X63397920Y-71507138D01*
X63319485Y-71696497D01*
X63279500Y-71897520D01*
X62820500Y-71897520D01*
X62780515Y-71696497D01*
X62702080Y-71507138D01*
X62588209Y-71336720D01*
X62443280Y-71191791D01*
X62272862Y-71077920D01*
X62083503Y-70999485D01*
X61882480Y-70959500D01*
X61677520Y-70959500D01*
X61476497Y-70999485D01*
X61287138Y-71077920D01*
X61116720Y-71191791D01*
X60971791Y-71336720D01*
X60857920Y-71507138D01*
X60779485Y-71696497D01*
X60739500Y-71897520D01*
X60280500Y-71897520D01*
X60240515Y-71696497D01*
X60162080Y-71507138D01*
X60048209Y-71336720D01*
X59903280Y-71191791D01*
X59732862Y-71077920D01*
X59543503Y-70999485D01*
X59342480Y-70959500D01*
X59137520Y-70959500D01*
X58936497Y-70999485D01*
X58747138Y-71077920D01*
X58576720Y-71191791D01*
X58431791Y-71336720D01*
X58317920Y-71507138D01*
X58239485Y-71696497D01*
X58199500Y-71897520D01*
X57740500Y-71897520D01*
X57700515Y-71696497D01*
X57622080Y-71507138D01*
X57508209Y-71336720D01*
X57363280Y-71191791D01*
X57192862Y-71077920D01*
X57003503Y-70999485D01*
X56802480Y-70959500D01*
X56597520Y-70959500D01*
X56396497Y-70999485D01*
X56207138Y-71077920D01*
X56036720Y-71191791D01*
X55891791Y-71336720D01*
X55777920Y-71507138D01*
X55699485Y-71696497D01*
X55659500Y-71897520D01*
X55200500Y-71897520D01*
X55160515Y-71696497D01*
X55082080Y-71507138D01*
X54968209Y-71336720D01*
X54823280Y-71191791D01*
X54652862Y-71077920D01*
X54463503Y-70999485D01*
X54262480Y-70959500D01*
X54057520Y-70959500D01*
X53856497Y-70999485D01*
X53667138Y-71077920D01*
X53496720Y-71191791D01*
X53351791Y-71336720D01*
X53237920Y-71507138D01*
X53159485Y-71696497D01*
X53119500Y-71897520D01*
X52660500Y-71897520D01*
X52620515Y-71696497D01*
X52542080Y-71507138D01*
X52428209Y-71336720D01*
X52283280Y-71191791D01*
X52112862Y-71077920D01*
X51923503Y-70999485D01*
X51722480Y-70959500D01*
X51517520Y-70959500D01*
X51316497Y-70999485D01*
X51127138Y-71077920D01*
X50956720Y-71191791D01*
X50811791Y-71336720D01*
X50697920Y-71507138D01*
X50619485Y-71696497D01*
X50579500Y-71897520D01*
X50120500Y-71897520D01*
X50080515Y-71696497D01*
X50002080Y-71507138D01*
X49888209Y-71336720D01*
X49743280Y-71191791D01*
X49572862Y-71077920D01*
X49383503Y-70999485D01*
X49182480Y-70959500D01*
X48977520Y-70959500D01*
X48776497Y-70999485D01*
X48587138Y-71077920D01*
X48416720Y-71191791D01*
X48271791Y-71336720D01*
X48157920Y-71507138D01*
X48079485Y-71696497D01*
X48039500Y-71897520D01*
X47580500Y-71897520D01*
X47540515Y-71696497D01*
X47462080Y-71507138D01*
X47348209Y-71336720D01*
X47203280Y-71191791D01*
X47032862Y-71077920D01*
X46843503Y-70999485D01*
X46642480Y-70959500D01*
X46437520Y-70959500D01*
X46236497Y-70999485D01*
X46047138Y-71077920D01*
X45876720Y-71191791D01*
X45731791Y-71336720D01*
X45617920Y-71507138D01*
X45539485Y-71696497D01*
X45499500Y-71897520D01*
X45041421Y-71897520D01*
X45041421Y-71150000D01*
X45037743Y-71112656D01*
X45026850Y-71076746D01*
X45009161Y-71043652D01*
X44985355Y-71014645D01*
X44956348Y-70990839D01*
X44923254Y-70973150D01*
X44887344Y-70962257D01*
X44850000Y-70958579D01*
X43150000Y-70958579D01*
X43112656Y-70962257D01*
X43076746Y-70973150D01*
X43043652Y-70990839D01*
X43014645Y-71014645D01*
X42990839Y-71043652D01*
X42973150Y-71076746D01*
X42962257Y-71112656D01*
X42958579Y-71150000D01*
X42462100Y-71150000D01*
X42462100Y-69139506D01*
X44953500Y-69139506D01*
X44953500Y-69290494D01*
X44982956Y-69438580D01*
X45040736Y-69578074D01*
X45124620Y-69703615D01*
X45231385Y-69810380D01*
X45356926Y-69894264D01*
X45496420Y-69952044D01*
X45644506Y-69981500D01*
X45795494Y-69981500D01*
X45943580Y-69952044D01*
X46083074Y-69894264D01*
X46208615Y-69810380D01*
X46315380Y-69703615D01*
X46399264Y-69578074D01*
X46411849Y-69547690D01*
X58945500Y-69547690D01*
X58945500Y-69644310D01*
X58964350Y-69739073D01*
X59001325Y-69828339D01*
X59055004Y-69908675D01*
X59123325Y-69976996D01*
X59203661Y-70030675D01*
X59292927Y-70067650D01*
X59387690Y-70086500D01*
X59484310Y-70086500D01*
X59579073Y-70067650D01*
X59668339Y-70030675D01*
X59748675Y-69976996D01*
X59812171Y-69913500D01*
X61259381Y-69913500D01*
X61235661Y-69923325D01*
X61155325Y-69977004D01*
X61087004Y-70045325D01*
X61033325Y-70125661D01*
X60996350Y-70214927D01*
X60977500Y-70309690D01*
X60977500Y-70406310D01*
X60996350Y-70501073D01*
X61033325Y-70590339D01*
X61087004Y-70670675D01*
X61155325Y-70738996D01*
X61235661Y-70792675D01*
X61324927Y-70829650D01*
X61419690Y-70848500D01*
X61516310Y-70848500D01*
X61611073Y-70829650D01*
X61700339Y-70792675D01*
X61780675Y-70738996D01*
X61844171Y-70675500D01*
X65086488Y-70675500D01*
X65932122Y-71521135D01*
X65859485Y-71696497D01*
X65819500Y-71897520D01*
X65819500Y-72102480D01*
X65859485Y-72303503D01*
X65937920Y-72492862D01*
X66051791Y-72663280D01*
X66196720Y-72808209D01*
X66367138Y-72922080D01*
X66556497Y-73000515D01*
X66757520Y-73040500D01*
X66962480Y-73040500D01*
X67163503Y-73000515D01*
X67352862Y-72922080D01*
X67523280Y-72808209D01*
X67668209Y-72663280D01*
X67782080Y-72492862D01*
X67860515Y-72303503D01*
X67900500Y-72102480D01*
X67900500Y-71897520D01*
X67860515Y-71696497D01*
X67782080Y-71507138D01*
X67668209Y-71336720D01*
X67523280Y-71191791D01*
X67352862Y-71077920D01*
X67163503Y-70999485D01*
X66962480Y-70959500D01*
X66757520Y-70959500D01*
X66556497Y-70999485D01*
X66381135Y-71072122D01*
X65453542Y-70144530D01*
X65443593Y-70132407D01*
X65395247Y-70092731D01*
X65340090Y-70063249D01*
X65280241Y-70045094D01*
X65233596Y-70040500D01*
X65218000Y-70038964D01*
X65202404Y-70040500D01*
X61844171Y-70040500D01*
X61780675Y-69977004D01*
X61700339Y-69923325D01*
X61676619Y-69913500D01*
X67686488Y-69913500D01*
X68873430Y-71100443D01*
X68736720Y-71191791D01*
X68591791Y-71336720D01*
X68477920Y-71507138D01*
X68399485Y-71696497D01*
X68359500Y-71897520D01*
X68359500Y-72102480D01*
X68399485Y-72303503D01*
X68477920Y-72492862D01*
X68591791Y-72663280D01*
X68736720Y-72808209D01*
X68907138Y-72922080D01*
X69096497Y-73000515D01*
X69297520Y-73040500D01*
X69502480Y-73040500D01*
X69703503Y-73000515D01*
X69892862Y-72922080D01*
X70063280Y-72808209D01*
X70208209Y-72663280D01*
X70322080Y-72492862D01*
X70400515Y-72303503D01*
X70440500Y-72102480D01*
X70440500Y-71897520D01*
X70899500Y-71897520D01*
X70899500Y-72102480D01*
X70939485Y-72303503D01*
X71017920Y-72492862D01*
X71131791Y-72663280D01*
X71276720Y-72808209D01*
X71447138Y-72922080D01*
X71636497Y-73000515D01*
X71837520Y-73040500D01*
X72042480Y-73040500D01*
X72243503Y-73000515D01*
X72432862Y-72922080D01*
X72603280Y-72808209D01*
X72748209Y-72663280D01*
X72862080Y-72492862D01*
X72940515Y-72303503D01*
X72980500Y-72102480D01*
X72980500Y-71897520D01*
X72940515Y-71696497D01*
X72862080Y-71507138D01*
X72748209Y-71336720D01*
X72603280Y-71191791D01*
X72432862Y-71077920D01*
X72243503Y-70999485D01*
X72042480Y-70959500D01*
X71837520Y-70959500D01*
X71636497Y-70999485D01*
X71447138Y-71077920D01*
X71276720Y-71191791D01*
X71131791Y-71336720D01*
X71017920Y-71507138D01*
X70939485Y-71696497D01*
X70899500Y-71897520D01*
X70440500Y-71897520D01*
X70400515Y-71696497D01*
X70322080Y-71507138D01*
X70208209Y-71336720D01*
X70063280Y-71191791D01*
X69892862Y-71077920D01*
X69703503Y-70999485D01*
X69656566Y-70990149D01*
X69642616Y-70973150D01*
X69625593Y-70952407D01*
X69613477Y-70942464D01*
X68053542Y-69382530D01*
X68043593Y-69370407D01*
X67995247Y-69330731D01*
X67940090Y-69301249D01*
X67880241Y-69283094D01*
X67833596Y-69278500D01*
X67818000Y-69276964D01*
X67802404Y-69278500D01*
X59812171Y-69278500D01*
X59748675Y-69215004D01*
X59668339Y-69161325D01*
X59579073Y-69124350D01*
X59484310Y-69105500D01*
X59387690Y-69105500D01*
X59292927Y-69124350D01*
X59203661Y-69161325D01*
X59123325Y-69215004D01*
X59055004Y-69283325D01*
X59001325Y-69363661D01*
X58964350Y-69452927D01*
X58945500Y-69547690D01*
X46411849Y-69547690D01*
X46457044Y-69438580D01*
X46486500Y-69290494D01*
X46486500Y-69139506D01*
X46457044Y-68991420D01*
X46399264Y-68851926D01*
X46315380Y-68726385D01*
X46208615Y-68619620D01*
X46083074Y-68535736D01*
X45943580Y-68477956D01*
X45795494Y-68448500D01*
X45644506Y-68448500D01*
X45496420Y-68477956D01*
X45356926Y-68535736D01*
X45231385Y-68619620D01*
X45124620Y-68726385D01*
X45040736Y-68851926D01*
X44982956Y-68991420D01*
X44953500Y-69139506D01*
X42462100Y-69139506D01*
X42462100Y-67515690D01*
X67708500Y-67515690D01*
X67708500Y-67612310D01*
X67727350Y-67707073D01*
X67764325Y-67796339D01*
X67818004Y-67876675D01*
X67886325Y-67944996D01*
X67966661Y-67998675D01*
X68055927Y-68035650D01*
X68150690Y-68054500D01*
X68247310Y-68054500D01*
X68342073Y-68035650D01*
X68431339Y-67998675D01*
X68511675Y-67944996D01*
X68575171Y-67881500D01*
X68625381Y-67881500D01*
X68601661Y-67891325D01*
X68521325Y-67945004D01*
X68453004Y-68013325D01*
X68399325Y-68093661D01*
X68362350Y-68182927D01*
X68343500Y-68277690D01*
X68343500Y-68374310D01*
X68362350Y-68469073D01*
X68399325Y-68558339D01*
X68453004Y-68638675D01*
X68521325Y-68706996D01*
X68601661Y-68760675D01*
X68690927Y-68797650D01*
X68785690Y-68816500D01*
X68882310Y-68816500D01*
X68977073Y-68797650D01*
X69066339Y-68760675D01*
X69146675Y-68706996D01*
X69210171Y-68643500D01*
X69387381Y-68643500D01*
X69363661Y-68653325D01*
X69283325Y-68707004D01*
X69215004Y-68775325D01*
X69161325Y-68855661D01*
X69124350Y-68944927D01*
X69105500Y-69039690D01*
X69105500Y-69136310D01*
X69124350Y-69231073D01*
X69161325Y-69320339D01*
X69215004Y-69400675D01*
X69283325Y-69468996D01*
X69363661Y-69522675D01*
X69452927Y-69559650D01*
X69547690Y-69578500D01*
X69644310Y-69578500D01*
X69739073Y-69559650D01*
X69828339Y-69522675D01*
X69908675Y-69468996D01*
X69972171Y-69405500D01*
X70149381Y-69405500D01*
X70125661Y-69415325D01*
X70045325Y-69469004D01*
X69977004Y-69537325D01*
X69923325Y-69617661D01*
X69886350Y-69706927D01*
X69867500Y-69801690D01*
X69867500Y-69898310D01*
X69886350Y-69993073D01*
X69923325Y-70082339D01*
X69977004Y-70162675D01*
X70045325Y-70230996D01*
X70125661Y-70284675D01*
X70214927Y-70321650D01*
X70309690Y-70340500D01*
X70406310Y-70340500D01*
X70501073Y-70321650D01*
X70590339Y-70284675D01*
X70670675Y-70230996D01*
X70734171Y-70167500D01*
X70911381Y-70167500D01*
X70887661Y-70177325D01*
X70807325Y-70231004D01*
X70739004Y-70299325D01*
X70685325Y-70379661D01*
X70648350Y-70468927D01*
X70629500Y-70563690D01*
X70629500Y-70660310D01*
X70648350Y-70755073D01*
X70685325Y-70844339D01*
X70739004Y-70924675D01*
X70807325Y-70992996D01*
X70887661Y-71046675D01*
X70976927Y-71083650D01*
X71071690Y-71102500D01*
X71168310Y-71102500D01*
X71263073Y-71083650D01*
X71352339Y-71046675D01*
X71432675Y-70992996D01*
X71496171Y-70929500D01*
X72960488Y-70929500D01*
X73552122Y-71521135D01*
X73479485Y-71696497D01*
X73439500Y-71897520D01*
X73439500Y-72102480D01*
X73479485Y-72303503D01*
X73557920Y-72492862D01*
X73671791Y-72663280D01*
X73816720Y-72808209D01*
X73987138Y-72922080D01*
X74176497Y-73000515D01*
X74377520Y-73040500D01*
X74582480Y-73040500D01*
X74783503Y-73000515D01*
X74972862Y-72922080D01*
X75143280Y-72808209D01*
X75288209Y-72663280D01*
X75402080Y-72492862D01*
X75480515Y-72303503D01*
X75520500Y-72102480D01*
X75520500Y-71897520D01*
X75480515Y-71696497D01*
X75402080Y-71507138D01*
X75288209Y-71336720D01*
X75143280Y-71191791D01*
X74972862Y-71077920D01*
X74783503Y-70999485D01*
X74582480Y-70959500D01*
X74377520Y-70959500D01*
X74176497Y-70999485D01*
X74001135Y-71072122D01*
X73327542Y-70398530D01*
X73317593Y-70386407D01*
X73269247Y-70346731D01*
X73214090Y-70317249D01*
X73154241Y-70299094D01*
X73107596Y-70294500D01*
X73092000Y-70292964D01*
X73076404Y-70294500D01*
X71496171Y-70294500D01*
X71432675Y-70231004D01*
X71352339Y-70177325D01*
X71328619Y-70167500D01*
X74738488Y-70167500D01*
X76092122Y-71521135D01*
X76019485Y-71696497D01*
X75979500Y-71897520D01*
X75979500Y-72102480D01*
X76019485Y-72303503D01*
X76097920Y-72492862D01*
X76211791Y-72663280D01*
X76356720Y-72808209D01*
X76527138Y-72922080D01*
X76716497Y-73000515D01*
X76917520Y-73040500D01*
X77122480Y-73040500D01*
X77323503Y-73000515D01*
X77512862Y-72922080D01*
X77683280Y-72808209D01*
X77828209Y-72663280D01*
X77942080Y-72492862D01*
X78020515Y-72303503D01*
X78060500Y-72102480D01*
X78060500Y-71897520D01*
X78020515Y-71696497D01*
X77942080Y-71507138D01*
X77828209Y-71336720D01*
X77683280Y-71191791D01*
X77512862Y-71077920D01*
X77323503Y-70999485D01*
X77122480Y-70959500D01*
X76917520Y-70959500D01*
X76716497Y-70999485D01*
X76541135Y-71072122D01*
X75105542Y-69636530D01*
X75095593Y-69624407D01*
X75047247Y-69584731D01*
X74992090Y-69555249D01*
X74932241Y-69537094D01*
X74885596Y-69532500D01*
X74870000Y-69530964D01*
X74854404Y-69532500D01*
X70734171Y-69532500D01*
X70670675Y-69469004D01*
X70590339Y-69415325D01*
X70566619Y-69405500D01*
X76516488Y-69405500D01*
X78632122Y-71521135D01*
X78559485Y-71696497D01*
X78519500Y-71897520D01*
X78519500Y-72102480D01*
X78559485Y-72303503D01*
X78637920Y-72492862D01*
X78751791Y-72663280D01*
X78896720Y-72808209D01*
X79067138Y-72922080D01*
X79256497Y-73000515D01*
X79457520Y-73040500D01*
X79662480Y-73040500D01*
X79863503Y-73000515D01*
X80052862Y-72922080D01*
X80223280Y-72808209D01*
X80368209Y-72663280D01*
X80482080Y-72492862D01*
X80560515Y-72303503D01*
X80600500Y-72102480D01*
X80600500Y-71897520D01*
X80560515Y-71696497D01*
X80482080Y-71507138D01*
X80368209Y-71336720D01*
X80223280Y-71191791D01*
X80052862Y-71077920D01*
X79863503Y-70999485D01*
X79662480Y-70959500D01*
X79457520Y-70959500D01*
X79256497Y-70999485D01*
X79081135Y-71072122D01*
X76883542Y-68874530D01*
X76873593Y-68862407D01*
X76825247Y-68822731D01*
X76770090Y-68793249D01*
X76710241Y-68775094D01*
X76663596Y-68770500D01*
X76648000Y-68768964D01*
X76632404Y-68770500D01*
X69972171Y-68770500D01*
X69908675Y-68707004D01*
X69828339Y-68653325D01*
X69804619Y-68643500D01*
X78294488Y-68643500D01*
X81172122Y-71521135D01*
X81099485Y-71696497D01*
X81059500Y-71897520D01*
X81059500Y-72102480D01*
X81099485Y-72303503D01*
X81177920Y-72492862D01*
X81291791Y-72663280D01*
X81436720Y-72808209D01*
X81607138Y-72922080D01*
X81796497Y-73000515D01*
X81997520Y-73040500D01*
X82202480Y-73040500D01*
X82403503Y-73000515D01*
X82592862Y-72922080D01*
X82763280Y-72808209D01*
X82908209Y-72663280D01*
X83022080Y-72492862D01*
X83073656Y-72368346D01*
X83532119Y-72368346D01*
X83625267Y-72577405D01*
X83757411Y-72764275D01*
X83923472Y-72921774D01*
X84117069Y-73043850D01*
X84271656Y-73107871D01*
X84449500Y-73071320D01*
X84449500Y-72190500D01*
X84830500Y-72190500D01*
X84830500Y-73071320D01*
X85008344Y-73107871D01*
X85162931Y-73043850D01*
X85356528Y-72921774D01*
X85522589Y-72764275D01*
X85654733Y-72577405D01*
X85747881Y-72368346D01*
X85712488Y-72190500D01*
X84830500Y-72190500D01*
X84449500Y-72190500D01*
X83567512Y-72190500D01*
X83532119Y-72368346D01*
X83073656Y-72368346D01*
X83100515Y-72303503D01*
X83140500Y-72102480D01*
X83140500Y-71897520D01*
X86139500Y-71897520D01*
X86139500Y-72102480D01*
X86179485Y-72303503D01*
X86257920Y-72492862D01*
X86371791Y-72663280D01*
X86516720Y-72808209D01*
X86687138Y-72922080D01*
X86876497Y-73000515D01*
X87077520Y-73040500D01*
X87282480Y-73040500D01*
X87483503Y-73000515D01*
X87672862Y-72922080D01*
X87843280Y-72808209D01*
X87988209Y-72663280D01*
X88102080Y-72492862D01*
X88180515Y-72303503D01*
X88220500Y-72102480D01*
X88220500Y-71897520D01*
X88679500Y-71897520D01*
X88679500Y-72102480D01*
X88719485Y-72303503D01*
X88797920Y-72492862D01*
X88911791Y-72663280D01*
X89056720Y-72808209D01*
X89227138Y-72922080D01*
X89416497Y-73000515D01*
X89617520Y-73040500D01*
X89822480Y-73040500D01*
X90023503Y-73000515D01*
X90212862Y-72922080D01*
X90383280Y-72808209D01*
X90528209Y-72663280D01*
X90642080Y-72492862D01*
X90720515Y-72303503D01*
X90760500Y-72102480D01*
X90760500Y-71897520D01*
X91219500Y-71897520D01*
X91219500Y-72102480D01*
X91259485Y-72303503D01*
X91337920Y-72492862D01*
X91451791Y-72663280D01*
X91596720Y-72808209D01*
X91767138Y-72922080D01*
X91956497Y-73000515D01*
X92157520Y-73040500D01*
X92362480Y-73040500D01*
X92563503Y-73000515D01*
X92752862Y-72922080D01*
X92923280Y-72808209D01*
X93068209Y-72663280D01*
X93182080Y-72492862D01*
X93260515Y-72303503D01*
X93300500Y-72102480D01*
X93300500Y-71897520D01*
X93759500Y-71897520D01*
X93759500Y-72102480D01*
X93799485Y-72303503D01*
X93877920Y-72492862D01*
X93991791Y-72663280D01*
X94136720Y-72808209D01*
X94307138Y-72922080D01*
X94496497Y-73000515D01*
X94697520Y-73040500D01*
X94902480Y-73040500D01*
X95103503Y-73000515D01*
X95292862Y-72922080D01*
X95463280Y-72808209D01*
X95608209Y-72663280D01*
X95722080Y-72492862D01*
X95800515Y-72303503D01*
X95840500Y-72102480D01*
X95840500Y-71897520D01*
X95800515Y-71696497D01*
X95722080Y-71507138D01*
X95608209Y-71336720D01*
X95463280Y-71191791D01*
X95292862Y-71077920D01*
X95103503Y-70999485D01*
X94902480Y-70959500D01*
X94697520Y-70959500D01*
X94496497Y-70999485D01*
X94307138Y-71077920D01*
X94136720Y-71191791D01*
X93991791Y-71336720D01*
X93877920Y-71507138D01*
X93799485Y-71696497D01*
X93759500Y-71897520D01*
X93300500Y-71897520D01*
X93260515Y-71696497D01*
X93182080Y-71507138D01*
X93068209Y-71336720D01*
X92923280Y-71191791D01*
X92752862Y-71077920D01*
X92563503Y-70999485D01*
X92362480Y-70959500D01*
X92157520Y-70959500D01*
X91956497Y-70999485D01*
X91767138Y-71077920D01*
X91596720Y-71191791D01*
X91451791Y-71336720D01*
X91337920Y-71507138D01*
X91259485Y-71696497D01*
X91219500Y-71897520D01*
X90760500Y-71897520D01*
X90720515Y-71696497D01*
X90642080Y-71507138D01*
X90528209Y-71336720D01*
X90383280Y-71191791D01*
X90212862Y-71077920D01*
X90023503Y-70999485D01*
X89822480Y-70959500D01*
X89617520Y-70959500D01*
X89416497Y-70999485D01*
X89227138Y-71077920D01*
X89056720Y-71191791D01*
X88911791Y-71336720D01*
X88797920Y-71507138D01*
X88719485Y-71696497D01*
X88679500Y-71897520D01*
X88220500Y-71897520D01*
X88180515Y-71696497D01*
X88102080Y-71507138D01*
X87988209Y-71336720D01*
X87843280Y-71191791D01*
X87672862Y-71077920D01*
X87483503Y-70999485D01*
X87282480Y-70959500D01*
X87077520Y-70959500D01*
X86876497Y-70999485D01*
X86687138Y-71077920D01*
X86516720Y-71191791D01*
X86371791Y-71336720D01*
X86257920Y-71507138D01*
X86179485Y-71696497D01*
X86139500Y-71897520D01*
X83140500Y-71897520D01*
X83100515Y-71696497D01*
X83073657Y-71631654D01*
X83532119Y-71631654D01*
X83567512Y-71809500D01*
X84449500Y-71809500D01*
X84449500Y-70928680D01*
X84830500Y-70928680D01*
X84830500Y-71809500D01*
X85712488Y-71809500D01*
X85747881Y-71631654D01*
X85654733Y-71422595D01*
X85522589Y-71235725D01*
X85356528Y-71078226D01*
X85162931Y-70956150D01*
X85008344Y-70892129D01*
X84830500Y-70928680D01*
X84449500Y-70928680D01*
X84271656Y-70892129D01*
X84117069Y-70956150D01*
X83923472Y-71078226D01*
X83757411Y-71235725D01*
X83625267Y-71422595D01*
X83532119Y-71631654D01*
X83073657Y-71631654D01*
X83022080Y-71507138D01*
X82908209Y-71336720D01*
X82763280Y-71191791D01*
X82592862Y-71077920D01*
X82403503Y-70999485D01*
X82202480Y-70959500D01*
X81997520Y-70959500D01*
X81796497Y-70999485D01*
X81621135Y-71072122D01*
X78661542Y-68112530D01*
X78651593Y-68100407D01*
X78603247Y-68060731D01*
X78548090Y-68031249D01*
X78488241Y-68013094D01*
X78441596Y-68008500D01*
X78426000Y-68006964D01*
X78410404Y-68008500D01*
X69210171Y-68008500D01*
X69146675Y-67945004D01*
X69066339Y-67891325D01*
X69042619Y-67881500D01*
X92772488Y-67881500D01*
X96412122Y-71521135D01*
X96339485Y-71696497D01*
X96299500Y-71897520D01*
X96299500Y-72102480D01*
X96339485Y-72303503D01*
X96417920Y-72492862D01*
X96531791Y-72663280D01*
X96676720Y-72808209D01*
X96847138Y-72922080D01*
X97036497Y-73000515D01*
X97237520Y-73040500D01*
X97442480Y-73040500D01*
X97643503Y-73000515D01*
X97832862Y-72922080D01*
X98003280Y-72808209D01*
X98148209Y-72663280D01*
X98262080Y-72492862D01*
X98340515Y-72303503D01*
X98380500Y-72102480D01*
X98380500Y-71897520D01*
X98839500Y-71897520D01*
X98839500Y-72102480D01*
X98879485Y-72303503D01*
X98957920Y-72492862D01*
X99071791Y-72663280D01*
X99216720Y-72808209D01*
X99387138Y-72922080D01*
X99576497Y-73000515D01*
X99777520Y-73040500D01*
X99982480Y-73040500D01*
X100183503Y-73000515D01*
X100372862Y-72922080D01*
X100543280Y-72808209D01*
X100688209Y-72663280D01*
X100802080Y-72492862D01*
X100880515Y-72303503D01*
X100920500Y-72102480D01*
X100920500Y-71897520D01*
X100880515Y-71696497D01*
X100802080Y-71507138D01*
X100688209Y-71336720D01*
X100543280Y-71191791D01*
X100372862Y-71077920D01*
X100183503Y-70999485D01*
X99982480Y-70959500D01*
X99777520Y-70959500D01*
X99576497Y-70999485D01*
X99387138Y-71077920D01*
X99216720Y-71191791D01*
X99071791Y-71336720D01*
X98957920Y-71507138D01*
X98879485Y-71696497D01*
X98839500Y-71897520D01*
X98380500Y-71897520D01*
X98340515Y-71696497D01*
X98262080Y-71507138D01*
X98148209Y-71336720D01*
X98003280Y-71191791D01*
X97832862Y-71077920D01*
X97643503Y-70999485D01*
X97442480Y-70959500D01*
X97237520Y-70959500D01*
X97036497Y-70999485D01*
X96861135Y-71072122D01*
X93139542Y-67350530D01*
X93129593Y-67338407D01*
X93081247Y-67298731D01*
X93026090Y-67269249D01*
X92966241Y-67251094D01*
X92919596Y-67246500D01*
X92904000Y-67244964D01*
X92888404Y-67246500D01*
X68575171Y-67246500D01*
X68511675Y-67183004D01*
X68431339Y-67129325D01*
X68342073Y-67092350D01*
X68247310Y-67073500D01*
X68150690Y-67073500D01*
X68055927Y-67092350D01*
X67966661Y-67129325D01*
X67886325Y-67183004D01*
X67818004Y-67251325D01*
X67764325Y-67331661D01*
X67727350Y-67420927D01*
X67708500Y-67515690D01*
X42462100Y-67515690D01*
X42462100Y-65737690D01*
X91076500Y-65737690D01*
X91076500Y-65834310D01*
X91095350Y-65929073D01*
X91132325Y-66018339D01*
X91186004Y-66098675D01*
X91254325Y-66166996D01*
X91334661Y-66220675D01*
X91423927Y-66257650D01*
X91518690Y-66276500D01*
X91615310Y-66276500D01*
X91710073Y-66257650D01*
X91799339Y-66220675D01*
X91879675Y-66166996D01*
X91943171Y-66103500D01*
X94610488Y-66103500D01*
X98315500Y-69808513D01*
X98315500Y-69898310D01*
X98334350Y-69993073D01*
X98371325Y-70082339D01*
X98425004Y-70162675D01*
X98493325Y-70230996D01*
X98573661Y-70284675D01*
X98662927Y-70321650D01*
X98757690Y-70340500D01*
X98854310Y-70340500D01*
X98949073Y-70321650D01*
X99038339Y-70284675D01*
X99118675Y-70230996D01*
X99186996Y-70162675D01*
X99240675Y-70082339D01*
X99277650Y-69993073D01*
X99296500Y-69898310D01*
X99296500Y-69801690D01*
X99277650Y-69706927D01*
X99240675Y-69617661D01*
X99186996Y-69537325D01*
X99118675Y-69469004D01*
X99038339Y-69415325D01*
X98949073Y-69378350D01*
X98854310Y-69359500D01*
X98764513Y-69359500D01*
X94977542Y-65572530D01*
X94967593Y-65560407D01*
X94919247Y-65520731D01*
X94864090Y-65491249D01*
X94804241Y-65473094D01*
X94757596Y-65468500D01*
X94742000Y-65466964D01*
X94726404Y-65468500D01*
X91943171Y-65468500D01*
X91879675Y-65405004D01*
X91799339Y-65351325D01*
X91710073Y-65314350D01*
X91615310Y-65295500D01*
X91518690Y-65295500D01*
X91423927Y-65314350D01*
X91334661Y-65351325D01*
X91254325Y-65405004D01*
X91186004Y-65473325D01*
X91132325Y-65553661D01*
X91095350Y-65642927D01*
X91076500Y-65737690D01*
X42462100Y-65737690D01*
X42462100Y-62689690D01*
X63390500Y-62689690D01*
X63390500Y-62786310D01*
X63409350Y-62881073D01*
X63446325Y-62970339D01*
X63500004Y-63050675D01*
X63568325Y-63118996D01*
X63648661Y-63172675D01*
X63737927Y-63209650D01*
X63832690Y-63228500D01*
X63929310Y-63228500D01*
X64024073Y-63209650D01*
X64028715Y-63207727D01*
X65677463Y-64856476D01*
X65687407Y-64868593D01*
X65722017Y-64896996D01*
X65735753Y-64908269D01*
X65790910Y-64937751D01*
X65850759Y-64955906D01*
X65913000Y-64962036D01*
X65928596Y-64960500D01*
X87761829Y-64960500D01*
X87825325Y-65023996D01*
X87905661Y-65077675D01*
X87994927Y-65114650D01*
X88089690Y-65133500D01*
X88186310Y-65133500D01*
X88281073Y-65114650D01*
X88370339Y-65077675D01*
X88450675Y-65023996D01*
X88518996Y-64955675D01*
X88572675Y-64875339D01*
X88609650Y-64786073D01*
X88628500Y-64691310D01*
X88628500Y-64594690D01*
X88609650Y-64499927D01*
X88572675Y-64410661D01*
X88518996Y-64330325D01*
X88450675Y-64262004D01*
X88370339Y-64208325D01*
X88281073Y-64171350D01*
X88186310Y-64152500D01*
X88089690Y-64152500D01*
X87994927Y-64171350D01*
X87905661Y-64208325D01*
X87825325Y-64262004D01*
X87761829Y-64325500D01*
X66044513Y-64325500D01*
X65424703Y-63705690D01*
X66438500Y-63705690D01*
X66438500Y-63802310D01*
X66457350Y-63897073D01*
X66494325Y-63986339D01*
X66548004Y-64066675D01*
X66616325Y-64134996D01*
X66696661Y-64188675D01*
X66785927Y-64225650D01*
X66880690Y-64244500D01*
X66977310Y-64244500D01*
X67072073Y-64225650D01*
X67161339Y-64188675D01*
X67241675Y-64134996D01*
X67305171Y-64071500D01*
X91358381Y-64071500D01*
X91334661Y-64081325D01*
X91254325Y-64135004D01*
X91186004Y-64203325D01*
X91132325Y-64283661D01*
X91095350Y-64372927D01*
X91076500Y-64467690D01*
X91076500Y-64564310D01*
X91095350Y-64659073D01*
X91132325Y-64748339D01*
X91186004Y-64828675D01*
X91254325Y-64896996D01*
X91334661Y-64950675D01*
X91423927Y-64987650D01*
X91518690Y-65006500D01*
X91615310Y-65006500D01*
X91710073Y-64987650D01*
X91799339Y-64950675D01*
X91879675Y-64896996D01*
X91943171Y-64833500D01*
X94804488Y-64833500D01*
X101492122Y-71521135D01*
X101419485Y-71696497D01*
X101379500Y-71897520D01*
X101379500Y-72102480D01*
X101419485Y-72303503D01*
X101497920Y-72492862D01*
X101611791Y-72663280D01*
X101756720Y-72808209D01*
X101927138Y-72922080D01*
X102116497Y-73000515D01*
X102317520Y-73040500D01*
X102522480Y-73040500D01*
X102723503Y-73000515D01*
X102912862Y-72922080D01*
X103083280Y-72808209D01*
X103228209Y-72663280D01*
X103342080Y-72492862D01*
X103420515Y-72303503D01*
X103460500Y-72102480D01*
X103460500Y-71897520D01*
X103919500Y-71897520D01*
X103919500Y-72102480D01*
X103959485Y-72303503D01*
X104037920Y-72492862D01*
X104151791Y-72663280D01*
X104296720Y-72808209D01*
X104467138Y-72922080D01*
X104656497Y-73000515D01*
X104857520Y-73040500D01*
X105062480Y-73040500D01*
X105263503Y-73000515D01*
X105452862Y-72922080D01*
X105623280Y-72808209D01*
X105768209Y-72663280D01*
X105882080Y-72492862D01*
X105960515Y-72303503D01*
X106000500Y-72102480D01*
X106000500Y-71897520D01*
X105960515Y-71696497D01*
X105882080Y-71507138D01*
X105768209Y-71336720D01*
X105623280Y-71191791D01*
X105452862Y-71077920D01*
X105263503Y-70999485D01*
X105062480Y-70959500D01*
X104857520Y-70959500D01*
X104656497Y-70999485D01*
X104467138Y-71077920D01*
X104296720Y-71191791D01*
X104151791Y-71336720D01*
X104037920Y-71507138D01*
X103959485Y-71696497D01*
X103919500Y-71897520D01*
X103460500Y-71897520D01*
X103420515Y-71696497D01*
X103342080Y-71507138D01*
X103228209Y-71336720D01*
X103083280Y-71191791D01*
X102912862Y-71077920D01*
X102723503Y-70999485D01*
X102522480Y-70959500D01*
X102317520Y-70959500D01*
X102116497Y-70999485D01*
X101941135Y-71072122D01*
X95171542Y-64302530D01*
X95161593Y-64290407D01*
X95113247Y-64250731D01*
X95058090Y-64221249D01*
X94998241Y-64203094D01*
X94951596Y-64198500D01*
X94936000Y-64196964D01*
X94920404Y-64198500D01*
X91943171Y-64198500D01*
X91879675Y-64135004D01*
X91799339Y-64081325D01*
X91775619Y-64071500D01*
X99122488Y-64071500D01*
X106572122Y-71521135D01*
X106499485Y-71696497D01*
X106459500Y-71897520D01*
X106459500Y-72102480D01*
X106499485Y-72303503D01*
X106577920Y-72492862D01*
X106691791Y-72663280D01*
X106836720Y-72808209D01*
X107007138Y-72922080D01*
X107196497Y-73000515D01*
X107397520Y-73040500D01*
X107602480Y-73040500D01*
X107803503Y-73000515D01*
X107992862Y-72922080D01*
X108163280Y-72808209D01*
X108308209Y-72663280D01*
X108422080Y-72492862D01*
X108500515Y-72303503D01*
X108540500Y-72102480D01*
X108540500Y-71897520D01*
X108999500Y-71897520D01*
X108999500Y-72102480D01*
X109039485Y-72303503D01*
X109117920Y-72492862D01*
X109231791Y-72663280D01*
X109376720Y-72808209D01*
X109547138Y-72922080D01*
X109736497Y-73000515D01*
X109937520Y-73040500D01*
X110142480Y-73040500D01*
X110343503Y-73000515D01*
X110532862Y-72922080D01*
X110703280Y-72808209D01*
X110848209Y-72663280D01*
X110962080Y-72492862D01*
X111040515Y-72303503D01*
X111080500Y-72102480D01*
X111080500Y-71897520D01*
X111539500Y-71897520D01*
X111539500Y-72102480D01*
X111579485Y-72303503D01*
X111657920Y-72492862D01*
X111771791Y-72663280D01*
X111916720Y-72808209D01*
X112087138Y-72922080D01*
X112276497Y-73000515D01*
X112477520Y-73040500D01*
X112682480Y-73040500D01*
X112883503Y-73000515D01*
X113072862Y-72922080D01*
X113243280Y-72808209D01*
X113388209Y-72663280D01*
X113502080Y-72492862D01*
X113580515Y-72303503D01*
X113620500Y-72102480D01*
X113620500Y-71897520D01*
X114079500Y-71897520D01*
X114079500Y-72102480D01*
X114119485Y-72303503D01*
X114197920Y-72492862D01*
X114311791Y-72663280D01*
X114456720Y-72808209D01*
X114627138Y-72922080D01*
X114816497Y-73000515D01*
X115017520Y-73040500D01*
X115222480Y-73040500D01*
X115423503Y-73000515D01*
X115612862Y-72922080D01*
X115783280Y-72808209D01*
X115928209Y-72663280D01*
X116042080Y-72492862D01*
X116120515Y-72303503D01*
X116160500Y-72102480D01*
X116160500Y-71897520D01*
X116619500Y-71897520D01*
X116619500Y-72102480D01*
X116659485Y-72303503D01*
X116737920Y-72492862D01*
X116851791Y-72663280D01*
X116996720Y-72808209D01*
X117167138Y-72922080D01*
X117356497Y-73000515D01*
X117557520Y-73040500D01*
X117762480Y-73040500D01*
X117963503Y-73000515D01*
X118152862Y-72922080D01*
X118323280Y-72808209D01*
X118468209Y-72663280D01*
X118582080Y-72492862D01*
X118660515Y-72303503D01*
X118700500Y-72102480D01*
X118700500Y-71897520D01*
X119159500Y-71897520D01*
X119159500Y-72102480D01*
X119199485Y-72303503D01*
X119277920Y-72492862D01*
X119391791Y-72663280D01*
X119536720Y-72808209D01*
X119707138Y-72922080D01*
X119896497Y-73000515D01*
X120097520Y-73040500D01*
X120302480Y-73040500D01*
X120503503Y-73000515D01*
X120692862Y-72922080D01*
X120863280Y-72808209D01*
X121008209Y-72663280D01*
X121122080Y-72492862D01*
X121200515Y-72303503D01*
X121240500Y-72102480D01*
X121240500Y-71897520D01*
X121699500Y-71897520D01*
X121699500Y-72102480D01*
X121739485Y-72303503D01*
X121817920Y-72492862D01*
X121931791Y-72663280D01*
X122076720Y-72808209D01*
X122247138Y-72922080D01*
X122436497Y-73000515D01*
X122637520Y-73040500D01*
X122842480Y-73040500D01*
X123043503Y-73000515D01*
X123232862Y-72922080D01*
X123403280Y-72808209D01*
X123548209Y-72663280D01*
X123662080Y-72492862D01*
X123740515Y-72303503D01*
X123780500Y-72102480D01*
X123780500Y-71897520D01*
X124239500Y-71897520D01*
X124239500Y-72102480D01*
X124279485Y-72303503D01*
X124357920Y-72492862D01*
X124471791Y-72663280D01*
X124616720Y-72808209D01*
X124787138Y-72922080D01*
X124976497Y-73000515D01*
X125177520Y-73040500D01*
X125382480Y-73040500D01*
X125583503Y-73000515D01*
X125772862Y-72922080D01*
X125943280Y-72808209D01*
X126088209Y-72663280D01*
X126202080Y-72492862D01*
X126280515Y-72303503D01*
X126320500Y-72102480D01*
X126320500Y-71897520D01*
X126779500Y-71897520D01*
X126779500Y-72102480D01*
X126819485Y-72303503D01*
X126897920Y-72492862D01*
X127011791Y-72663280D01*
X127156720Y-72808209D01*
X127327138Y-72922080D01*
X127516497Y-73000515D01*
X127717520Y-73040500D01*
X127922480Y-73040500D01*
X128123503Y-73000515D01*
X128312862Y-72922080D01*
X128483280Y-72808209D01*
X128628209Y-72663280D01*
X128742080Y-72492862D01*
X128820515Y-72303503D01*
X128860500Y-72102480D01*
X128860500Y-71897520D01*
X129319500Y-71897520D01*
X129319500Y-72102480D01*
X129359485Y-72303503D01*
X129437920Y-72492862D01*
X129551791Y-72663280D01*
X129696720Y-72808209D01*
X129867138Y-72922080D01*
X130056497Y-73000515D01*
X130257520Y-73040500D01*
X130462480Y-73040500D01*
X130663503Y-73000515D01*
X130852862Y-72922080D01*
X131023280Y-72808209D01*
X131168209Y-72663280D01*
X131282080Y-72492862D01*
X131360515Y-72303503D01*
X131400500Y-72102480D01*
X131400500Y-71897520D01*
X131859500Y-71897520D01*
X131859500Y-72102480D01*
X131899485Y-72303503D01*
X131977920Y-72492862D01*
X132091791Y-72663280D01*
X132236720Y-72808209D01*
X132407138Y-72922080D01*
X132596497Y-73000515D01*
X132797520Y-73040500D01*
X133002480Y-73040500D01*
X133203503Y-73000515D01*
X133392862Y-72922080D01*
X133563280Y-72808209D01*
X133708209Y-72663280D01*
X133822080Y-72492862D01*
X133900515Y-72303503D01*
X133940500Y-72102480D01*
X133940500Y-71897520D01*
X134399500Y-71897520D01*
X134399500Y-72102480D01*
X134439485Y-72303503D01*
X134517920Y-72492862D01*
X134631791Y-72663280D01*
X134776720Y-72808209D01*
X134947138Y-72922080D01*
X135136497Y-73000515D01*
X135337520Y-73040500D01*
X135542480Y-73040500D01*
X135743503Y-73000515D01*
X135932862Y-72922080D01*
X136103280Y-72808209D01*
X136248209Y-72663280D01*
X136362080Y-72492862D01*
X136440515Y-72303503D01*
X136480500Y-72102480D01*
X136480500Y-71897520D01*
X136939500Y-71897520D01*
X136939500Y-72102480D01*
X136979485Y-72303503D01*
X137057920Y-72492862D01*
X137171791Y-72663280D01*
X137316720Y-72808209D01*
X137487138Y-72922080D01*
X137676497Y-73000515D01*
X137877520Y-73040500D01*
X138082480Y-73040500D01*
X138283503Y-73000515D01*
X138472862Y-72922080D01*
X138643280Y-72808209D01*
X138788209Y-72663280D01*
X138902080Y-72492862D01*
X138980515Y-72303503D01*
X139020500Y-72102480D01*
X139020500Y-71897520D01*
X139479500Y-71897520D01*
X139479500Y-72102480D01*
X139519485Y-72303503D01*
X139597920Y-72492862D01*
X139711791Y-72663280D01*
X139856720Y-72808209D01*
X140027138Y-72922080D01*
X140216497Y-73000515D01*
X140417520Y-73040500D01*
X140622480Y-73040500D01*
X140823503Y-73000515D01*
X141012862Y-72922080D01*
X141183280Y-72808209D01*
X141328209Y-72663280D01*
X141442080Y-72492862D01*
X141520515Y-72303503D01*
X141560500Y-72102480D01*
X141560500Y-71897520D01*
X141520515Y-71696497D01*
X141442080Y-71507138D01*
X141328209Y-71336720D01*
X141183280Y-71191791D01*
X141012862Y-71077920D01*
X140823503Y-70999485D01*
X140622480Y-70959500D01*
X140417520Y-70959500D01*
X140216497Y-70999485D01*
X140027138Y-71077920D01*
X139856720Y-71191791D01*
X139711791Y-71336720D01*
X139597920Y-71507138D01*
X139519485Y-71696497D01*
X139479500Y-71897520D01*
X139020500Y-71897520D01*
X138980515Y-71696497D01*
X138902080Y-71507138D01*
X138788209Y-71336720D01*
X138643280Y-71191791D01*
X138472862Y-71077920D01*
X138283503Y-70999485D01*
X138082480Y-70959500D01*
X137877520Y-70959500D01*
X137676497Y-70999485D01*
X137487138Y-71077920D01*
X137316720Y-71191791D01*
X137171791Y-71336720D01*
X137057920Y-71507138D01*
X136979485Y-71696497D01*
X136939500Y-71897520D01*
X136480500Y-71897520D01*
X136440515Y-71696497D01*
X136362080Y-71507138D01*
X136248209Y-71336720D01*
X136103280Y-71191791D01*
X135932862Y-71077920D01*
X135743503Y-70999485D01*
X135542480Y-70959500D01*
X135337520Y-70959500D01*
X135136497Y-70999485D01*
X134947138Y-71077920D01*
X134776720Y-71191791D01*
X134631791Y-71336720D01*
X134517920Y-71507138D01*
X134439485Y-71696497D01*
X134399500Y-71897520D01*
X133940500Y-71897520D01*
X133900515Y-71696497D01*
X133822080Y-71507138D01*
X133708209Y-71336720D01*
X133563280Y-71191791D01*
X133392862Y-71077920D01*
X133203503Y-70999485D01*
X133002480Y-70959500D01*
X132797520Y-70959500D01*
X132596497Y-70999485D01*
X132407138Y-71077920D01*
X132236720Y-71191791D01*
X132091791Y-71336720D01*
X131977920Y-71507138D01*
X131899485Y-71696497D01*
X131859500Y-71897520D01*
X131400500Y-71897520D01*
X131360515Y-71696497D01*
X131282080Y-71507138D01*
X131168209Y-71336720D01*
X131023280Y-71191791D01*
X130852862Y-71077920D01*
X130663503Y-70999485D01*
X130462480Y-70959500D01*
X130257520Y-70959500D01*
X130056497Y-70999485D01*
X129867138Y-71077920D01*
X129696720Y-71191791D01*
X129551791Y-71336720D01*
X129437920Y-71507138D01*
X129359485Y-71696497D01*
X129319500Y-71897520D01*
X128860500Y-71897520D01*
X128820515Y-71696497D01*
X128742080Y-71507138D01*
X128628209Y-71336720D01*
X128483280Y-71191791D01*
X128312862Y-71077920D01*
X128123503Y-70999485D01*
X127922480Y-70959500D01*
X127717520Y-70959500D01*
X127516497Y-70999485D01*
X127327138Y-71077920D01*
X127156720Y-71191791D01*
X127011791Y-71336720D01*
X126897920Y-71507138D01*
X126819485Y-71696497D01*
X126779500Y-71897520D01*
X126320500Y-71897520D01*
X126280515Y-71696497D01*
X126202080Y-71507138D01*
X126088209Y-71336720D01*
X125943280Y-71191791D01*
X125772862Y-71077920D01*
X125583503Y-70999485D01*
X125382480Y-70959500D01*
X125177520Y-70959500D01*
X124976497Y-70999485D01*
X124787138Y-71077920D01*
X124616720Y-71191791D01*
X124471791Y-71336720D01*
X124357920Y-71507138D01*
X124279485Y-71696497D01*
X124239500Y-71897520D01*
X123780500Y-71897520D01*
X123740515Y-71696497D01*
X123662080Y-71507138D01*
X123548209Y-71336720D01*
X123403280Y-71191791D01*
X123232862Y-71077920D01*
X123043503Y-70999485D01*
X122842480Y-70959500D01*
X122637520Y-70959500D01*
X122436497Y-70999485D01*
X122247138Y-71077920D01*
X122076720Y-71191791D01*
X121931791Y-71336720D01*
X121817920Y-71507138D01*
X121739485Y-71696497D01*
X121699500Y-71897520D01*
X121240500Y-71897520D01*
X121200515Y-71696497D01*
X121122080Y-71507138D01*
X121008209Y-71336720D01*
X120863280Y-71191791D01*
X120692862Y-71077920D01*
X120503503Y-70999485D01*
X120302480Y-70959500D01*
X120097520Y-70959500D01*
X119896497Y-70999485D01*
X119707138Y-71077920D01*
X119536720Y-71191791D01*
X119391791Y-71336720D01*
X119277920Y-71507138D01*
X119199485Y-71696497D01*
X119159500Y-71897520D01*
X118700500Y-71897520D01*
X118660515Y-71696497D01*
X118582080Y-71507138D01*
X118468209Y-71336720D01*
X118323280Y-71191791D01*
X118152862Y-71077920D01*
X117963503Y-70999485D01*
X117762480Y-70959500D01*
X117557520Y-70959500D01*
X117356497Y-70999485D01*
X117167138Y-71077920D01*
X116996720Y-71191791D01*
X116851791Y-71336720D01*
X116737920Y-71507138D01*
X116659485Y-71696497D01*
X116619500Y-71897520D01*
X116160500Y-71897520D01*
X116120515Y-71696497D01*
X116042080Y-71507138D01*
X115928209Y-71336720D01*
X115783280Y-71191791D01*
X115612862Y-71077920D01*
X115423503Y-70999485D01*
X115222480Y-70959500D01*
X115017520Y-70959500D01*
X114816497Y-70999485D01*
X114627138Y-71077920D01*
X114456720Y-71191791D01*
X114311791Y-71336720D01*
X114197920Y-71507138D01*
X114119485Y-71696497D01*
X114079500Y-71897520D01*
X113620500Y-71897520D01*
X113580515Y-71696497D01*
X113502080Y-71507138D01*
X113388209Y-71336720D01*
X113243280Y-71191791D01*
X113072862Y-71077920D01*
X112883503Y-70999485D01*
X112682480Y-70959500D01*
X112477520Y-70959500D01*
X112276497Y-70999485D01*
X112087138Y-71077920D01*
X111916720Y-71191791D01*
X111771791Y-71336720D01*
X111657920Y-71507138D01*
X111579485Y-71696497D01*
X111539500Y-71897520D01*
X111080500Y-71897520D01*
X111040515Y-71696497D01*
X110962080Y-71507138D01*
X110848209Y-71336720D01*
X110703280Y-71191791D01*
X110532862Y-71077920D01*
X110343503Y-70999485D01*
X110142480Y-70959500D01*
X109937520Y-70959500D01*
X109736497Y-70999485D01*
X109547138Y-71077920D01*
X109376720Y-71191791D01*
X109231791Y-71336720D01*
X109117920Y-71507138D01*
X109039485Y-71696497D01*
X108999500Y-71897520D01*
X108540500Y-71897520D01*
X108500515Y-71696497D01*
X108422080Y-71507138D01*
X108308209Y-71336720D01*
X108163280Y-71191791D01*
X107992862Y-71077920D01*
X107803503Y-70999485D01*
X107602480Y-70959500D01*
X107397520Y-70959500D01*
X107196497Y-70999485D01*
X107021135Y-71072122D01*
X99489542Y-63540530D01*
X99479593Y-63528407D01*
X99431247Y-63488731D01*
X99376090Y-63459249D01*
X99316241Y-63441094D01*
X99269596Y-63436500D01*
X99254000Y-63434964D01*
X99238404Y-63436500D01*
X67305171Y-63436500D01*
X67241675Y-63373004D01*
X67161339Y-63319325D01*
X67072073Y-63282350D01*
X66977310Y-63263500D01*
X66880690Y-63263500D01*
X66785927Y-63282350D01*
X66696661Y-63319325D01*
X66616325Y-63373004D01*
X66548004Y-63441325D01*
X66494325Y-63521661D01*
X66457350Y-63610927D01*
X66438500Y-63705690D01*
X65424703Y-63705690D01*
X64362262Y-62643250D01*
X64352650Y-62594927D01*
X64315675Y-62505661D01*
X64261996Y-62425325D01*
X64193675Y-62357004D01*
X64113339Y-62303325D01*
X64024073Y-62266350D01*
X63929310Y-62247500D01*
X63832690Y-62247500D01*
X63737927Y-62266350D01*
X63648661Y-62303325D01*
X63568325Y-62357004D01*
X63500004Y-62425325D01*
X63446325Y-62505661D01*
X63409350Y-62594927D01*
X63390500Y-62689690D01*
X42462100Y-62689690D01*
X42462100Y-55526890D01*
X76319100Y-55526890D01*
X76319100Y-55623510D01*
X76337950Y-55718273D01*
X76374925Y-55807539D01*
X76428604Y-55887875D01*
X76496925Y-55956196D01*
X76577261Y-56009875D01*
X76666527Y-56046850D01*
X76761290Y-56065700D01*
X76857910Y-56065700D01*
X76952673Y-56046850D01*
X77041939Y-56009875D01*
X77103262Y-55968900D01*
X78236829Y-55968900D01*
X78300325Y-56032396D01*
X78380661Y-56086075D01*
X78469927Y-56123050D01*
X78564690Y-56141900D01*
X78661310Y-56141900D01*
X78756073Y-56123050D01*
X78845339Y-56086075D01*
X78925675Y-56032396D01*
X78993996Y-55964075D01*
X79047675Y-55883739D01*
X79084650Y-55794473D01*
X79103500Y-55699710D01*
X79103500Y-55603090D01*
X79084650Y-55508327D01*
X79047675Y-55419061D01*
X78993996Y-55338725D01*
X78925675Y-55270404D01*
X78845339Y-55216725D01*
X78756073Y-55179750D01*
X78661310Y-55160900D01*
X78564690Y-55160900D01*
X78469927Y-55179750D01*
X78380661Y-55216725D01*
X78300325Y-55270404D01*
X78236829Y-55333900D01*
X77238287Y-55333900D01*
X77190596Y-55262525D01*
X77122275Y-55194204D01*
X77041939Y-55140525D01*
X76952673Y-55103550D01*
X76857910Y-55084700D01*
X76761290Y-55084700D01*
X76666527Y-55103550D01*
X76577261Y-55140525D01*
X76496925Y-55194204D01*
X76428604Y-55262525D01*
X76374925Y-55342861D01*
X76337950Y-55432127D01*
X76319100Y-55526890D01*
X42462100Y-55526890D01*
X42462100Y-54460090D01*
X57878700Y-54460090D01*
X57878700Y-54556710D01*
X57897550Y-54651473D01*
X57934525Y-54740739D01*
X57988204Y-54821075D01*
X58056525Y-54889396D01*
X58136861Y-54943075D01*
X58226127Y-54980050D01*
X58320890Y-54998900D01*
X58417510Y-54998900D01*
X58512273Y-54980050D01*
X58601539Y-54943075D01*
X58681875Y-54889396D01*
X58750196Y-54821075D01*
X58803875Y-54740739D01*
X58840850Y-54651473D01*
X58859700Y-54556710D01*
X58859700Y-54460090D01*
X58840850Y-54365327D01*
X58803875Y-54276061D01*
X58750196Y-54195725D01*
X58712100Y-54157629D01*
X58712100Y-53004971D01*
X58775596Y-52941475D01*
X58829275Y-52861139D01*
X58866250Y-52771873D01*
X58885100Y-52677110D01*
X58885100Y-52580490D01*
X58866250Y-52485727D01*
X58829275Y-52396461D01*
X58775596Y-52316125D01*
X58707275Y-52247804D01*
X58626939Y-52194125D01*
X58537673Y-52157150D01*
X58442910Y-52138300D01*
X58346290Y-52138300D01*
X58251527Y-52157150D01*
X58162261Y-52194125D01*
X58081925Y-52247804D01*
X58013604Y-52316125D01*
X57959925Y-52396461D01*
X57922950Y-52485727D01*
X57904100Y-52580490D01*
X57904100Y-52677110D01*
X57922950Y-52771873D01*
X57959925Y-52861139D01*
X58013604Y-52941475D01*
X58077100Y-53004971D01*
X58077101Y-54113656D01*
X58056525Y-54127404D01*
X57988204Y-54195725D01*
X57934525Y-54276061D01*
X57897550Y-54365327D01*
X57878700Y-54460090D01*
X42462100Y-54460090D01*
X42462100Y-50058000D01*
X82378579Y-50058000D01*
X82378579Y-52558000D01*
X82382257Y-52595344D01*
X82393150Y-52631254D01*
X82410839Y-52664348D01*
X82434645Y-52693355D01*
X82463652Y-52717161D01*
X82496746Y-52734850D01*
X82532656Y-52745743D01*
X82570000Y-52749421D01*
X83553301Y-52749421D01*
X83553300Y-54360829D01*
X83489804Y-54424325D01*
X83436125Y-54504661D01*
X83399150Y-54593927D01*
X83380300Y-54688690D01*
X83380300Y-54785310D01*
X83399150Y-54880073D01*
X83436125Y-54969339D01*
X83489804Y-55049675D01*
X83558125Y-55117996D01*
X83638461Y-55171675D01*
X83727727Y-55208650D01*
X83822490Y-55227500D01*
X83919110Y-55227500D01*
X84013873Y-55208650D01*
X84103139Y-55171675D01*
X84183475Y-55117996D01*
X84251796Y-55049675D01*
X84305475Y-54969339D01*
X84342450Y-54880073D01*
X84361300Y-54785310D01*
X84361300Y-54688690D01*
X84342450Y-54593927D01*
X84305475Y-54504661D01*
X84251796Y-54424325D01*
X84188300Y-54360829D01*
X84188300Y-52749421D01*
X85070000Y-52749421D01*
X85107344Y-52745743D01*
X85143254Y-52734850D01*
X85176348Y-52717161D01*
X85205355Y-52693355D01*
X85229161Y-52664348D01*
X85246850Y-52631254D01*
X85257743Y-52595344D01*
X85261421Y-52558000D01*
X85261421Y-50058000D01*
X85257743Y-50020656D01*
X85246850Y-49984746D01*
X85229161Y-49951652D01*
X85205355Y-49922645D01*
X85176348Y-49898839D01*
X85143254Y-49881150D01*
X85107344Y-49870257D01*
X85070000Y-49866579D01*
X82570000Y-49866579D01*
X82532656Y-49870257D01*
X82496746Y-49881150D01*
X82463652Y-49898839D01*
X82434645Y-49922645D01*
X82410839Y-49951652D01*
X82393150Y-49984746D01*
X82382257Y-50020656D01*
X82378579Y-50058000D01*
X42462100Y-50058000D01*
X42462100Y-48465690D01*
X89679500Y-48465690D01*
X89679500Y-48562310D01*
X89698350Y-48657073D01*
X89735325Y-48746339D01*
X89789004Y-48826675D01*
X89857325Y-48894996D01*
X89937661Y-48948675D01*
X90026927Y-48985650D01*
X90121690Y-49004500D01*
X90218310Y-49004500D01*
X90313073Y-48985650D01*
X90402339Y-48948675D01*
X90482675Y-48894996D01*
X90546171Y-48831500D01*
X90662404Y-48831500D01*
X90678000Y-48833036D01*
X90693596Y-48831500D01*
X90740241Y-48826906D01*
X90800090Y-48808751D01*
X90855247Y-48779269D01*
X90903593Y-48739593D01*
X90913542Y-48727470D01*
X91906513Y-47734500D01*
X91996310Y-47734500D01*
X92091073Y-47715650D01*
X92180339Y-47678675D01*
X92260675Y-47624996D01*
X92328996Y-47556675D01*
X92382675Y-47476339D01*
X92419650Y-47387073D01*
X92438500Y-47292310D01*
X92438500Y-47195690D01*
X92419650Y-47100927D01*
X92382675Y-47011661D01*
X92328996Y-46931325D01*
X92260675Y-46863004D01*
X92180339Y-46809325D01*
X92091073Y-46772350D01*
X91996310Y-46753500D01*
X91899690Y-46753500D01*
X91804927Y-46772350D01*
X91715661Y-46809325D01*
X91635325Y-46863004D01*
X91567004Y-46931325D01*
X91513325Y-47011661D01*
X91476350Y-47100927D01*
X91457500Y-47195690D01*
X91457500Y-47285487D01*
X90546488Y-48196500D01*
X90546171Y-48196500D01*
X90482675Y-48133004D01*
X90402339Y-48079325D01*
X90313073Y-48042350D01*
X90218310Y-48023500D01*
X90121690Y-48023500D01*
X90026927Y-48042350D01*
X89937661Y-48079325D01*
X89857325Y-48133004D01*
X89789004Y-48201325D01*
X89735325Y-48281661D01*
X89698350Y-48370927D01*
X89679500Y-48465690D01*
X42462100Y-48465690D01*
X42462100Y-43854000D01*
X43662579Y-43854000D01*
X43662579Y-45554000D01*
X43666257Y-45591344D01*
X43677150Y-45627254D01*
X43694839Y-45660348D01*
X43718645Y-45689355D01*
X43747652Y-45713161D01*
X43780746Y-45730850D01*
X43816656Y-45741743D01*
X43854000Y-45745421D01*
X45554000Y-45745421D01*
X45591344Y-45741743D01*
X45627254Y-45730850D01*
X45660348Y-45713161D01*
X45689355Y-45689355D01*
X45713161Y-45660348D01*
X45730850Y-45627254D01*
X45741743Y-45591344D01*
X45745421Y-45554000D01*
X45745421Y-44601520D01*
X46203500Y-44601520D01*
X46203500Y-44806480D01*
X46243485Y-45007503D01*
X46321920Y-45196862D01*
X46435791Y-45367280D01*
X46580720Y-45512209D01*
X46751138Y-45626080D01*
X46940497Y-45704515D01*
X47141520Y-45744500D01*
X47346480Y-45744500D01*
X47547503Y-45704515D01*
X47736862Y-45626080D01*
X47907280Y-45512209D01*
X48052209Y-45367280D01*
X48166080Y-45196862D01*
X48244515Y-45007503D01*
X48284500Y-44806480D01*
X48284500Y-44601520D01*
X48743500Y-44601520D01*
X48743500Y-44806480D01*
X48783485Y-45007503D01*
X48861920Y-45196862D01*
X48975791Y-45367280D01*
X49120720Y-45512209D01*
X49291138Y-45626080D01*
X49480497Y-45704515D01*
X49681520Y-45744500D01*
X49886480Y-45744500D01*
X50087503Y-45704515D01*
X50276862Y-45626080D01*
X50447280Y-45512209D01*
X50592209Y-45367280D01*
X50706080Y-45196862D01*
X50784515Y-45007503D01*
X50824500Y-44806480D01*
X50824500Y-44601520D01*
X51283500Y-44601520D01*
X51283500Y-44806480D01*
X51323485Y-45007503D01*
X51401920Y-45196862D01*
X51515791Y-45367280D01*
X51660720Y-45512209D01*
X51831138Y-45626080D01*
X52020497Y-45704515D01*
X52221520Y-45744500D01*
X52426480Y-45744500D01*
X52627503Y-45704515D01*
X52816862Y-45626080D01*
X52987280Y-45512209D01*
X53132209Y-45367280D01*
X53246080Y-45196862D01*
X53324515Y-45007503D01*
X53364500Y-44806480D01*
X53364500Y-44601520D01*
X53823500Y-44601520D01*
X53823500Y-44806480D01*
X53863485Y-45007503D01*
X53941920Y-45196862D01*
X54055791Y-45367280D01*
X54200720Y-45512209D01*
X54371138Y-45626080D01*
X54560497Y-45704515D01*
X54761520Y-45744500D01*
X54966480Y-45744500D01*
X55167503Y-45704515D01*
X55356862Y-45626080D01*
X55527280Y-45512209D01*
X55672209Y-45367280D01*
X55786080Y-45196862D01*
X55864515Y-45007503D01*
X55904500Y-44806480D01*
X55904500Y-44601520D01*
X56363500Y-44601520D01*
X56363500Y-44806480D01*
X56403485Y-45007503D01*
X56481920Y-45196862D01*
X56595791Y-45367280D01*
X56740720Y-45512209D01*
X56911138Y-45626080D01*
X57100497Y-45704515D01*
X57301520Y-45744500D01*
X57506480Y-45744500D01*
X57707503Y-45704515D01*
X57896862Y-45626080D01*
X58067280Y-45512209D01*
X58212209Y-45367280D01*
X58326080Y-45196862D01*
X58404515Y-45007503D01*
X58444500Y-44806480D01*
X58444500Y-44601520D01*
X58903500Y-44601520D01*
X58903500Y-44806480D01*
X58943485Y-45007503D01*
X59021920Y-45196862D01*
X59135791Y-45367280D01*
X59280720Y-45512209D01*
X59451138Y-45626080D01*
X59640497Y-45704515D01*
X59841520Y-45744500D01*
X60046480Y-45744500D01*
X60247503Y-45704515D01*
X60436862Y-45626080D01*
X60607280Y-45512209D01*
X60752209Y-45367280D01*
X60866080Y-45196862D01*
X60944515Y-45007503D01*
X60984500Y-44806480D01*
X60984500Y-44601520D01*
X61443500Y-44601520D01*
X61443500Y-44806480D01*
X61483485Y-45007503D01*
X61561920Y-45196862D01*
X61675791Y-45367280D01*
X61820720Y-45512209D01*
X61991138Y-45626080D01*
X62180497Y-45704515D01*
X62381520Y-45744500D01*
X62586480Y-45744500D01*
X62787503Y-45704515D01*
X62976862Y-45626080D01*
X63147280Y-45512209D01*
X63292209Y-45367280D01*
X63406080Y-45196862D01*
X63484515Y-45007503D01*
X63524500Y-44806480D01*
X63524500Y-44601520D01*
X63484515Y-44400497D01*
X63406080Y-44211138D01*
X63292209Y-44040720D01*
X63147280Y-43895791D01*
X62976862Y-43781920D01*
X62787503Y-43703485D01*
X62586480Y-43663500D01*
X62381520Y-43663500D01*
X62180497Y-43703485D01*
X61991138Y-43781920D01*
X61820720Y-43895791D01*
X61675791Y-44040720D01*
X61561920Y-44211138D01*
X61483485Y-44400497D01*
X61443500Y-44601520D01*
X60984500Y-44601520D01*
X60944515Y-44400497D01*
X60866080Y-44211138D01*
X60752209Y-44040720D01*
X60607280Y-43895791D01*
X60436862Y-43781920D01*
X60247503Y-43703485D01*
X60046480Y-43663500D01*
X59841520Y-43663500D01*
X59640497Y-43703485D01*
X59451138Y-43781920D01*
X59280720Y-43895791D01*
X59135791Y-44040720D01*
X59021920Y-44211138D01*
X58943485Y-44400497D01*
X58903500Y-44601520D01*
X58444500Y-44601520D01*
X58404515Y-44400497D01*
X58326080Y-44211138D01*
X58212209Y-44040720D01*
X58067280Y-43895791D01*
X57896862Y-43781920D01*
X57707503Y-43703485D01*
X57506480Y-43663500D01*
X57301520Y-43663500D01*
X57100497Y-43703485D01*
X56911138Y-43781920D01*
X56740720Y-43895791D01*
X56595791Y-44040720D01*
X56481920Y-44211138D01*
X56403485Y-44400497D01*
X56363500Y-44601520D01*
X55904500Y-44601520D01*
X55864515Y-44400497D01*
X55786080Y-44211138D01*
X55672209Y-44040720D01*
X55527280Y-43895791D01*
X55356862Y-43781920D01*
X55167503Y-43703485D01*
X54966480Y-43663500D01*
X54761520Y-43663500D01*
X54560497Y-43703485D01*
X54371138Y-43781920D01*
X54200720Y-43895791D01*
X54055791Y-44040720D01*
X53941920Y-44211138D01*
X53863485Y-44400497D01*
X53823500Y-44601520D01*
X53364500Y-44601520D01*
X53324515Y-44400497D01*
X53246080Y-44211138D01*
X53132209Y-44040720D01*
X52987280Y-43895791D01*
X52816862Y-43781920D01*
X52627503Y-43703485D01*
X52426480Y-43663500D01*
X52221520Y-43663500D01*
X52020497Y-43703485D01*
X51831138Y-43781920D01*
X51660720Y-43895791D01*
X51515791Y-44040720D01*
X51401920Y-44211138D01*
X51323485Y-44400497D01*
X51283500Y-44601520D01*
X50824500Y-44601520D01*
X50784515Y-44400497D01*
X50706080Y-44211138D01*
X50592209Y-44040720D01*
X50447280Y-43895791D01*
X50276862Y-43781920D01*
X50087503Y-43703485D01*
X49886480Y-43663500D01*
X49681520Y-43663500D01*
X49480497Y-43703485D01*
X49291138Y-43781920D01*
X49120720Y-43895791D01*
X48975791Y-44040720D01*
X48861920Y-44211138D01*
X48783485Y-44400497D01*
X48743500Y-44601520D01*
X48284500Y-44601520D01*
X48244515Y-44400497D01*
X48166080Y-44211138D01*
X48052209Y-44040720D01*
X47907280Y-43895791D01*
X47736862Y-43781920D01*
X47547503Y-43703485D01*
X47346480Y-43663500D01*
X47141520Y-43663500D01*
X46940497Y-43703485D01*
X46751138Y-43781920D01*
X46580720Y-43895791D01*
X46435791Y-44040720D01*
X46321920Y-44211138D01*
X46243485Y-44400497D01*
X46203500Y-44601520D01*
X45745421Y-44601520D01*
X45745421Y-43854000D01*
X45741743Y-43816656D01*
X45730850Y-43780746D01*
X45713161Y-43747652D01*
X45689355Y-43718645D01*
X45660348Y-43694839D01*
X45627254Y-43677150D01*
X45591344Y-43666257D01*
X45554000Y-43662579D01*
X43854000Y-43662579D01*
X43816656Y-43666257D01*
X43780746Y-43677150D01*
X43747652Y-43694839D01*
X43718645Y-43718645D01*
X43694839Y-43747652D01*
X43677150Y-43780746D01*
X43666257Y-43816656D01*
X43662579Y-43854000D01*
X42462100Y-43854000D01*
X42462100Y-42061520D01*
X43663500Y-42061520D01*
X43663500Y-42266480D01*
X43703485Y-42467503D01*
X43781920Y-42656862D01*
X43895791Y-42827280D01*
X44040720Y-42972209D01*
X44211138Y-43086080D01*
X44400497Y-43164515D01*
X44601520Y-43204500D01*
X44806480Y-43204500D01*
X45007503Y-43164515D01*
X45196862Y-43086080D01*
X45367280Y-42972209D01*
X45512209Y-42827280D01*
X45626080Y-42656862D01*
X45704515Y-42467503D01*
X45744500Y-42266480D01*
X45744500Y-42061520D01*
X46203500Y-42061520D01*
X46203500Y-42266480D01*
X46243485Y-42467503D01*
X46321920Y-42656862D01*
X46435791Y-42827280D01*
X46580720Y-42972209D01*
X46751138Y-43086080D01*
X46940497Y-43164515D01*
X47141520Y-43204500D01*
X47346480Y-43204500D01*
X47547503Y-43164515D01*
X47736862Y-43086080D01*
X47907280Y-42972209D01*
X48052209Y-42827280D01*
X48166080Y-42656862D01*
X48244515Y-42467503D01*
X48284500Y-42266480D01*
X48284500Y-42061520D01*
X48743500Y-42061520D01*
X48743500Y-42266480D01*
X48783485Y-42467503D01*
X48861920Y-42656862D01*
X48975791Y-42827280D01*
X49120720Y-42972209D01*
X49291138Y-43086080D01*
X49480497Y-43164515D01*
X49681520Y-43204500D01*
X49886480Y-43204500D01*
X50087503Y-43164515D01*
X50276862Y-43086080D01*
X50447280Y-42972209D01*
X50592209Y-42827280D01*
X50706080Y-42656862D01*
X50784515Y-42467503D01*
X50824500Y-42266480D01*
X50824500Y-42061520D01*
X51283500Y-42061520D01*
X51283500Y-42266480D01*
X51323485Y-42467503D01*
X51401920Y-42656862D01*
X51515791Y-42827280D01*
X51660720Y-42972209D01*
X51831138Y-43086080D01*
X52020497Y-43164515D01*
X52221520Y-43204500D01*
X52426480Y-43204500D01*
X52627503Y-43164515D01*
X52816862Y-43086080D01*
X52987280Y-42972209D01*
X53132209Y-42827280D01*
X53246080Y-42656862D01*
X53324515Y-42467503D01*
X53364500Y-42266480D01*
X53364500Y-42061520D01*
X53823500Y-42061520D01*
X53823500Y-42266480D01*
X53863485Y-42467503D01*
X53941920Y-42656862D01*
X54055791Y-42827280D01*
X54200720Y-42972209D01*
X54371138Y-43086080D01*
X54560497Y-43164515D01*
X54761520Y-43204500D01*
X54966480Y-43204500D01*
X55167503Y-43164515D01*
X55356862Y-43086080D01*
X55527280Y-42972209D01*
X55672209Y-42827280D01*
X55786080Y-42656862D01*
X55864515Y-42467503D01*
X55904500Y-42266480D01*
X55904500Y-42061520D01*
X56363500Y-42061520D01*
X56363500Y-42266480D01*
X56403485Y-42467503D01*
X56481920Y-42656862D01*
X56595791Y-42827280D01*
X56740720Y-42972209D01*
X56911138Y-43086080D01*
X57100497Y-43164515D01*
X57301520Y-43204500D01*
X57506480Y-43204500D01*
X57707503Y-43164515D01*
X57896862Y-43086080D01*
X58067280Y-42972209D01*
X58212209Y-42827280D01*
X58326080Y-42656862D01*
X58404515Y-42467503D01*
X58444500Y-42266480D01*
X58444500Y-42061520D01*
X58903500Y-42061520D01*
X58903500Y-42266480D01*
X58943485Y-42467503D01*
X59021920Y-42656862D01*
X59135791Y-42827280D01*
X59280720Y-42972209D01*
X59451138Y-43086080D01*
X59640497Y-43164515D01*
X59841520Y-43204500D01*
X60046480Y-43204500D01*
X60247503Y-43164515D01*
X60436862Y-43086080D01*
X60607280Y-42972209D01*
X60752209Y-42827280D01*
X60866080Y-42656862D01*
X60944515Y-42467503D01*
X60984500Y-42266480D01*
X60984500Y-42061520D01*
X61443500Y-42061520D01*
X61443500Y-42266480D01*
X61483485Y-42467503D01*
X61561920Y-42656862D01*
X61675791Y-42827280D01*
X61820720Y-42972209D01*
X61991138Y-43086080D01*
X62180497Y-43164515D01*
X62381520Y-43204500D01*
X62586480Y-43204500D01*
X62787503Y-43164515D01*
X62976862Y-43086080D01*
X63147280Y-42972209D01*
X63292209Y-42827280D01*
X63406080Y-42656862D01*
X63484515Y-42467503D01*
X63524500Y-42266480D01*
X63524500Y-42061520D01*
X63484515Y-41860497D01*
X63406080Y-41671138D01*
X63292209Y-41500720D01*
X63147280Y-41355791D01*
X62976862Y-41241920D01*
X62787503Y-41163485D01*
X62586480Y-41123500D01*
X62381520Y-41123500D01*
X62180497Y-41163485D01*
X61991138Y-41241920D01*
X61820720Y-41355791D01*
X61675791Y-41500720D01*
X61561920Y-41671138D01*
X61483485Y-41860497D01*
X61443500Y-42061520D01*
X60984500Y-42061520D01*
X60944515Y-41860497D01*
X60866080Y-41671138D01*
X60752209Y-41500720D01*
X60607280Y-41355791D01*
X60436862Y-41241920D01*
X60247503Y-41163485D01*
X60046480Y-41123500D01*
X59841520Y-41123500D01*
X59640497Y-41163485D01*
X59451138Y-41241920D01*
X59280720Y-41355791D01*
X59135791Y-41500720D01*
X59021920Y-41671138D01*
X58943485Y-41860497D01*
X58903500Y-42061520D01*
X58444500Y-42061520D01*
X58404515Y-41860497D01*
X58326080Y-41671138D01*
X58212209Y-41500720D01*
X58067280Y-41355791D01*
X57896862Y-41241920D01*
X57707503Y-41163485D01*
X57506480Y-41123500D01*
X57301520Y-41123500D01*
X57100497Y-41163485D01*
X56911138Y-41241920D01*
X56740720Y-41355791D01*
X56595791Y-41500720D01*
X56481920Y-41671138D01*
X56403485Y-41860497D01*
X56363500Y-42061520D01*
X55904500Y-42061520D01*
X55864515Y-41860497D01*
X55786080Y-41671138D01*
X55672209Y-41500720D01*
X55527280Y-41355791D01*
X55356862Y-41241920D01*
X55167503Y-41163485D01*
X54966480Y-41123500D01*
X54761520Y-41123500D01*
X54560497Y-41163485D01*
X54371138Y-41241920D01*
X54200720Y-41355791D01*
X54055791Y-41500720D01*
X53941920Y-41671138D01*
X53863485Y-41860497D01*
X53823500Y-42061520D01*
X53364500Y-42061520D01*
X53324515Y-41860497D01*
X53246080Y-41671138D01*
X53132209Y-41500720D01*
X52987280Y-41355791D01*
X52816862Y-41241920D01*
X52627503Y-41163485D01*
X52426480Y-41123500D01*
X52221520Y-41123500D01*
X52020497Y-41163485D01*
X51831138Y-41241920D01*
X51660720Y-41355791D01*
X51515791Y-41500720D01*
X51401920Y-41671138D01*
X51323485Y-41860497D01*
X51283500Y-42061520D01*
X50824500Y-42061520D01*
X50784515Y-41860497D01*
X50706080Y-41671138D01*
X50592209Y-41500720D01*
X50447280Y-41355791D01*
X50276862Y-41241920D01*
X50087503Y-41163485D01*
X49886480Y-41123500D01*
X49681520Y-41123500D01*
X49480497Y-41163485D01*
X49291138Y-41241920D01*
X49120720Y-41355791D01*
X48975791Y-41500720D01*
X48861920Y-41671138D01*
X48783485Y-41860497D01*
X48743500Y-42061520D01*
X48284500Y-42061520D01*
X48244515Y-41860497D01*
X48166080Y-41671138D01*
X48052209Y-41500720D01*
X47907280Y-41355791D01*
X47736862Y-41241920D01*
X47547503Y-41163485D01*
X47346480Y-41123500D01*
X47141520Y-41123500D01*
X46940497Y-41163485D01*
X46751138Y-41241920D01*
X46580720Y-41355791D01*
X46435791Y-41500720D01*
X46321920Y-41671138D01*
X46243485Y-41860497D01*
X46203500Y-42061520D01*
X45744500Y-42061520D01*
X45704515Y-41860497D01*
X45626080Y-41671138D01*
X45512209Y-41500720D01*
X45367280Y-41355791D01*
X45196862Y-41241920D01*
X45007503Y-41163485D01*
X44806480Y-41123500D01*
X44601520Y-41123500D01*
X44400497Y-41163485D01*
X44211138Y-41241920D01*
X44040720Y-41355791D01*
X43895791Y-41500720D01*
X43781920Y-41671138D01*
X43703485Y-41860497D01*
X43663500Y-42061520D01*
X42462100Y-42061520D01*
X42462100Y-39013773D01*
X57317974Y-24157900D01*
X137120804Y-24157900D01*
X137985622Y-24233562D01*
G37*
X137985622Y-24233562D02*
X138812908Y-24455232D01*
X139589142Y-24817196D01*
X139686381Y-24885283D01*
X115951456Y-24828501D01*
X115913835Y-24832160D01*
X115878099Y-24843001D01*
X115845164Y-24860605D01*
X115816296Y-24884296D01*
X115792605Y-24913164D01*
X115775001Y-24946099D01*
X115764160Y-24981835D01*
X115760500Y-25019000D01*
X115760500Y-54102000D01*
X115764072Y-54138718D01*
X115774827Y-54174480D01*
X115792352Y-54207457D01*
X115815974Y-54236381D01*
X115844785Y-54260141D01*
X115877678Y-54277824D01*
X115913388Y-54288750D01*
X115950544Y-54292499D01*
X120760980Y-54304007D01*
X117724488Y-57340500D01*
X91308171Y-57340500D01*
X91244675Y-57277004D01*
X91164339Y-57223325D01*
X91075073Y-57186350D01*
X90980310Y-57167500D01*
X90883690Y-57167500D01*
X90788927Y-57186350D01*
X90699661Y-57223325D01*
X90619325Y-57277004D01*
X90551004Y-57345325D01*
X90497325Y-57425661D01*
X90460350Y-57514927D01*
X90441500Y-57609690D01*
X90441500Y-57706310D01*
X90460350Y-57801073D01*
X90497325Y-57890339D01*
X90551004Y-57970675D01*
X90619325Y-58038996D01*
X90699661Y-58092675D01*
X90788927Y-58129650D01*
X90883690Y-58148500D01*
X90980310Y-58148500D01*
X91075073Y-58129650D01*
X91164339Y-58092675D01*
X91244675Y-58038996D01*
X91308171Y-57975500D01*
X117840404Y-57975500D01*
X117856000Y-57977036D01*
X117871596Y-57975500D01*
X117918241Y-57970906D01*
X117978090Y-57952751D01*
X118033247Y-57923269D01*
X118081593Y-57883593D01*
X118091542Y-57871470D01*
X121656862Y-54306150D01*
X142048501Y-54354934D01*
X142048501Y-73487100D01*
X42462100Y-73487100D01*
X42462100Y-71150000D01*
X42958579Y-71150000D01*
X42958579Y-72850000D01*
X42962257Y-72887344D01*
X42973150Y-72923254D01*
X42990839Y-72956348D01*
X43014645Y-72985355D01*
X43043652Y-73009161D01*
X43076746Y-73026850D01*
X43112656Y-73037743D01*
X43150000Y-73041421D01*
X44850000Y-73041421D01*
X44887344Y-73037743D01*
X44923254Y-73026850D01*
X44956348Y-73009161D01*
X44985355Y-72985355D01*
X45009161Y-72956348D01*
X45026850Y-72923254D01*
X45037743Y-72887344D01*
X45041421Y-72850000D01*
X45041421Y-71897520D01*
X45499500Y-71897520D01*
X45499500Y-72102480D01*
X45539485Y-72303503D01*
X45617920Y-72492862D01*
X45731791Y-72663280D01*
X45876720Y-72808209D01*
X46047138Y-72922080D01*
X46236497Y-73000515D01*
X46437520Y-73040500D01*
X46642480Y-73040500D01*
X46843503Y-73000515D01*
X47032862Y-72922080D01*
X47203280Y-72808209D01*
X47348209Y-72663280D01*
X47462080Y-72492862D01*
X47540515Y-72303503D01*
X47580500Y-72102480D01*
X47580500Y-71897520D01*
X48039500Y-71897520D01*
X48039500Y-72102480D01*
X48079485Y-72303503D01*
X48157920Y-72492862D01*
X48271791Y-72663280D01*
X48416720Y-72808209D01*
X48587138Y-72922080D01*
X48776497Y-73000515D01*
X48977520Y-73040500D01*
X49182480Y-73040500D01*
X49383503Y-73000515D01*
X49572862Y-72922080D01*
X49743280Y-72808209D01*
X49888209Y-72663280D01*
X50002080Y-72492862D01*
X50080515Y-72303503D01*
X50120500Y-72102480D01*
X50120500Y-71897520D01*
X50579500Y-71897520D01*
X50579500Y-72102480D01*
X50619485Y-72303503D01*
X50697920Y-72492862D01*
X50811791Y-72663280D01*
X50956720Y-72808209D01*
X51127138Y-72922080D01*
X51316497Y-73000515D01*
X51517520Y-73040500D01*
X51722480Y-73040500D01*
X51923503Y-73000515D01*
X52112862Y-72922080D01*
X52283280Y-72808209D01*
X52428209Y-72663280D01*
X52542080Y-72492862D01*
X52620515Y-72303503D01*
X52660500Y-72102480D01*
X52660500Y-71897520D01*
X53119500Y-71897520D01*
X53119500Y-72102480D01*
X53159485Y-72303503D01*
X53237920Y-72492862D01*
X53351791Y-72663280D01*
X53496720Y-72808209D01*
X53667138Y-72922080D01*
X53856497Y-73000515D01*
X54057520Y-73040500D01*
X54262480Y-73040500D01*
X54463503Y-73000515D01*
X54652862Y-72922080D01*
X54823280Y-72808209D01*
X54968209Y-72663280D01*
X55082080Y-72492862D01*
X55160515Y-72303503D01*
X55200500Y-72102480D01*
X55200500Y-71897520D01*
X55659500Y-71897520D01*
X55659500Y-72102480D01*
X55699485Y-72303503D01*
X55777920Y-72492862D01*
X55891791Y-72663280D01*
X56036720Y-72808209D01*
X56207138Y-72922080D01*
X56396497Y-73000515D01*
X56597520Y-73040500D01*
X56802480Y-73040500D01*
X57003503Y-73000515D01*
X57192862Y-72922080D01*
X57363280Y-72808209D01*
X57508209Y-72663280D01*
X57622080Y-72492862D01*
X57700515Y-72303503D01*
X57740500Y-72102480D01*
X57740500Y-71897520D01*
X58199500Y-71897520D01*
X58199500Y-72102480D01*
X58239485Y-72303503D01*
X58317920Y-72492862D01*
X58431791Y-72663280D01*
X58576720Y-72808209D01*
X58747138Y-72922080D01*
X58936497Y-73000515D01*
X59137520Y-73040500D01*
X59342480Y-73040500D01*
X59543503Y-73000515D01*
X59732862Y-72922080D01*
X59903280Y-72808209D01*
X60048209Y-72663280D01*
X60162080Y-72492862D01*
X60240515Y-72303503D01*
X60280500Y-72102480D01*
X60280500Y-71897520D01*
X60739500Y-71897520D01*
X60739500Y-72102480D01*
X60779485Y-72303503D01*
X60857920Y-72492862D01*
X60971791Y-72663280D01*
X61116720Y-72808209D01*
X61287138Y-72922080D01*
X61476497Y-73000515D01*
X61677520Y-73040500D01*
X61882480Y-73040500D01*
X62083503Y-73000515D01*
X62272862Y-72922080D01*
X62443280Y-72808209D01*
X62588209Y-72663280D01*
X62702080Y-72492862D01*
X62780515Y-72303503D01*
X62820500Y-72102480D01*
X62820500Y-71897520D01*
X63279500Y-71897520D01*
X63279500Y-72102480D01*
X63319485Y-72303503D01*
X63397920Y-72492862D01*
X63511791Y-72663280D01*
X63656720Y-72808209D01*
X63827138Y-72922080D01*
X64016497Y-73000515D01*
X64217520Y-73040500D01*
X64422480Y-73040500D01*
X64623503Y-73000515D01*
X64812862Y-72922080D01*
X64983280Y-72808209D01*
X65128209Y-72663280D01*
X65242080Y-72492862D01*
X65320515Y-72303503D01*
X65360500Y-72102480D01*
X65360500Y-71897520D01*
X65320515Y-71696497D01*
X65242080Y-71507138D01*
X65128209Y-71336720D01*
X64983280Y-71191791D01*
X64812862Y-71077920D01*
X64623503Y-70999485D01*
X64422480Y-70959500D01*
X64217520Y-70959500D01*
X64016497Y-70999485D01*
X63827138Y-71077920D01*
X63656720Y-71191791D01*
X63511791Y-71336720D01*
X63397920Y-71507138D01*
X63319485Y-71696497D01*
X63279500Y-71897520D01*
X62820500Y-71897520D01*
X62780515Y-71696497D01*
X62702080Y-71507138D01*
X62588209Y-71336720D01*
X62443280Y-71191791D01*
X62272862Y-71077920D01*
X62083503Y-70999485D01*
X61882480Y-70959500D01*
X61677520Y-70959500D01*
X61476497Y-70999485D01*
X61287138Y-71077920D01*
X61116720Y-71191791D01*
X60971791Y-71336720D01*
X60857920Y-71507138D01*
X60779485Y-71696497D01*
X60739500Y-71897520D01*
X60280500Y-71897520D01*
X60240515Y-71696497D01*
X60162080Y-71507138D01*
X60048209Y-71336720D01*
X59903280Y-71191791D01*
X59732862Y-71077920D01*
X59543503Y-70999485D01*
X59342480Y-70959500D01*
X59137520Y-70959500D01*
X58936497Y-70999485D01*
X58747138Y-71077920D01*
X58576720Y-71191791D01*
X58431791Y-71336720D01*
X58317920Y-71507138D01*
X58239485Y-71696497D01*
X58199500Y-71897520D01*
X57740500Y-71897520D01*
X57700515Y-71696497D01*
X57622080Y-71507138D01*
X57508209Y-71336720D01*
X57363280Y-71191791D01*
X57192862Y-71077920D01*
X57003503Y-70999485D01*
X56802480Y-70959500D01*
X56597520Y-70959500D01*
X56396497Y-70999485D01*
X56207138Y-71077920D01*
X56036720Y-71191791D01*
X55891791Y-71336720D01*
X55777920Y-71507138D01*
X55699485Y-71696497D01*
X55659500Y-71897520D01*
X55200500Y-71897520D01*
X55160515Y-71696497D01*
X55082080Y-71507138D01*
X54968209Y-71336720D01*
X54823280Y-71191791D01*
X54652862Y-71077920D01*
X54463503Y-70999485D01*
X54262480Y-70959500D01*
X54057520Y-70959500D01*
X53856497Y-70999485D01*
X53667138Y-71077920D01*
X53496720Y-71191791D01*
X53351791Y-71336720D01*
X53237920Y-71507138D01*
X53159485Y-71696497D01*
X53119500Y-71897520D01*
X52660500Y-71897520D01*
X52620515Y-71696497D01*
X52542080Y-71507138D01*
X52428209Y-71336720D01*
X52283280Y-71191791D01*
X52112862Y-71077920D01*
X51923503Y-70999485D01*
X51722480Y-70959500D01*
X51517520Y-70959500D01*
X51316497Y-70999485D01*
X51127138Y-71077920D01*
X50956720Y-71191791D01*
X50811791Y-71336720D01*
X50697920Y-71507138D01*
X50619485Y-71696497D01*
X50579500Y-71897520D01*
X50120500Y-71897520D01*
X50080515Y-71696497D01*
X50002080Y-71507138D01*
X49888209Y-71336720D01*
X49743280Y-71191791D01*
X49572862Y-71077920D01*
X49383503Y-70999485D01*
X49182480Y-70959500D01*
X48977520Y-70959500D01*
X48776497Y-70999485D01*
X48587138Y-71077920D01*
X48416720Y-71191791D01*
X48271791Y-71336720D01*
X48157920Y-71507138D01*
X48079485Y-71696497D01*
X48039500Y-71897520D01*
X47580500Y-71897520D01*
X47540515Y-71696497D01*
X47462080Y-71507138D01*
X47348209Y-71336720D01*
X47203280Y-71191791D01*
X47032862Y-71077920D01*
X46843503Y-70999485D01*
X46642480Y-70959500D01*
X46437520Y-70959500D01*
X46236497Y-70999485D01*
X46047138Y-71077920D01*
X45876720Y-71191791D01*
X45731791Y-71336720D01*
X45617920Y-71507138D01*
X45539485Y-71696497D01*
X45499500Y-71897520D01*
X45041421Y-71897520D01*
X45041421Y-71150000D01*
X45037743Y-71112656D01*
X45026850Y-71076746D01*
X45009161Y-71043652D01*
X44985355Y-71014645D01*
X44956348Y-70990839D01*
X44923254Y-70973150D01*
X44887344Y-70962257D01*
X44850000Y-70958579D01*
X43150000Y-70958579D01*
X43112656Y-70962257D01*
X43076746Y-70973150D01*
X43043652Y-70990839D01*
X43014645Y-71014645D01*
X42990839Y-71043652D01*
X42973150Y-71076746D01*
X42962257Y-71112656D01*
X42958579Y-71150000D01*
X42462100Y-71150000D01*
X42462100Y-69139506D01*
X44953500Y-69139506D01*
X44953500Y-69290494D01*
X44982956Y-69438580D01*
X45040736Y-69578074D01*
X45124620Y-69703615D01*
X45231385Y-69810380D01*
X45356926Y-69894264D01*
X45496420Y-69952044D01*
X45644506Y-69981500D01*
X45795494Y-69981500D01*
X45943580Y-69952044D01*
X46083074Y-69894264D01*
X46208615Y-69810380D01*
X46315380Y-69703615D01*
X46399264Y-69578074D01*
X46411849Y-69547690D01*
X58945500Y-69547690D01*
X58945500Y-69644310D01*
X58964350Y-69739073D01*
X59001325Y-69828339D01*
X59055004Y-69908675D01*
X59123325Y-69976996D01*
X59203661Y-70030675D01*
X59292927Y-70067650D01*
X59387690Y-70086500D01*
X59484310Y-70086500D01*
X59579073Y-70067650D01*
X59668339Y-70030675D01*
X59748675Y-69976996D01*
X59812171Y-69913500D01*
X61259381Y-69913500D01*
X61235661Y-69923325D01*
X61155325Y-69977004D01*
X61087004Y-70045325D01*
X61033325Y-70125661D01*
X60996350Y-70214927D01*
X60977500Y-70309690D01*
X60977500Y-70406310D01*
X60996350Y-70501073D01*
X61033325Y-70590339D01*
X61087004Y-70670675D01*
X61155325Y-70738996D01*
X61235661Y-70792675D01*
X61324927Y-70829650D01*
X61419690Y-70848500D01*
X61516310Y-70848500D01*
X61611073Y-70829650D01*
X61700339Y-70792675D01*
X61780675Y-70738996D01*
X61844171Y-70675500D01*
X65086488Y-70675500D01*
X65932122Y-71521135D01*
X65859485Y-71696497D01*
X65819500Y-71897520D01*
X65819500Y-72102480D01*
X65859485Y-72303503D01*
X65937920Y-72492862D01*
X66051791Y-72663280D01*
X66196720Y-72808209D01*
X66367138Y-72922080D01*
X66556497Y-73000515D01*
X66757520Y-73040500D01*
X66962480Y-73040500D01*
X67163503Y-73000515D01*
X67352862Y-72922080D01*
X67523280Y-72808209D01*
X67668209Y-72663280D01*
X67782080Y-72492862D01*
X67860515Y-72303503D01*
X67900500Y-72102480D01*
X67900500Y-71897520D01*
X67860515Y-71696497D01*
X67782080Y-71507138D01*
X67668209Y-71336720D01*
X67523280Y-71191791D01*
X67352862Y-71077920D01*
X67163503Y-70999485D01*
X66962480Y-70959500D01*
X66757520Y-70959500D01*
X66556497Y-70999485D01*
X66381135Y-71072122D01*
X65453542Y-70144530D01*
X65443593Y-70132407D01*
X65395247Y-70092731D01*
X65340090Y-70063249D01*
X65280241Y-70045094D01*
X65233596Y-70040500D01*
X65218000Y-70038964D01*
X65202404Y-70040500D01*
X61844171Y-70040500D01*
X61780675Y-69977004D01*
X61700339Y-69923325D01*
X61676619Y-69913500D01*
X67686488Y-69913500D01*
X68873430Y-71100443D01*
X68736720Y-71191791D01*
X68591791Y-71336720D01*
X68477920Y-71507138D01*
X68399485Y-71696497D01*
X68359500Y-71897520D01*
X68359500Y-72102480D01*
X68399485Y-72303503D01*
X68477920Y-72492862D01*
X68591791Y-72663280D01*
X68736720Y-72808209D01*
X68907138Y-72922080D01*
X69096497Y-73000515D01*
X69297520Y-73040500D01*
X69502480Y-73040500D01*
X69703503Y-73000515D01*
X69892862Y-72922080D01*
X70063280Y-72808209D01*
X70208209Y-72663280D01*
X70322080Y-72492862D01*
X70400515Y-72303503D01*
X70440500Y-72102480D01*
X70440500Y-71897520D01*
X70899500Y-71897520D01*
X70899500Y-72102480D01*
X70939485Y-72303503D01*
X71017920Y-72492862D01*
X71131791Y-72663280D01*
X71276720Y-72808209D01*
X71447138Y-72922080D01*
X71636497Y-73000515D01*
X71837520Y-73040500D01*
X72042480Y-73040500D01*
X72243503Y-73000515D01*
X72432862Y-72922080D01*
X72603280Y-72808209D01*
X72748209Y-72663280D01*
X72862080Y-72492862D01*
X72940515Y-72303503D01*
X72980500Y-72102480D01*
X72980500Y-71897520D01*
X72940515Y-71696497D01*
X72862080Y-71507138D01*
X72748209Y-71336720D01*
X72603280Y-71191791D01*
X72432862Y-71077920D01*
X72243503Y-70999485D01*
X72042480Y-70959500D01*
X71837520Y-70959500D01*
X71636497Y-70999485D01*
X71447138Y-71077920D01*
X71276720Y-71191791D01*
X71131791Y-71336720D01*
X71017920Y-71507138D01*
X70939485Y-71696497D01*
X70899500Y-71897520D01*
X70440500Y-71897520D01*
X70400515Y-71696497D01*
X70322080Y-71507138D01*
X70208209Y-71336720D01*
X70063280Y-71191791D01*
X69892862Y-71077920D01*
X69703503Y-70999485D01*
X69656566Y-70990149D01*
X69642616Y-70973150D01*
X69625593Y-70952407D01*
X69613477Y-70942464D01*
X68053542Y-69382530D01*
X68043593Y-69370407D01*
X67995247Y-69330731D01*
X67940090Y-69301249D01*
X67880241Y-69283094D01*
X67833596Y-69278500D01*
X67818000Y-69276964D01*
X67802404Y-69278500D01*
X59812171Y-69278500D01*
X59748675Y-69215004D01*
X59668339Y-69161325D01*
X59579073Y-69124350D01*
X59484310Y-69105500D01*
X59387690Y-69105500D01*
X59292927Y-69124350D01*
X59203661Y-69161325D01*
X59123325Y-69215004D01*
X59055004Y-69283325D01*
X59001325Y-69363661D01*
X58964350Y-69452927D01*
X58945500Y-69547690D01*
X46411849Y-69547690D01*
X46457044Y-69438580D01*
X46486500Y-69290494D01*
X46486500Y-69139506D01*
X46457044Y-68991420D01*
X46399264Y-68851926D01*
X46315380Y-68726385D01*
X46208615Y-68619620D01*
X46083074Y-68535736D01*
X45943580Y-68477956D01*
X45795494Y-68448500D01*
X45644506Y-68448500D01*
X45496420Y-68477956D01*
X45356926Y-68535736D01*
X45231385Y-68619620D01*
X45124620Y-68726385D01*
X45040736Y-68851926D01*
X44982956Y-68991420D01*
X44953500Y-69139506D01*
X42462100Y-69139506D01*
X42462100Y-67515690D01*
X67708500Y-67515690D01*
X67708500Y-67612310D01*
X67727350Y-67707073D01*
X67764325Y-67796339D01*
X67818004Y-67876675D01*
X67886325Y-67944996D01*
X67966661Y-67998675D01*
X68055927Y-68035650D01*
X68150690Y-68054500D01*
X68247310Y-68054500D01*
X68342073Y-68035650D01*
X68431339Y-67998675D01*
X68511675Y-67944996D01*
X68575171Y-67881500D01*
X68625381Y-67881500D01*
X68601661Y-67891325D01*
X68521325Y-67945004D01*
X68453004Y-68013325D01*
X68399325Y-68093661D01*
X68362350Y-68182927D01*
X68343500Y-68277690D01*
X68343500Y-68374310D01*
X68362350Y-68469073D01*
X68399325Y-68558339D01*
X68453004Y-68638675D01*
X68521325Y-68706996D01*
X68601661Y-68760675D01*
X68690927Y-68797650D01*
X68785690Y-68816500D01*
X68882310Y-68816500D01*
X68977073Y-68797650D01*
X69066339Y-68760675D01*
X69146675Y-68706996D01*
X69210171Y-68643500D01*
X69387381Y-68643500D01*
X69363661Y-68653325D01*
X69283325Y-68707004D01*
X69215004Y-68775325D01*
X69161325Y-68855661D01*
X69124350Y-68944927D01*
X69105500Y-69039690D01*
X69105500Y-69136310D01*
X69124350Y-69231073D01*
X69161325Y-69320339D01*
X69215004Y-69400675D01*
X69283325Y-69468996D01*
X69363661Y-69522675D01*
X69452927Y-69559650D01*
X69547690Y-69578500D01*
X69644310Y-69578500D01*
X69739073Y-69559650D01*
X69828339Y-69522675D01*
X69908675Y-69468996D01*
X69972171Y-69405500D01*
X70149381Y-69405500D01*
X70125661Y-69415325D01*
X70045325Y-69469004D01*
X69977004Y-69537325D01*
X69923325Y-69617661D01*
X69886350Y-69706927D01*
X69867500Y-69801690D01*
X69867500Y-69898310D01*
X69886350Y-69993073D01*
X69923325Y-70082339D01*
X69977004Y-70162675D01*
X70045325Y-70230996D01*
X70125661Y-70284675D01*
X70214927Y-70321650D01*
X70309690Y-70340500D01*
X70406310Y-70340500D01*
X70501073Y-70321650D01*
X70590339Y-70284675D01*
X70670675Y-70230996D01*
X70734171Y-70167500D01*
X70911381Y-70167500D01*
X70887661Y-70177325D01*
X70807325Y-70231004D01*
X70739004Y-70299325D01*
X70685325Y-70379661D01*
X70648350Y-70468927D01*
X70629500Y-70563690D01*
X70629500Y-70660310D01*
X70648350Y-70755073D01*
X70685325Y-70844339D01*
X70739004Y-70924675D01*
X70807325Y-70992996D01*
X70887661Y-71046675D01*
X70976927Y-71083650D01*
X71071690Y-71102500D01*
X71168310Y-71102500D01*
X71263073Y-71083650D01*
X71352339Y-71046675D01*
X71432675Y-70992996D01*
X71496171Y-70929500D01*
X72960488Y-70929500D01*
X73552122Y-71521135D01*
X73479485Y-71696497D01*
X73439500Y-71897520D01*
X73439500Y-72102480D01*
X73479485Y-72303503D01*
X73557920Y-72492862D01*
X73671791Y-72663280D01*
X73816720Y-72808209D01*
X73987138Y-72922080D01*
X74176497Y-73000515D01*
X74377520Y-73040500D01*
X74582480Y-73040500D01*
X74783503Y-73000515D01*
X74972862Y-72922080D01*
X75143280Y-72808209D01*
X75288209Y-72663280D01*
X75402080Y-72492862D01*
X75480515Y-72303503D01*
X75520500Y-72102480D01*
X75520500Y-71897520D01*
X75480515Y-71696497D01*
X75402080Y-71507138D01*
X75288209Y-71336720D01*
X75143280Y-71191791D01*
X74972862Y-71077920D01*
X74783503Y-70999485D01*
X74582480Y-70959500D01*
X74377520Y-70959500D01*
X74176497Y-70999485D01*
X74001135Y-71072122D01*
X73327542Y-70398530D01*
X73317593Y-70386407D01*
X73269247Y-70346731D01*
X73214090Y-70317249D01*
X73154241Y-70299094D01*
X73107596Y-70294500D01*
X73092000Y-70292964D01*
X73076404Y-70294500D01*
X71496171Y-70294500D01*
X71432675Y-70231004D01*
X71352339Y-70177325D01*
X71328619Y-70167500D01*
X74738488Y-70167500D01*
X76092122Y-71521135D01*
X76019485Y-71696497D01*
X75979500Y-71897520D01*
X75979500Y-72102480D01*
X76019485Y-72303503D01*
X76097920Y-72492862D01*
X76211791Y-72663280D01*
X76356720Y-72808209D01*
X76527138Y-72922080D01*
X76716497Y-73000515D01*
X76917520Y-73040500D01*
X77122480Y-73040500D01*
X77323503Y-73000515D01*
X77512862Y-72922080D01*
X77683280Y-72808209D01*
X77828209Y-72663280D01*
X77942080Y-72492862D01*
X78020515Y-72303503D01*
X78060500Y-72102480D01*
X78060500Y-71897520D01*
X78020515Y-71696497D01*
X77942080Y-71507138D01*
X77828209Y-71336720D01*
X77683280Y-71191791D01*
X77512862Y-71077920D01*
X77323503Y-70999485D01*
X77122480Y-70959500D01*
X76917520Y-70959500D01*
X76716497Y-70999485D01*
X76541135Y-71072122D01*
X75105542Y-69636530D01*
X75095593Y-69624407D01*
X75047247Y-69584731D01*
X74992090Y-69555249D01*
X74932241Y-69537094D01*
X74885596Y-69532500D01*
X74870000Y-69530964D01*
X74854404Y-69532500D01*
X70734171Y-69532500D01*
X70670675Y-69469004D01*
X70590339Y-69415325D01*
X70566619Y-69405500D01*
X76516488Y-69405500D01*
X78632122Y-71521135D01*
X78559485Y-71696497D01*
X78519500Y-71897520D01*
X78519500Y-72102480D01*
X78559485Y-72303503D01*
X78637920Y-72492862D01*
X78751791Y-72663280D01*
X78896720Y-72808209D01*
X79067138Y-72922080D01*
X79256497Y-73000515D01*
X79457520Y-73040500D01*
X79662480Y-73040500D01*
X79863503Y-73000515D01*
X80052862Y-72922080D01*
X80223280Y-72808209D01*
X80368209Y-72663280D01*
X80482080Y-72492862D01*
X80560515Y-72303503D01*
X80600500Y-72102480D01*
X80600500Y-71897520D01*
X80560515Y-71696497D01*
X80482080Y-71507138D01*
X80368209Y-71336720D01*
X80223280Y-71191791D01*
X80052862Y-71077920D01*
X79863503Y-70999485D01*
X79662480Y-70959500D01*
X79457520Y-70959500D01*
X79256497Y-70999485D01*
X79081135Y-71072122D01*
X76883542Y-68874530D01*
X76873593Y-68862407D01*
X76825247Y-68822731D01*
X76770090Y-68793249D01*
X76710241Y-68775094D01*
X76663596Y-68770500D01*
X76648000Y-68768964D01*
X76632404Y-68770500D01*
X69972171Y-68770500D01*
X69908675Y-68707004D01*
X69828339Y-68653325D01*
X69804619Y-68643500D01*
X78294488Y-68643500D01*
X81172122Y-71521135D01*
X81099485Y-71696497D01*
X81059500Y-71897520D01*
X81059500Y-72102480D01*
X81099485Y-72303503D01*
X81177920Y-72492862D01*
X81291791Y-72663280D01*
X81436720Y-72808209D01*
X81607138Y-72922080D01*
X81796497Y-73000515D01*
X81997520Y-73040500D01*
X82202480Y-73040500D01*
X82403503Y-73000515D01*
X82592862Y-72922080D01*
X82763280Y-72808209D01*
X82908209Y-72663280D01*
X83022080Y-72492862D01*
X83073656Y-72368346D01*
X83532119Y-72368346D01*
X83625267Y-72577405D01*
X83757411Y-72764275D01*
X83923472Y-72921774D01*
X84117069Y-73043850D01*
X84271656Y-73107871D01*
X84449500Y-73071320D01*
X84449500Y-72190500D01*
X84830500Y-72190500D01*
X84830500Y-73071320D01*
X85008344Y-73107871D01*
X85162931Y-73043850D01*
X85356528Y-72921774D01*
X85522589Y-72764275D01*
X85654733Y-72577405D01*
X85747881Y-72368346D01*
X85712488Y-72190500D01*
X84830500Y-72190500D01*
X84449500Y-72190500D01*
X83567512Y-72190500D01*
X83532119Y-72368346D01*
X83073656Y-72368346D01*
X83100515Y-72303503D01*
X83140500Y-72102480D01*
X83140500Y-71897520D01*
X86139500Y-71897520D01*
X86139500Y-72102480D01*
X86179485Y-72303503D01*
X86257920Y-72492862D01*
X86371791Y-72663280D01*
X86516720Y-72808209D01*
X86687138Y-72922080D01*
X86876497Y-73000515D01*
X87077520Y-73040500D01*
X87282480Y-73040500D01*
X87483503Y-73000515D01*
X87672862Y-72922080D01*
X87843280Y-72808209D01*
X87988209Y-72663280D01*
X88102080Y-72492862D01*
X88180515Y-72303503D01*
X88220500Y-72102480D01*
X88220500Y-71897520D01*
X88679500Y-71897520D01*
X88679500Y-72102480D01*
X88719485Y-72303503D01*
X88797920Y-72492862D01*
X88911791Y-72663280D01*
X89056720Y-72808209D01*
X89227138Y-72922080D01*
X89416497Y-73000515D01*
X89617520Y-73040500D01*
X89822480Y-73040500D01*
X90023503Y-73000515D01*
X90212862Y-72922080D01*
X90383280Y-72808209D01*
X90528209Y-72663280D01*
X90642080Y-72492862D01*
X90720515Y-72303503D01*
X90760500Y-72102480D01*
X90760500Y-71897520D01*
X91219500Y-71897520D01*
X91219500Y-72102480D01*
X91259485Y-72303503D01*
X91337920Y-72492862D01*
X91451791Y-72663280D01*
X91596720Y-72808209D01*
X91767138Y-72922080D01*
X91956497Y-73000515D01*
X92157520Y-73040500D01*
X92362480Y-73040500D01*
X92563503Y-73000515D01*
X92752862Y-72922080D01*
X92923280Y-72808209D01*
X93068209Y-72663280D01*
X93182080Y-72492862D01*
X93260515Y-72303503D01*
X93300500Y-72102480D01*
X93300500Y-71897520D01*
X93759500Y-71897520D01*
X93759500Y-72102480D01*
X93799485Y-72303503D01*
X93877920Y-72492862D01*
X93991791Y-72663280D01*
X94136720Y-72808209D01*
X94307138Y-72922080D01*
X94496497Y-73000515D01*
X94697520Y-73040500D01*
X94902480Y-73040500D01*
X95103503Y-73000515D01*
X95292862Y-72922080D01*
X95463280Y-72808209D01*
X95608209Y-72663280D01*
X95722080Y-72492862D01*
X95800515Y-72303503D01*
X95840500Y-72102480D01*
X95840500Y-71897520D01*
X95800515Y-71696497D01*
X95722080Y-71507138D01*
X95608209Y-71336720D01*
X95463280Y-71191791D01*
X95292862Y-71077920D01*
X95103503Y-70999485D01*
X94902480Y-70959500D01*
X94697520Y-70959500D01*
X94496497Y-70999485D01*
X94307138Y-71077920D01*
X94136720Y-71191791D01*
X93991791Y-71336720D01*
X93877920Y-71507138D01*
X93799485Y-71696497D01*
X93759500Y-71897520D01*
X93300500Y-71897520D01*
X93260515Y-71696497D01*
X93182080Y-71507138D01*
X93068209Y-71336720D01*
X92923280Y-71191791D01*
X92752862Y-71077920D01*
X92563503Y-70999485D01*
X92362480Y-70959500D01*
X92157520Y-70959500D01*
X91956497Y-70999485D01*
X91767138Y-71077920D01*
X91596720Y-71191791D01*
X91451791Y-71336720D01*
X91337920Y-71507138D01*
X91259485Y-71696497D01*
X91219500Y-71897520D01*
X90760500Y-71897520D01*
X90720515Y-71696497D01*
X90642080Y-71507138D01*
X90528209Y-71336720D01*
X90383280Y-71191791D01*
X90212862Y-71077920D01*
X90023503Y-70999485D01*
X89822480Y-70959500D01*
X89617520Y-70959500D01*
X89416497Y-70999485D01*
X89227138Y-71077920D01*
X89056720Y-71191791D01*
X88911791Y-71336720D01*
X88797920Y-71507138D01*
X88719485Y-71696497D01*
X88679500Y-71897520D01*
X88220500Y-71897520D01*
X88180515Y-71696497D01*
X88102080Y-71507138D01*
X87988209Y-71336720D01*
X87843280Y-71191791D01*
X87672862Y-71077920D01*
X87483503Y-70999485D01*
X87282480Y-70959500D01*
X87077520Y-70959500D01*
X86876497Y-70999485D01*
X86687138Y-71077920D01*
X86516720Y-71191791D01*
X86371791Y-71336720D01*
X86257920Y-71507138D01*
X86179485Y-71696497D01*
X86139500Y-71897520D01*
X83140500Y-71897520D01*
X83100515Y-71696497D01*
X83073657Y-71631654D01*
X83532119Y-71631654D01*
X83567512Y-71809500D01*
X84449500Y-71809500D01*
X84449500Y-70928680D01*
X84830500Y-70928680D01*
X84830500Y-71809500D01*
X85712488Y-71809500D01*
X85747881Y-71631654D01*
X85654733Y-71422595D01*
X85522589Y-71235725D01*
X85356528Y-71078226D01*
X85162931Y-70956150D01*
X85008344Y-70892129D01*
X84830500Y-70928680D01*
X84449500Y-70928680D01*
X84271656Y-70892129D01*
X84117069Y-70956150D01*
X83923472Y-71078226D01*
X83757411Y-71235725D01*
X83625267Y-71422595D01*
X83532119Y-71631654D01*
X83073657Y-71631654D01*
X83022080Y-71507138D01*
X82908209Y-71336720D01*
X82763280Y-71191791D01*
X82592862Y-71077920D01*
X82403503Y-70999485D01*
X82202480Y-70959500D01*
X81997520Y-70959500D01*
X81796497Y-70999485D01*
X81621135Y-71072122D01*
X78661542Y-68112530D01*
X78651593Y-68100407D01*
X78603247Y-68060731D01*
X78548090Y-68031249D01*
X78488241Y-68013094D01*
X78441596Y-68008500D01*
X78426000Y-68006964D01*
X78410404Y-68008500D01*
X69210171Y-68008500D01*
X69146675Y-67945004D01*
X69066339Y-67891325D01*
X69042619Y-67881500D01*
X92772488Y-67881500D01*
X96412122Y-71521135D01*
X96339485Y-71696497D01*
X96299500Y-71897520D01*
X96299500Y-72102480D01*
X96339485Y-72303503D01*
X96417920Y-72492862D01*
X96531791Y-72663280D01*
X96676720Y-72808209D01*
X96847138Y-72922080D01*
X97036497Y-73000515D01*
X97237520Y-73040500D01*
X97442480Y-73040500D01*
X97643503Y-73000515D01*
X97832862Y-72922080D01*
X98003280Y-72808209D01*
X98148209Y-72663280D01*
X98262080Y-72492862D01*
X98340515Y-72303503D01*
X98380500Y-72102480D01*
X98380500Y-71897520D01*
X98839500Y-71897520D01*
X98839500Y-72102480D01*
X98879485Y-72303503D01*
X98957920Y-72492862D01*
X99071791Y-72663280D01*
X99216720Y-72808209D01*
X99387138Y-72922080D01*
X99576497Y-73000515D01*
X99777520Y-73040500D01*
X99982480Y-73040500D01*
X100183503Y-73000515D01*
X100372862Y-72922080D01*
X100543280Y-72808209D01*
X100688209Y-72663280D01*
X100802080Y-72492862D01*
X100880515Y-72303503D01*
X100920500Y-72102480D01*
X100920500Y-71897520D01*
X100880515Y-71696497D01*
X100802080Y-71507138D01*
X100688209Y-71336720D01*
X100543280Y-71191791D01*
X100372862Y-71077920D01*
X100183503Y-70999485D01*
X99982480Y-70959500D01*
X99777520Y-70959500D01*
X99576497Y-70999485D01*
X99387138Y-71077920D01*
X99216720Y-71191791D01*
X99071791Y-71336720D01*
X98957920Y-71507138D01*
X98879485Y-71696497D01*
X98839500Y-71897520D01*
X98380500Y-71897520D01*
X98340515Y-71696497D01*
X98262080Y-71507138D01*
X98148209Y-71336720D01*
X98003280Y-71191791D01*
X97832862Y-71077920D01*
X97643503Y-70999485D01*
X97442480Y-70959500D01*
X97237520Y-70959500D01*
X97036497Y-70999485D01*
X96861135Y-71072122D01*
X93139542Y-67350530D01*
X93129593Y-67338407D01*
X93081247Y-67298731D01*
X93026090Y-67269249D01*
X92966241Y-67251094D01*
X92919596Y-67246500D01*
X92904000Y-67244964D01*
X92888404Y-67246500D01*
X68575171Y-67246500D01*
X68511675Y-67183004D01*
X68431339Y-67129325D01*
X68342073Y-67092350D01*
X68247310Y-67073500D01*
X68150690Y-67073500D01*
X68055927Y-67092350D01*
X67966661Y-67129325D01*
X67886325Y-67183004D01*
X67818004Y-67251325D01*
X67764325Y-67331661D01*
X67727350Y-67420927D01*
X67708500Y-67515690D01*
X42462100Y-67515690D01*
X42462100Y-65737690D01*
X91076500Y-65737690D01*
X91076500Y-65834310D01*
X91095350Y-65929073D01*
X91132325Y-66018339D01*
X91186004Y-66098675D01*
X91254325Y-66166996D01*
X91334661Y-66220675D01*
X91423927Y-66257650D01*
X91518690Y-66276500D01*
X91615310Y-66276500D01*
X91710073Y-66257650D01*
X91799339Y-66220675D01*
X91879675Y-66166996D01*
X91943171Y-66103500D01*
X94610488Y-66103500D01*
X98315500Y-69808513D01*
X98315500Y-69898310D01*
X98334350Y-69993073D01*
X98371325Y-70082339D01*
X98425004Y-70162675D01*
X98493325Y-70230996D01*
X98573661Y-70284675D01*
X98662927Y-70321650D01*
X98757690Y-70340500D01*
X98854310Y-70340500D01*
X98949073Y-70321650D01*
X99038339Y-70284675D01*
X99118675Y-70230996D01*
X99186996Y-70162675D01*
X99240675Y-70082339D01*
X99277650Y-69993073D01*
X99296500Y-69898310D01*
X99296500Y-69801690D01*
X99277650Y-69706927D01*
X99240675Y-69617661D01*
X99186996Y-69537325D01*
X99118675Y-69469004D01*
X99038339Y-69415325D01*
X98949073Y-69378350D01*
X98854310Y-69359500D01*
X98764513Y-69359500D01*
X94977542Y-65572530D01*
X94967593Y-65560407D01*
X94919247Y-65520731D01*
X94864090Y-65491249D01*
X94804241Y-65473094D01*
X94757596Y-65468500D01*
X94742000Y-65466964D01*
X94726404Y-65468500D01*
X91943171Y-65468500D01*
X91879675Y-65405004D01*
X91799339Y-65351325D01*
X91710073Y-65314350D01*
X91615310Y-65295500D01*
X91518690Y-65295500D01*
X91423927Y-65314350D01*
X91334661Y-65351325D01*
X91254325Y-65405004D01*
X91186004Y-65473325D01*
X91132325Y-65553661D01*
X91095350Y-65642927D01*
X91076500Y-65737690D01*
X42462100Y-65737690D01*
X42462100Y-62689690D01*
X63390500Y-62689690D01*
X63390500Y-62786310D01*
X63409350Y-62881073D01*
X63446325Y-62970339D01*
X63500004Y-63050675D01*
X63568325Y-63118996D01*
X63648661Y-63172675D01*
X63737927Y-63209650D01*
X63832690Y-63228500D01*
X63929310Y-63228500D01*
X64024073Y-63209650D01*
X64028715Y-63207727D01*
X65677463Y-64856476D01*
X65687407Y-64868593D01*
X65722017Y-64896996D01*
X65735753Y-64908269D01*
X65790910Y-64937751D01*
X65850759Y-64955906D01*
X65913000Y-64962036D01*
X65928596Y-64960500D01*
X87761829Y-64960500D01*
X87825325Y-65023996D01*
X87905661Y-65077675D01*
X87994927Y-65114650D01*
X88089690Y-65133500D01*
X88186310Y-65133500D01*
X88281073Y-65114650D01*
X88370339Y-65077675D01*
X88450675Y-65023996D01*
X88518996Y-64955675D01*
X88572675Y-64875339D01*
X88609650Y-64786073D01*
X88628500Y-64691310D01*
X88628500Y-64594690D01*
X88609650Y-64499927D01*
X88572675Y-64410661D01*
X88518996Y-64330325D01*
X88450675Y-64262004D01*
X88370339Y-64208325D01*
X88281073Y-64171350D01*
X88186310Y-64152500D01*
X88089690Y-64152500D01*
X87994927Y-64171350D01*
X87905661Y-64208325D01*
X87825325Y-64262004D01*
X87761829Y-64325500D01*
X66044513Y-64325500D01*
X65424703Y-63705690D01*
X66438500Y-63705690D01*
X66438500Y-63802310D01*
X66457350Y-63897073D01*
X66494325Y-63986339D01*
X66548004Y-64066675D01*
X66616325Y-64134996D01*
X66696661Y-64188675D01*
X66785927Y-64225650D01*
X66880690Y-64244500D01*
X66977310Y-64244500D01*
X67072073Y-64225650D01*
X67161339Y-64188675D01*
X67241675Y-64134996D01*
X67305171Y-64071500D01*
X91358381Y-64071500D01*
X91334661Y-64081325D01*
X91254325Y-64135004D01*
X91186004Y-64203325D01*
X91132325Y-64283661D01*
X91095350Y-64372927D01*
X91076500Y-64467690D01*
X91076500Y-64564310D01*
X91095350Y-64659073D01*
X91132325Y-64748339D01*
X91186004Y-64828675D01*
X91254325Y-64896996D01*
X91334661Y-64950675D01*
X91423927Y-64987650D01*
X91518690Y-65006500D01*
X91615310Y-65006500D01*
X91710073Y-64987650D01*
X91799339Y-64950675D01*
X91879675Y-64896996D01*
X91943171Y-64833500D01*
X94804488Y-64833500D01*
X101492122Y-71521135D01*
X101419485Y-71696497D01*
X101379500Y-71897520D01*
X101379500Y-72102480D01*
X101419485Y-72303503D01*
X101497920Y-72492862D01*
X101611791Y-72663280D01*
X101756720Y-72808209D01*
X101927138Y-72922080D01*
X102116497Y-73000515D01*
X102317520Y-73040500D01*
X102522480Y-73040500D01*
X102723503Y-73000515D01*
X102912862Y-72922080D01*
X103083280Y-72808209D01*
X103228209Y-72663280D01*
X103342080Y-72492862D01*
X103420515Y-72303503D01*
X103460500Y-72102480D01*
X103460500Y-71897520D01*
X103919500Y-71897520D01*
X103919500Y-72102480D01*
X103959485Y-72303503D01*
X104037920Y-72492862D01*
X104151791Y-72663280D01*
X104296720Y-72808209D01*
X104467138Y-72922080D01*
X104656497Y-73000515D01*
X104857520Y-73040500D01*
X105062480Y-73040500D01*
X105263503Y-73000515D01*
X105452862Y-72922080D01*
X105623280Y-72808209D01*
X105768209Y-72663280D01*
X105882080Y-72492862D01*
X105960515Y-72303503D01*
X106000500Y-72102480D01*
X106000500Y-71897520D01*
X105960515Y-71696497D01*
X105882080Y-71507138D01*
X105768209Y-71336720D01*
X105623280Y-71191791D01*
X105452862Y-71077920D01*
X105263503Y-70999485D01*
X105062480Y-70959500D01*
X104857520Y-70959500D01*
X104656497Y-70999485D01*
X104467138Y-71077920D01*
X104296720Y-71191791D01*
X104151791Y-71336720D01*
X104037920Y-71507138D01*
X103959485Y-71696497D01*
X103919500Y-71897520D01*
X103460500Y-71897520D01*
X103420515Y-71696497D01*
X103342080Y-71507138D01*
X103228209Y-71336720D01*
X103083280Y-71191791D01*
X102912862Y-71077920D01*
X102723503Y-70999485D01*
X102522480Y-70959500D01*
X102317520Y-70959500D01*
X102116497Y-70999485D01*
X101941135Y-71072122D01*
X95171542Y-64302530D01*
X95161593Y-64290407D01*
X95113247Y-64250731D01*
X95058090Y-64221249D01*
X94998241Y-64203094D01*
X94951596Y-64198500D01*
X94936000Y-64196964D01*
X94920404Y-64198500D01*
X91943171Y-64198500D01*
X91879675Y-64135004D01*
X91799339Y-64081325D01*
X91775619Y-64071500D01*
X99122488Y-64071500D01*
X106572122Y-71521135D01*
X106499485Y-71696497D01*
X106459500Y-71897520D01*
X106459500Y-72102480D01*
X106499485Y-72303503D01*
X106577920Y-72492862D01*
X106691791Y-72663280D01*
X106836720Y-72808209D01*
X107007138Y-72922080D01*
X107196497Y-73000515D01*
X107397520Y-73040500D01*
X107602480Y-73040500D01*
X107803503Y-73000515D01*
X107992862Y-72922080D01*
X108163280Y-72808209D01*
X108308209Y-72663280D01*
X108422080Y-72492862D01*
X108500515Y-72303503D01*
X108540500Y-72102480D01*
X108540500Y-71897520D01*
X108999500Y-71897520D01*
X108999500Y-72102480D01*
X109039485Y-72303503D01*
X109117920Y-72492862D01*
X109231791Y-72663280D01*
X109376720Y-72808209D01*
X109547138Y-72922080D01*
X109736497Y-73000515D01*
X109937520Y-73040500D01*
X110142480Y-73040500D01*
X110343503Y-73000515D01*
X110532862Y-72922080D01*
X110703280Y-72808209D01*
X110848209Y-72663280D01*
X110962080Y-72492862D01*
X111040515Y-72303503D01*
X111080500Y-72102480D01*
X111080500Y-71897520D01*
X111539500Y-71897520D01*
X111539500Y-72102480D01*
X111579485Y-72303503D01*
X111657920Y-72492862D01*
X111771791Y-72663280D01*
X111916720Y-72808209D01*
X112087138Y-72922080D01*
X112276497Y-73000515D01*
X112477520Y-73040500D01*
X112682480Y-73040500D01*
X112883503Y-73000515D01*
X113072862Y-72922080D01*
X113243280Y-72808209D01*
X113388209Y-72663280D01*
X113502080Y-72492862D01*
X113580515Y-72303503D01*
X113620500Y-72102480D01*
X113620500Y-71897520D01*
X114079500Y-71897520D01*
X114079500Y-72102480D01*
X114119485Y-72303503D01*
X114197920Y-72492862D01*
X114311791Y-72663280D01*
X114456720Y-72808209D01*
X114627138Y-72922080D01*
X114816497Y-73000515D01*
X115017520Y-73040500D01*
X115222480Y-73040500D01*
X115423503Y-73000515D01*
X115612862Y-72922080D01*
X115783280Y-72808209D01*
X115928209Y-72663280D01*
X116042080Y-72492862D01*
X116120515Y-72303503D01*
X116160500Y-72102480D01*
X116160500Y-71897520D01*
X116619500Y-71897520D01*
X116619500Y-72102480D01*
X116659485Y-72303503D01*
X116737920Y-72492862D01*
X116851791Y-72663280D01*
X116996720Y-72808209D01*
X117167138Y-72922080D01*
X117356497Y-73000515D01*
X117557520Y-73040500D01*
X117762480Y-73040500D01*
X117963503Y-73000515D01*
X118152862Y-72922080D01*
X118323280Y-72808209D01*
X118468209Y-72663280D01*
X118582080Y-72492862D01*
X118660515Y-72303503D01*
X118700500Y-72102480D01*
X118700500Y-71897520D01*
X119159500Y-71897520D01*
X119159500Y-72102480D01*
X119199485Y-72303503D01*
X119277920Y-72492862D01*
X119391791Y-72663280D01*
X119536720Y-72808209D01*
X119707138Y-72922080D01*
X119896497Y-73000515D01*
X120097520Y-73040500D01*
X120302480Y-73040500D01*
X120503503Y-73000515D01*
X120692862Y-72922080D01*
X120863280Y-72808209D01*
X121008209Y-72663280D01*
X121122080Y-72492862D01*
X121200515Y-72303503D01*
X121240500Y-72102480D01*
X121240500Y-71897520D01*
X121699500Y-71897520D01*
X121699500Y-72102480D01*
X121739485Y-72303503D01*
X121817920Y-72492862D01*
X121931791Y-72663280D01*
X122076720Y-72808209D01*
X122247138Y-72922080D01*
X122436497Y-73000515D01*
X122637520Y-73040500D01*
X122842480Y-73040500D01*
X123043503Y-73000515D01*
X123232862Y-72922080D01*
X123403280Y-72808209D01*
X123548209Y-72663280D01*
X123662080Y-72492862D01*
X123740515Y-72303503D01*
X123780500Y-72102480D01*
X123780500Y-71897520D01*
X124239500Y-71897520D01*
X124239500Y-72102480D01*
X124279485Y-72303503D01*
X124357920Y-72492862D01*
X124471791Y-72663280D01*
X124616720Y-72808209D01*
X124787138Y-72922080D01*
X124976497Y-73000515D01*
X125177520Y-73040500D01*
X125382480Y-73040500D01*
X125583503Y-73000515D01*
X125772862Y-72922080D01*
X125943280Y-72808209D01*
X126088209Y-72663280D01*
X126202080Y-72492862D01*
X126280515Y-72303503D01*
X126320500Y-72102480D01*
X126320500Y-71897520D01*
X126779500Y-71897520D01*
X126779500Y-72102480D01*
X126819485Y-72303503D01*
X126897920Y-72492862D01*
X127011791Y-72663280D01*
X127156720Y-72808209D01*
X127327138Y-72922080D01*
X127516497Y-73000515D01*
X127717520Y-73040500D01*
X127922480Y-73040500D01*
X128123503Y-73000515D01*
X128312862Y-72922080D01*
X128483280Y-72808209D01*
X128628209Y-72663280D01*
X128742080Y-72492862D01*
X128820515Y-72303503D01*
X128860500Y-72102480D01*
X128860500Y-71897520D01*
X129319500Y-71897520D01*
X129319500Y-72102480D01*
X129359485Y-72303503D01*
X129437920Y-72492862D01*
X129551791Y-72663280D01*
X129696720Y-72808209D01*
X129867138Y-72922080D01*
X130056497Y-73000515D01*
X130257520Y-73040500D01*
X130462480Y-73040500D01*
X130663503Y-73000515D01*
X130852862Y-72922080D01*
X131023280Y-72808209D01*
X131168209Y-72663280D01*
X131282080Y-72492862D01*
X131360515Y-72303503D01*
X131400500Y-72102480D01*
X131400500Y-71897520D01*
X131859500Y-71897520D01*
X131859500Y-72102480D01*
X131899485Y-72303503D01*
X131977920Y-72492862D01*
X132091791Y-72663280D01*
X132236720Y-72808209D01*
X132407138Y-72922080D01*
X132596497Y-73000515D01*
X132797520Y-73040500D01*
X133002480Y-73040500D01*
X133203503Y-73000515D01*
X133392862Y-72922080D01*
X133563280Y-72808209D01*
X133708209Y-72663280D01*
X133822080Y-72492862D01*
X133900515Y-72303503D01*
X133940500Y-72102480D01*
X133940500Y-71897520D01*
X134399500Y-71897520D01*
X134399500Y-72102480D01*
X134439485Y-72303503D01*
X134517920Y-72492862D01*
X134631791Y-72663280D01*
X134776720Y-72808209D01*
X134947138Y-72922080D01*
X135136497Y-73000515D01*
X135337520Y-73040500D01*
X135542480Y-73040500D01*
X135743503Y-73000515D01*
X135932862Y-72922080D01*
X136103280Y-72808209D01*
X136248209Y-72663280D01*
X136362080Y-72492862D01*
X136440515Y-72303503D01*
X136480500Y-72102480D01*
X136480500Y-71897520D01*
X136939500Y-71897520D01*
X136939500Y-72102480D01*
X136979485Y-72303503D01*
X137057920Y-72492862D01*
X137171791Y-72663280D01*
X137316720Y-72808209D01*
X137487138Y-72922080D01*
X137676497Y-73000515D01*
X137877520Y-73040500D01*
X138082480Y-73040500D01*
X138283503Y-73000515D01*
X138472862Y-72922080D01*
X138643280Y-72808209D01*
X138788209Y-72663280D01*
X138902080Y-72492862D01*
X138980515Y-72303503D01*
X139020500Y-72102480D01*
X139020500Y-71897520D01*
X139479500Y-71897520D01*
X139479500Y-72102480D01*
X139519485Y-72303503D01*
X139597920Y-72492862D01*
X139711791Y-72663280D01*
X139856720Y-72808209D01*
X140027138Y-72922080D01*
X140216497Y-73000515D01*
X140417520Y-73040500D01*
X140622480Y-73040500D01*
X140823503Y-73000515D01*
X141012862Y-72922080D01*
X141183280Y-72808209D01*
X141328209Y-72663280D01*
X141442080Y-72492862D01*
X141520515Y-72303503D01*
X141560500Y-72102480D01*
X141560500Y-71897520D01*
X141520515Y-71696497D01*
X141442080Y-71507138D01*
X141328209Y-71336720D01*
X141183280Y-71191791D01*
X141012862Y-71077920D01*
X140823503Y-70999485D01*
X140622480Y-70959500D01*
X140417520Y-70959500D01*
X140216497Y-70999485D01*
X140027138Y-71077920D01*
X139856720Y-71191791D01*
X139711791Y-71336720D01*
X139597920Y-71507138D01*
X139519485Y-71696497D01*
X139479500Y-71897520D01*
X139020500Y-71897520D01*
X138980515Y-71696497D01*
X138902080Y-71507138D01*
X138788209Y-71336720D01*
X138643280Y-71191791D01*
X138472862Y-71077920D01*
X138283503Y-70999485D01*
X138082480Y-70959500D01*
X137877520Y-70959500D01*
X137676497Y-70999485D01*
X137487138Y-71077920D01*
X137316720Y-71191791D01*
X137171791Y-71336720D01*
X137057920Y-71507138D01*
X136979485Y-71696497D01*
X136939500Y-71897520D01*
X136480500Y-71897520D01*
X136440515Y-71696497D01*
X136362080Y-71507138D01*
X136248209Y-71336720D01*
X136103280Y-71191791D01*
X135932862Y-71077920D01*
X135743503Y-70999485D01*
X135542480Y-70959500D01*
X135337520Y-70959500D01*
X135136497Y-70999485D01*
X134947138Y-71077920D01*
X134776720Y-71191791D01*
X134631791Y-71336720D01*
X134517920Y-71507138D01*
X134439485Y-71696497D01*
X134399500Y-71897520D01*
X133940500Y-71897520D01*
X133900515Y-71696497D01*
X133822080Y-71507138D01*
X133708209Y-71336720D01*
X133563280Y-71191791D01*
X133392862Y-71077920D01*
X133203503Y-70999485D01*
X133002480Y-70959500D01*
X132797520Y-70959500D01*
X132596497Y-70999485D01*
X132407138Y-71077920D01*
X132236720Y-71191791D01*
X132091791Y-71336720D01*
X131977920Y-71507138D01*
X131899485Y-71696497D01*
X131859500Y-71897520D01*
X131400500Y-71897520D01*
X131360515Y-71696497D01*
X131282080Y-71507138D01*
X131168209Y-71336720D01*
X131023280Y-71191791D01*
X130852862Y-71077920D01*
X130663503Y-70999485D01*
X130462480Y-70959500D01*
X130257520Y-70959500D01*
X130056497Y-70999485D01*
X129867138Y-71077920D01*
X129696720Y-71191791D01*
X129551791Y-71336720D01*
X129437920Y-71507138D01*
X129359485Y-71696497D01*
X129319500Y-71897520D01*
X128860500Y-71897520D01*
X128820515Y-71696497D01*
X128742080Y-71507138D01*
X128628209Y-71336720D01*
X128483280Y-71191791D01*
X128312862Y-71077920D01*
X128123503Y-70999485D01*
X127922480Y-70959500D01*
X127717520Y-70959500D01*
X127516497Y-70999485D01*
X127327138Y-71077920D01*
X127156720Y-71191791D01*
X127011791Y-71336720D01*
X126897920Y-71507138D01*
X126819485Y-71696497D01*
X126779500Y-71897520D01*
X126320500Y-71897520D01*
X126280515Y-71696497D01*
X126202080Y-71507138D01*
X126088209Y-71336720D01*
X125943280Y-71191791D01*
X125772862Y-71077920D01*
X125583503Y-70999485D01*
X125382480Y-70959500D01*
X125177520Y-70959500D01*
X124976497Y-70999485D01*
X124787138Y-71077920D01*
X124616720Y-71191791D01*
X124471791Y-71336720D01*
X124357920Y-71507138D01*
X124279485Y-71696497D01*
X124239500Y-71897520D01*
X123780500Y-71897520D01*
X123740515Y-71696497D01*
X123662080Y-71507138D01*
X123548209Y-71336720D01*
X123403280Y-71191791D01*
X123232862Y-71077920D01*
X123043503Y-70999485D01*
X122842480Y-70959500D01*
X122637520Y-70959500D01*
X122436497Y-70999485D01*
X122247138Y-71077920D01*
X122076720Y-71191791D01*
X121931791Y-71336720D01*
X121817920Y-71507138D01*
X121739485Y-71696497D01*
X121699500Y-71897520D01*
X121240500Y-71897520D01*
X121200515Y-71696497D01*
X121122080Y-71507138D01*
X121008209Y-71336720D01*
X120863280Y-71191791D01*
X120692862Y-71077920D01*
X120503503Y-70999485D01*
X120302480Y-70959500D01*
X120097520Y-70959500D01*
X119896497Y-70999485D01*
X119707138Y-71077920D01*
X119536720Y-71191791D01*
X119391791Y-71336720D01*
X119277920Y-71507138D01*
X119199485Y-71696497D01*
X119159500Y-71897520D01*
X118700500Y-71897520D01*
X118660515Y-71696497D01*
X118582080Y-71507138D01*
X118468209Y-71336720D01*
X118323280Y-71191791D01*
X118152862Y-71077920D01*
X117963503Y-70999485D01*
X117762480Y-70959500D01*
X117557520Y-70959500D01*
X117356497Y-70999485D01*
X117167138Y-71077920D01*
X116996720Y-71191791D01*
X116851791Y-71336720D01*
X116737920Y-71507138D01*
X116659485Y-71696497D01*
X116619500Y-71897520D01*
X116160500Y-71897520D01*
X116120515Y-71696497D01*
X116042080Y-71507138D01*
X115928209Y-71336720D01*
X115783280Y-71191791D01*
X115612862Y-71077920D01*
X115423503Y-70999485D01*
X115222480Y-70959500D01*
X115017520Y-70959500D01*
X114816497Y-70999485D01*
X114627138Y-71077920D01*
X114456720Y-71191791D01*
X114311791Y-71336720D01*
X114197920Y-71507138D01*
X114119485Y-71696497D01*
X114079500Y-71897520D01*
X113620500Y-71897520D01*
X113580515Y-71696497D01*
X113502080Y-71507138D01*
X113388209Y-71336720D01*
X113243280Y-71191791D01*
X113072862Y-71077920D01*
X112883503Y-70999485D01*
X112682480Y-70959500D01*
X112477520Y-70959500D01*
X112276497Y-70999485D01*
X112087138Y-71077920D01*
X111916720Y-71191791D01*
X111771791Y-71336720D01*
X111657920Y-71507138D01*
X111579485Y-71696497D01*
X111539500Y-71897520D01*
X111080500Y-71897520D01*
X111040515Y-71696497D01*
X110962080Y-71507138D01*
X110848209Y-71336720D01*
X110703280Y-71191791D01*
X110532862Y-71077920D01*
X110343503Y-70999485D01*
X110142480Y-70959500D01*
X109937520Y-70959500D01*
X109736497Y-70999485D01*
X109547138Y-71077920D01*
X109376720Y-71191791D01*
X109231791Y-71336720D01*
X109117920Y-71507138D01*
X109039485Y-71696497D01*
X108999500Y-71897520D01*
X108540500Y-71897520D01*
X108500515Y-71696497D01*
X108422080Y-71507138D01*
X108308209Y-71336720D01*
X108163280Y-71191791D01*
X107992862Y-71077920D01*
X107803503Y-70999485D01*
X107602480Y-70959500D01*
X107397520Y-70959500D01*
X107196497Y-70999485D01*
X107021135Y-71072122D01*
X99489542Y-63540530D01*
X99479593Y-63528407D01*
X99431247Y-63488731D01*
X99376090Y-63459249D01*
X99316241Y-63441094D01*
X99269596Y-63436500D01*
X99254000Y-63434964D01*
X99238404Y-63436500D01*
X67305171Y-63436500D01*
X67241675Y-63373004D01*
X67161339Y-63319325D01*
X67072073Y-63282350D01*
X66977310Y-63263500D01*
X66880690Y-63263500D01*
X66785927Y-63282350D01*
X66696661Y-63319325D01*
X66616325Y-63373004D01*
X66548004Y-63441325D01*
X66494325Y-63521661D01*
X66457350Y-63610927D01*
X66438500Y-63705690D01*
X65424703Y-63705690D01*
X64362262Y-62643250D01*
X64352650Y-62594927D01*
X64315675Y-62505661D01*
X64261996Y-62425325D01*
X64193675Y-62357004D01*
X64113339Y-62303325D01*
X64024073Y-62266350D01*
X63929310Y-62247500D01*
X63832690Y-62247500D01*
X63737927Y-62266350D01*
X63648661Y-62303325D01*
X63568325Y-62357004D01*
X63500004Y-62425325D01*
X63446325Y-62505661D01*
X63409350Y-62594927D01*
X63390500Y-62689690D01*
X42462100Y-62689690D01*
X42462100Y-55526890D01*
X76319100Y-55526890D01*
X76319100Y-55623510D01*
X76337950Y-55718273D01*
X76374925Y-55807539D01*
X76428604Y-55887875D01*
X76496925Y-55956196D01*
X76577261Y-56009875D01*
X76666527Y-56046850D01*
X76761290Y-56065700D01*
X76857910Y-56065700D01*
X76952673Y-56046850D01*
X77041939Y-56009875D01*
X77103262Y-55968900D01*
X78236829Y-55968900D01*
X78300325Y-56032396D01*
X78380661Y-56086075D01*
X78469927Y-56123050D01*
X78564690Y-56141900D01*
X78661310Y-56141900D01*
X78756073Y-56123050D01*
X78845339Y-56086075D01*
X78925675Y-56032396D01*
X78993996Y-55964075D01*
X79047675Y-55883739D01*
X79084650Y-55794473D01*
X79103500Y-55699710D01*
X79103500Y-55603090D01*
X79084650Y-55508327D01*
X79047675Y-55419061D01*
X78993996Y-55338725D01*
X78925675Y-55270404D01*
X78845339Y-55216725D01*
X78756073Y-55179750D01*
X78661310Y-55160900D01*
X78564690Y-55160900D01*
X78469927Y-55179750D01*
X78380661Y-55216725D01*
X78300325Y-55270404D01*
X78236829Y-55333900D01*
X77238287Y-55333900D01*
X77190596Y-55262525D01*
X77122275Y-55194204D01*
X77041939Y-55140525D01*
X76952673Y-55103550D01*
X76857910Y-55084700D01*
X76761290Y-55084700D01*
X76666527Y-55103550D01*
X76577261Y-55140525D01*
X76496925Y-55194204D01*
X76428604Y-55262525D01*
X76374925Y-55342861D01*
X76337950Y-55432127D01*
X76319100Y-55526890D01*
X42462100Y-55526890D01*
X42462100Y-54460090D01*
X57878700Y-54460090D01*
X57878700Y-54556710D01*
X57897550Y-54651473D01*
X57934525Y-54740739D01*
X57988204Y-54821075D01*
X58056525Y-54889396D01*
X58136861Y-54943075D01*
X58226127Y-54980050D01*
X58320890Y-54998900D01*
X58417510Y-54998900D01*
X58512273Y-54980050D01*
X58601539Y-54943075D01*
X58681875Y-54889396D01*
X58750196Y-54821075D01*
X58803875Y-54740739D01*
X58840850Y-54651473D01*
X58859700Y-54556710D01*
X58859700Y-54460090D01*
X58840850Y-54365327D01*
X58803875Y-54276061D01*
X58750196Y-54195725D01*
X58712100Y-54157629D01*
X58712100Y-53004971D01*
X58775596Y-52941475D01*
X58829275Y-52861139D01*
X58866250Y-52771873D01*
X58885100Y-52677110D01*
X58885100Y-52580490D01*
X58866250Y-52485727D01*
X58829275Y-52396461D01*
X58775596Y-52316125D01*
X58707275Y-52247804D01*
X58626939Y-52194125D01*
X58537673Y-52157150D01*
X58442910Y-52138300D01*
X58346290Y-52138300D01*
X58251527Y-52157150D01*
X58162261Y-52194125D01*
X58081925Y-52247804D01*
X58013604Y-52316125D01*
X57959925Y-52396461D01*
X57922950Y-52485727D01*
X57904100Y-52580490D01*
X57904100Y-52677110D01*
X57922950Y-52771873D01*
X57959925Y-52861139D01*
X58013604Y-52941475D01*
X58077100Y-53004971D01*
X58077101Y-54113656D01*
X58056525Y-54127404D01*
X57988204Y-54195725D01*
X57934525Y-54276061D01*
X57897550Y-54365327D01*
X57878700Y-54460090D01*
X42462100Y-54460090D01*
X42462100Y-50058000D01*
X82378579Y-50058000D01*
X82378579Y-52558000D01*
X82382257Y-52595344D01*
X82393150Y-52631254D01*
X82410839Y-52664348D01*
X82434645Y-52693355D01*
X82463652Y-52717161D01*
X82496746Y-52734850D01*
X82532656Y-52745743D01*
X82570000Y-52749421D01*
X83553301Y-52749421D01*
X83553300Y-54360829D01*
X83489804Y-54424325D01*
X83436125Y-54504661D01*
X83399150Y-54593927D01*
X83380300Y-54688690D01*
X83380300Y-54785310D01*
X83399150Y-54880073D01*
X83436125Y-54969339D01*
X83489804Y-55049675D01*
X83558125Y-55117996D01*
X83638461Y-55171675D01*
X83727727Y-55208650D01*
X83822490Y-55227500D01*
X83919110Y-55227500D01*
X84013873Y-55208650D01*
X84103139Y-55171675D01*
X84183475Y-55117996D01*
X84251796Y-55049675D01*
X84305475Y-54969339D01*
X84342450Y-54880073D01*
X84361300Y-54785310D01*
X84361300Y-54688690D01*
X84342450Y-54593927D01*
X84305475Y-54504661D01*
X84251796Y-54424325D01*
X84188300Y-54360829D01*
X84188300Y-52749421D01*
X85070000Y-52749421D01*
X85107344Y-52745743D01*
X85143254Y-52734850D01*
X85176348Y-52717161D01*
X85205355Y-52693355D01*
X85229161Y-52664348D01*
X85246850Y-52631254D01*
X85257743Y-52595344D01*
X85261421Y-52558000D01*
X85261421Y-50058000D01*
X85257743Y-50020656D01*
X85246850Y-49984746D01*
X85229161Y-49951652D01*
X85205355Y-49922645D01*
X85176348Y-49898839D01*
X85143254Y-49881150D01*
X85107344Y-49870257D01*
X85070000Y-49866579D01*
X82570000Y-49866579D01*
X82532656Y-49870257D01*
X82496746Y-49881150D01*
X82463652Y-49898839D01*
X82434645Y-49922645D01*
X82410839Y-49951652D01*
X82393150Y-49984746D01*
X82382257Y-50020656D01*
X82378579Y-50058000D01*
X42462100Y-50058000D01*
X42462100Y-48465690D01*
X89679500Y-48465690D01*
X89679500Y-48562310D01*
X89698350Y-48657073D01*
X89735325Y-48746339D01*
X89789004Y-48826675D01*
X89857325Y-48894996D01*
X89937661Y-48948675D01*
X90026927Y-48985650D01*
X90121690Y-49004500D01*
X90218310Y-49004500D01*
X90313073Y-48985650D01*
X90402339Y-48948675D01*
X90482675Y-48894996D01*
X90546171Y-48831500D01*
X90662404Y-48831500D01*
X90678000Y-48833036D01*
X90693596Y-48831500D01*
X90740241Y-48826906D01*
X90800090Y-48808751D01*
X90855247Y-48779269D01*
X90903593Y-48739593D01*
X90913542Y-48727470D01*
X91906513Y-47734500D01*
X91996310Y-47734500D01*
X92091073Y-47715650D01*
X92180339Y-47678675D01*
X92260675Y-47624996D01*
X92328996Y-47556675D01*
X92382675Y-47476339D01*
X92419650Y-47387073D01*
X92438500Y-47292310D01*
X92438500Y-47195690D01*
X92419650Y-47100927D01*
X92382675Y-47011661D01*
X92328996Y-46931325D01*
X92260675Y-46863004D01*
X92180339Y-46809325D01*
X92091073Y-46772350D01*
X91996310Y-46753500D01*
X91899690Y-46753500D01*
X91804927Y-46772350D01*
X91715661Y-46809325D01*
X91635325Y-46863004D01*
X91567004Y-46931325D01*
X91513325Y-47011661D01*
X91476350Y-47100927D01*
X91457500Y-47195690D01*
X91457500Y-47285487D01*
X90546488Y-48196500D01*
X90546171Y-48196500D01*
X90482675Y-48133004D01*
X90402339Y-48079325D01*
X90313073Y-48042350D01*
X90218310Y-48023500D01*
X90121690Y-48023500D01*
X90026927Y-48042350D01*
X89937661Y-48079325D01*
X89857325Y-48133004D01*
X89789004Y-48201325D01*
X89735325Y-48281661D01*
X89698350Y-48370927D01*
X89679500Y-48465690D01*
X42462100Y-48465690D01*
X42462100Y-43854000D01*
X43662579Y-43854000D01*
X43662579Y-45554000D01*
X43666257Y-45591344D01*
X43677150Y-45627254D01*
X43694839Y-45660348D01*
X43718645Y-45689355D01*
X43747652Y-45713161D01*
X43780746Y-45730850D01*
X43816656Y-45741743D01*
X43854000Y-45745421D01*
X45554000Y-45745421D01*
X45591344Y-45741743D01*
X45627254Y-45730850D01*
X45660348Y-45713161D01*
X45689355Y-45689355D01*
X45713161Y-45660348D01*
X45730850Y-45627254D01*
X45741743Y-45591344D01*
X45745421Y-45554000D01*
X45745421Y-44601520D01*
X46203500Y-44601520D01*
X46203500Y-44806480D01*
X46243485Y-45007503D01*
X46321920Y-45196862D01*
X46435791Y-45367280D01*
X46580720Y-45512209D01*
X46751138Y-45626080D01*
X46940497Y-45704515D01*
X47141520Y-45744500D01*
X47346480Y-45744500D01*
X47547503Y-45704515D01*
X47736862Y-45626080D01*
X47907280Y-45512209D01*
X48052209Y-45367280D01*
X48166080Y-45196862D01*
X48244515Y-45007503D01*
X48284500Y-44806480D01*
X48284500Y-44601520D01*
X48743500Y-44601520D01*
X48743500Y-44806480D01*
X48783485Y-45007503D01*
X48861920Y-45196862D01*
X48975791Y-45367280D01*
X49120720Y-45512209D01*
X49291138Y-45626080D01*
X49480497Y-45704515D01*
X49681520Y-45744500D01*
X49886480Y-45744500D01*
X50087503Y-45704515D01*
X50276862Y-45626080D01*
X50447280Y-45512209D01*
X50592209Y-45367280D01*
X50706080Y-45196862D01*
X50784515Y-45007503D01*
X50824500Y-44806480D01*
X50824500Y-44601520D01*
X51283500Y-44601520D01*
X51283500Y-44806480D01*
X51323485Y-45007503D01*
X51401920Y-45196862D01*
X51515791Y-45367280D01*
X51660720Y-45512209D01*
X51831138Y-45626080D01*
X52020497Y-45704515D01*
X52221520Y-45744500D01*
X52426480Y-45744500D01*
X52627503Y-45704515D01*
X52816862Y-45626080D01*
X52987280Y-45512209D01*
X53132209Y-45367280D01*
X53246080Y-45196862D01*
X53324515Y-45007503D01*
X53364500Y-44806480D01*
X53364500Y-44601520D01*
X53823500Y-44601520D01*
X53823500Y-44806480D01*
X53863485Y-45007503D01*
X53941920Y-45196862D01*
X54055791Y-45367280D01*
X54200720Y-45512209D01*
X54371138Y-45626080D01*
X54560497Y-45704515D01*
X54761520Y-45744500D01*
X54966480Y-45744500D01*
X55167503Y-45704515D01*
X55356862Y-45626080D01*
X55527280Y-45512209D01*
X55672209Y-45367280D01*
X55786080Y-45196862D01*
X55864515Y-45007503D01*
X55904500Y-44806480D01*
X55904500Y-44601520D01*
X56363500Y-44601520D01*
X56363500Y-44806480D01*
X56403485Y-45007503D01*
X56481920Y-45196862D01*
X56595791Y-45367280D01*
X56740720Y-45512209D01*
X56911138Y-45626080D01*
X57100497Y-45704515D01*
X57301520Y-45744500D01*
X57506480Y-45744500D01*
X57707503Y-45704515D01*
X57896862Y-45626080D01*
X58067280Y-45512209D01*
X58212209Y-45367280D01*
X58326080Y-45196862D01*
X58404515Y-45007503D01*
X58444500Y-44806480D01*
X58444500Y-44601520D01*
X58903500Y-44601520D01*
X58903500Y-44806480D01*
X58943485Y-45007503D01*
X59021920Y-45196862D01*
X59135791Y-45367280D01*
X59280720Y-45512209D01*
X59451138Y-45626080D01*
X59640497Y-45704515D01*
X59841520Y-45744500D01*
X60046480Y-45744500D01*
X60247503Y-45704515D01*
X60436862Y-45626080D01*
X60607280Y-45512209D01*
X60752209Y-45367280D01*
X60866080Y-45196862D01*
X60944515Y-45007503D01*
X60984500Y-44806480D01*
X60984500Y-44601520D01*
X61443500Y-44601520D01*
X61443500Y-44806480D01*
X61483485Y-45007503D01*
X61561920Y-45196862D01*
X61675791Y-45367280D01*
X61820720Y-45512209D01*
X61991138Y-45626080D01*
X62180497Y-45704515D01*
X62381520Y-45744500D01*
X62586480Y-45744500D01*
X62787503Y-45704515D01*
X62976862Y-45626080D01*
X63147280Y-45512209D01*
X63292209Y-45367280D01*
X63406080Y-45196862D01*
X63484515Y-45007503D01*
X63524500Y-44806480D01*
X63524500Y-44601520D01*
X63484515Y-44400497D01*
X63406080Y-44211138D01*
X63292209Y-44040720D01*
X63147280Y-43895791D01*
X62976862Y-43781920D01*
X62787503Y-43703485D01*
X62586480Y-43663500D01*
X62381520Y-43663500D01*
X62180497Y-43703485D01*
X61991138Y-43781920D01*
X61820720Y-43895791D01*
X61675791Y-44040720D01*
X61561920Y-44211138D01*
X61483485Y-44400497D01*
X61443500Y-44601520D01*
X60984500Y-44601520D01*
X60944515Y-44400497D01*
X60866080Y-44211138D01*
X60752209Y-44040720D01*
X60607280Y-43895791D01*
X60436862Y-43781920D01*
X60247503Y-43703485D01*
X60046480Y-43663500D01*
X59841520Y-43663500D01*
X59640497Y-43703485D01*
X59451138Y-43781920D01*
X59280720Y-43895791D01*
X59135791Y-44040720D01*
X59021920Y-44211138D01*
X58943485Y-44400497D01*
X58903500Y-44601520D01*
X58444500Y-44601520D01*
X58404515Y-44400497D01*
X58326080Y-44211138D01*
X58212209Y-44040720D01*
X58067280Y-43895791D01*
X57896862Y-43781920D01*
X57707503Y-43703485D01*
X57506480Y-43663500D01*
X57301520Y-43663500D01*
X57100497Y-43703485D01*
X56911138Y-43781920D01*
X56740720Y-43895791D01*
X56595791Y-44040720D01*
X56481920Y-44211138D01*
X56403485Y-44400497D01*
X56363500Y-44601520D01*
X55904500Y-44601520D01*
X55864515Y-44400497D01*
X55786080Y-44211138D01*
X55672209Y-44040720D01*
X55527280Y-43895791D01*
X55356862Y-43781920D01*
X55167503Y-43703485D01*
X54966480Y-43663500D01*
X54761520Y-43663500D01*
X54560497Y-43703485D01*
X54371138Y-43781920D01*
X54200720Y-43895791D01*
X54055791Y-44040720D01*
X53941920Y-44211138D01*
X53863485Y-44400497D01*
X53823500Y-44601520D01*
X53364500Y-44601520D01*
X53324515Y-44400497D01*
X53246080Y-44211138D01*
X53132209Y-44040720D01*
X52987280Y-43895791D01*
X52816862Y-43781920D01*
X52627503Y-43703485D01*
X52426480Y-43663500D01*
X52221520Y-43663500D01*
X52020497Y-43703485D01*
X51831138Y-43781920D01*
X51660720Y-43895791D01*
X51515791Y-44040720D01*
X51401920Y-44211138D01*
X51323485Y-44400497D01*
X51283500Y-44601520D01*
X50824500Y-44601520D01*
X50784515Y-44400497D01*
X50706080Y-44211138D01*
X50592209Y-44040720D01*
X50447280Y-43895791D01*
X50276862Y-43781920D01*
X50087503Y-43703485D01*
X49886480Y-43663500D01*
X49681520Y-43663500D01*
X49480497Y-43703485D01*
X49291138Y-43781920D01*
X49120720Y-43895791D01*
X48975791Y-44040720D01*
X48861920Y-44211138D01*
X48783485Y-44400497D01*
X48743500Y-44601520D01*
X48284500Y-44601520D01*
X48244515Y-44400497D01*
X48166080Y-44211138D01*
X48052209Y-44040720D01*
X47907280Y-43895791D01*
X47736862Y-43781920D01*
X47547503Y-43703485D01*
X47346480Y-43663500D01*
X47141520Y-43663500D01*
X46940497Y-43703485D01*
X46751138Y-43781920D01*
X46580720Y-43895791D01*
X46435791Y-44040720D01*
X46321920Y-44211138D01*
X46243485Y-44400497D01*
X46203500Y-44601520D01*
X45745421Y-44601520D01*
X45745421Y-43854000D01*
X45741743Y-43816656D01*
X45730850Y-43780746D01*
X45713161Y-43747652D01*
X45689355Y-43718645D01*
X45660348Y-43694839D01*
X45627254Y-43677150D01*
X45591344Y-43666257D01*
X45554000Y-43662579D01*
X43854000Y-43662579D01*
X43816656Y-43666257D01*
X43780746Y-43677150D01*
X43747652Y-43694839D01*
X43718645Y-43718645D01*
X43694839Y-43747652D01*
X43677150Y-43780746D01*
X43666257Y-43816656D01*
X43662579Y-43854000D01*
X42462100Y-43854000D01*
X42462100Y-42061520D01*
X43663500Y-42061520D01*
X43663500Y-42266480D01*
X43703485Y-42467503D01*
X43781920Y-42656862D01*
X43895791Y-42827280D01*
X44040720Y-42972209D01*
X44211138Y-43086080D01*
X44400497Y-43164515D01*
X44601520Y-43204500D01*
X44806480Y-43204500D01*
X45007503Y-43164515D01*
X45196862Y-43086080D01*
X45367280Y-42972209D01*
X45512209Y-42827280D01*
X45626080Y-42656862D01*
X45704515Y-42467503D01*
X45744500Y-42266480D01*
X45744500Y-42061520D01*
X46203500Y-42061520D01*
X46203500Y-42266480D01*
X46243485Y-42467503D01*
X46321920Y-42656862D01*
X46435791Y-42827280D01*
X46580720Y-42972209D01*
X46751138Y-43086080D01*
X46940497Y-43164515D01*
X47141520Y-43204500D01*
X47346480Y-43204500D01*
X47547503Y-43164515D01*
X47736862Y-43086080D01*
X47907280Y-42972209D01*
X48052209Y-42827280D01*
X48166080Y-42656862D01*
X48244515Y-42467503D01*
X48284500Y-42266480D01*
X48284500Y-42061520D01*
X48743500Y-42061520D01*
X48743500Y-42266480D01*
X48783485Y-42467503D01*
X48861920Y-42656862D01*
X48975791Y-42827280D01*
X49120720Y-42972209D01*
X49291138Y-43086080D01*
X49480497Y-43164515D01*
X49681520Y-43204500D01*
X49886480Y-43204500D01*
X50087503Y-43164515D01*
X50276862Y-43086080D01*
X50447280Y-42972209D01*
X50592209Y-42827280D01*
X50706080Y-42656862D01*
X50784515Y-42467503D01*
X50824500Y-42266480D01*
X50824500Y-42061520D01*
X51283500Y-42061520D01*
X51283500Y-42266480D01*
X51323485Y-42467503D01*
X51401920Y-42656862D01*
X51515791Y-42827280D01*
X51660720Y-42972209D01*
X51831138Y-43086080D01*
X52020497Y-43164515D01*
X52221520Y-43204500D01*
X52426480Y-43204500D01*
X52627503Y-43164515D01*
X52816862Y-43086080D01*
X52987280Y-42972209D01*
X53132209Y-42827280D01*
X53246080Y-42656862D01*
X53324515Y-42467503D01*
X53364500Y-42266480D01*
X53364500Y-42061520D01*
X53823500Y-42061520D01*
X53823500Y-42266480D01*
X53863485Y-42467503D01*
X53941920Y-42656862D01*
X54055791Y-42827280D01*
X54200720Y-42972209D01*
X54371138Y-43086080D01*
X54560497Y-43164515D01*
X54761520Y-43204500D01*
X54966480Y-43204500D01*
X55167503Y-43164515D01*
X55356862Y-43086080D01*
X55527280Y-42972209D01*
X55672209Y-42827280D01*
X55786080Y-42656862D01*
X55864515Y-42467503D01*
X55904500Y-42266480D01*
X55904500Y-42061520D01*
X56363500Y-42061520D01*
X56363500Y-42266480D01*
X56403485Y-42467503D01*
X56481920Y-42656862D01*
X56595791Y-42827280D01*
X56740720Y-42972209D01*
X56911138Y-43086080D01*
X57100497Y-43164515D01*
X57301520Y-43204500D01*
X57506480Y-43204500D01*
X57707503Y-43164515D01*
X57896862Y-43086080D01*
X58067280Y-42972209D01*
X58212209Y-42827280D01*
X58326080Y-42656862D01*
X58404515Y-42467503D01*
X58444500Y-42266480D01*
X58444500Y-42061520D01*
X58903500Y-42061520D01*
X58903500Y-42266480D01*
X58943485Y-42467503D01*
X59021920Y-42656862D01*
X59135791Y-42827280D01*
X59280720Y-42972209D01*
X59451138Y-43086080D01*
X59640497Y-43164515D01*
X59841520Y-43204500D01*
X60046480Y-43204500D01*
X60247503Y-43164515D01*
X60436862Y-43086080D01*
X60607280Y-42972209D01*
X60752209Y-42827280D01*
X60866080Y-42656862D01*
X60944515Y-42467503D01*
X60984500Y-42266480D01*
X60984500Y-42061520D01*
X61443500Y-42061520D01*
X61443500Y-42266480D01*
X61483485Y-42467503D01*
X61561920Y-42656862D01*
X61675791Y-42827280D01*
X61820720Y-42972209D01*
X61991138Y-43086080D01*
X62180497Y-43164515D01*
X62381520Y-43204500D01*
X62586480Y-43204500D01*
X62787503Y-43164515D01*
X62976862Y-43086080D01*
X63147280Y-42972209D01*
X63292209Y-42827280D01*
X63406080Y-42656862D01*
X63484515Y-42467503D01*
X63524500Y-42266480D01*
X63524500Y-42061520D01*
X63484515Y-41860497D01*
X63406080Y-41671138D01*
X63292209Y-41500720D01*
X63147280Y-41355791D01*
X62976862Y-41241920D01*
X62787503Y-41163485D01*
X62586480Y-41123500D01*
X62381520Y-41123500D01*
X62180497Y-41163485D01*
X61991138Y-41241920D01*
X61820720Y-41355791D01*
X61675791Y-41500720D01*
X61561920Y-41671138D01*
X61483485Y-41860497D01*
X61443500Y-42061520D01*
X60984500Y-42061520D01*
X60944515Y-41860497D01*
X60866080Y-41671138D01*
X60752209Y-41500720D01*
X60607280Y-41355791D01*
X60436862Y-41241920D01*
X60247503Y-41163485D01*
X60046480Y-41123500D01*
X59841520Y-41123500D01*
X59640497Y-41163485D01*
X59451138Y-41241920D01*
X59280720Y-41355791D01*
X59135791Y-41500720D01*
X59021920Y-41671138D01*
X58943485Y-41860497D01*
X58903500Y-42061520D01*
X58444500Y-42061520D01*
X58404515Y-41860497D01*
X58326080Y-41671138D01*
X58212209Y-41500720D01*
X58067280Y-41355791D01*
X57896862Y-41241920D01*
X57707503Y-41163485D01*
X57506480Y-41123500D01*
X57301520Y-41123500D01*
X57100497Y-41163485D01*
X56911138Y-41241920D01*
X56740720Y-41355791D01*
X56595791Y-41500720D01*
X56481920Y-41671138D01*
X56403485Y-41860497D01*
X56363500Y-42061520D01*
X55904500Y-42061520D01*
X55864515Y-41860497D01*
X55786080Y-41671138D01*
X55672209Y-41500720D01*
X55527280Y-41355791D01*
X55356862Y-41241920D01*
X55167503Y-41163485D01*
X54966480Y-41123500D01*
X54761520Y-41123500D01*
X54560497Y-41163485D01*
X54371138Y-41241920D01*
X54200720Y-41355791D01*
X54055791Y-41500720D01*
X53941920Y-41671138D01*
X53863485Y-41860497D01*
X53823500Y-42061520D01*
X53364500Y-42061520D01*
X53324515Y-41860497D01*
X53246080Y-41671138D01*
X53132209Y-41500720D01*
X52987280Y-41355791D01*
X52816862Y-41241920D01*
X52627503Y-41163485D01*
X52426480Y-41123500D01*
X52221520Y-41123500D01*
X52020497Y-41163485D01*
X51831138Y-41241920D01*
X51660720Y-41355791D01*
X51515791Y-41500720D01*
X51401920Y-41671138D01*
X51323485Y-41860497D01*
X51283500Y-42061520D01*
X50824500Y-42061520D01*
X50784515Y-41860497D01*
X50706080Y-41671138D01*
X50592209Y-41500720D01*
X50447280Y-41355791D01*
X50276862Y-41241920D01*
X50087503Y-41163485D01*
X49886480Y-41123500D01*
X49681520Y-41123500D01*
X49480497Y-41163485D01*
X49291138Y-41241920D01*
X49120720Y-41355791D01*
X48975791Y-41500720D01*
X48861920Y-41671138D01*
X48783485Y-41860497D01*
X48743500Y-42061520D01*
X48284500Y-42061520D01*
X48244515Y-41860497D01*
X48166080Y-41671138D01*
X48052209Y-41500720D01*
X47907280Y-41355791D01*
X47736862Y-41241920D01*
X47547503Y-41163485D01*
X47346480Y-41123500D01*
X47141520Y-41123500D01*
X46940497Y-41163485D01*
X46751138Y-41241920D01*
X46580720Y-41355791D01*
X46435791Y-41500720D01*
X46321920Y-41671138D01*
X46243485Y-41860497D01*
X46203500Y-42061520D01*
X45744500Y-42061520D01*
X45704515Y-41860497D01*
X45626080Y-41671138D01*
X45512209Y-41500720D01*
X45367280Y-41355791D01*
X45196862Y-41241920D01*
X45007503Y-41163485D01*
X44806480Y-41123500D01*
X44601520Y-41123500D01*
X44400497Y-41163485D01*
X44211138Y-41241920D01*
X44040720Y-41355791D01*
X43895791Y-41500720D01*
X43781920Y-41671138D01*
X43703485Y-41860497D01*
X43663500Y-42061520D01*
X42462100Y-42061520D01*
X42462100Y-39013773D01*
X57317974Y-24157900D01*
X137120804Y-24157900D01*
X137985622Y-24233562D01*
D16*
%TO.N,Earth*%
G36*
X140030285Y-25203607D02*
G01*
X140249757Y-25357283D01*
X140847517Y-25955043D01*
X141332403Y-26647531D01*
X141689667Y-27413689D01*
X141908465Y-28230254D01*
X141984652Y-29101074D01*
X141985000Y-29103048D01*
X141985001Y-54037281D01*
X122063193Y-53989622D01*
X122684175Y-53368640D01*
X122698711Y-53356711D01*
X122722250Y-53328028D01*
X122746322Y-53298697D01*
X122758645Y-53275641D01*
X122781701Y-53232508D01*
X122803487Y-53160689D01*
X122809000Y-53104713D01*
X122809000Y-53104704D01*
X122810842Y-53086001D01*
X122809000Y-53067298D01*
X122809000Y-48763605D01*
X131958000Y-48763605D01*
X132083914Y-49053577D01*
X132416126Y-49219433D01*
X132774312Y-49317290D01*
X133144706Y-49343389D01*
X133513075Y-49296725D01*
X133865262Y-49179094D01*
X134100086Y-49053577D01*
X134226000Y-48763605D01*
X133092000Y-47629605D01*
X131958000Y-48763605D01*
X122809000Y-48763605D01*
X122809000Y-47502706D01*
X131198611Y-47502706D01*
X131245275Y-47871075D01*
X131362906Y-48223262D01*
X131488423Y-48458086D01*
X131778395Y-48584000D01*
X132912395Y-47450000D01*
X133271605Y-47450000D01*
X134405605Y-48584000D01*
X134695577Y-48458086D01*
X134861433Y-48125874D01*
X134959290Y-47767688D01*
X134985389Y-47397294D01*
X134938725Y-47028925D01*
X134821094Y-46676738D01*
X134695577Y-46441914D01*
X134405605Y-46316000D01*
X133271605Y-47450000D01*
X132912395Y-47450000D01*
X131778395Y-46316000D01*
X131488423Y-46441914D01*
X131322567Y-46774126D01*
X131224710Y-47132312D01*
X131198611Y-47502706D01*
X122809000Y-47502706D01*
X122809000Y-47392475D01*
X122858320Y-47343155D01*
X122918949Y-47252418D01*
X122960711Y-47151596D01*
X122982000Y-47044564D01*
X122982000Y-46935436D01*
X122960711Y-46828404D01*
X122918949Y-46727582D01*
X122858320Y-46636845D01*
X122809000Y-46587525D01*
X122809000Y-46016039D01*
X126578000Y-46016039D01*
X126578000Y-46203961D01*
X126614662Y-46388272D01*
X126686576Y-46561888D01*
X126790980Y-46718140D01*
X126923860Y-46851020D01*
X127080112Y-46955424D01*
X127253728Y-47027338D01*
X127438039Y-47064000D01*
X127625961Y-47064000D01*
X127810272Y-47027338D01*
X127983888Y-46955424D01*
X128140140Y-46851020D01*
X128273020Y-46718140D01*
X128377424Y-46561888D01*
X128449338Y-46388272D01*
X128486000Y-46203961D01*
X128486000Y-46136395D01*
X131958000Y-46136395D01*
X133092000Y-47270395D01*
X134226000Y-46136395D01*
X134100086Y-45846423D01*
X133767874Y-45680567D01*
X133409688Y-45582710D01*
X133039294Y-45556611D01*
X132670925Y-45603275D01*
X132318738Y-45720906D01*
X132083914Y-45846423D01*
X131958000Y-46136395D01*
X128486000Y-46136395D01*
X128486000Y-46016039D01*
X128449338Y-45831728D01*
X128377424Y-45658112D01*
X128273020Y-45501860D01*
X128188557Y-45417397D01*
X134798000Y-45417397D01*
X134798000Y-45782603D01*
X134869248Y-46140792D01*
X135009006Y-46478198D01*
X135211904Y-46781856D01*
X135470144Y-47040096D01*
X135773802Y-47242994D01*
X136111208Y-47382752D01*
X136469397Y-47454000D01*
X136834603Y-47454000D01*
X137192792Y-47382752D01*
X137530198Y-47242994D01*
X137833856Y-47040096D01*
X138092096Y-46781856D01*
X138294994Y-46478198D01*
X138434752Y-46140792D01*
X138506000Y-45782603D01*
X138506000Y-45417397D01*
X138434752Y-45059208D01*
X138294994Y-44721802D01*
X138092096Y-44418144D01*
X137833856Y-44159904D01*
X137530198Y-43957006D01*
X137192792Y-43817248D01*
X136834603Y-43746000D01*
X136469397Y-43746000D01*
X136111208Y-43817248D01*
X135773802Y-43957006D01*
X135470144Y-44159904D01*
X135211904Y-44418144D01*
X135009006Y-44721802D01*
X134869248Y-45059208D01*
X134798000Y-45417397D01*
X128188557Y-45417397D01*
X128140140Y-45368980D01*
X127983888Y-45264576D01*
X127810272Y-45192662D01*
X127625961Y-45156000D01*
X127438039Y-45156000D01*
X127253728Y-45192662D01*
X127080112Y-45264576D01*
X126923860Y-45368980D01*
X126790980Y-45501860D01*
X126686576Y-45658112D01*
X126614662Y-45831728D01*
X126578000Y-46016039D01*
X122809000Y-46016039D01*
X122809000Y-45868475D01*
X122858320Y-45819155D01*
X122918949Y-45728418D01*
X122960711Y-45627596D01*
X122982000Y-45520564D01*
X122982000Y-45411436D01*
X122960711Y-45304404D01*
X122918949Y-45203582D01*
X122858320Y-45112845D01*
X122809000Y-45063525D01*
X122809000Y-43726039D01*
X126578000Y-43726039D01*
X126578000Y-43913961D01*
X126614662Y-44098272D01*
X126686576Y-44271888D01*
X126790980Y-44428140D01*
X126923860Y-44561020D01*
X127080112Y-44665424D01*
X127253728Y-44737338D01*
X127438039Y-44774000D01*
X127625961Y-44774000D01*
X127810272Y-44737338D01*
X127983888Y-44665424D01*
X128140140Y-44561020D01*
X128273020Y-44428140D01*
X128377424Y-44271888D01*
X128449338Y-44098272D01*
X128486000Y-43913961D01*
X128486000Y-43726039D01*
X128449338Y-43541728D01*
X128377424Y-43368112D01*
X128273020Y-43211860D01*
X128140140Y-43078980D01*
X127983888Y-42974576D01*
X127810272Y-42902662D01*
X127625961Y-42866000D01*
X127438039Y-42866000D01*
X127253728Y-42902662D01*
X127080112Y-42974576D01*
X126923860Y-43078980D01*
X126790980Y-43211860D01*
X126686576Y-43368112D01*
X126614662Y-43541728D01*
X126578000Y-43726039D01*
X122809000Y-43726039D01*
X122809000Y-42726039D01*
X131378000Y-42726039D01*
X131378000Y-42913961D01*
X131414662Y-43098272D01*
X131486576Y-43271888D01*
X131590980Y-43428140D01*
X131723860Y-43561020D01*
X131880112Y-43665424D01*
X132053728Y-43737338D01*
X132238039Y-43774000D01*
X132425961Y-43774000D01*
X132610272Y-43737338D01*
X132783888Y-43665424D01*
X132940140Y-43561020D01*
X133073020Y-43428140D01*
X133177424Y-43271888D01*
X133249338Y-43098272D01*
X133286000Y-42913961D01*
X133286000Y-42726039D01*
X133249338Y-42541728D01*
X133177424Y-42368112D01*
X133073020Y-42211860D01*
X132940140Y-42078980D01*
X132783888Y-41974576D01*
X132610272Y-41902662D01*
X132425961Y-41866000D01*
X132238039Y-41866000D01*
X132053728Y-41902662D01*
X131880112Y-41974576D01*
X131723860Y-42078980D01*
X131590980Y-42211860D01*
X131486576Y-42368112D01*
X131414662Y-42541728D01*
X131378000Y-42726039D01*
X122809000Y-42726039D01*
X122809000Y-40686039D01*
X131378000Y-40686039D01*
X131378000Y-40873961D01*
X131414662Y-41058272D01*
X131486576Y-41231888D01*
X131590980Y-41388140D01*
X131723860Y-41521020D01*
X131880112Y-41625424D01*
X132053728Y-41697338D01*
X132238039Y-41734000D01*
X132425961Y-41734000D01*
X132566529Y-41706039D01*
X133158000Y-41706039D01*
X133158000Y-41893961D01*
X133194662Y-42078272D01*
X133266576Y-42251888D01*
X133370980Y-42408140D01*
X133503860Y-42541020D01*
X133660112Y-42645424D01*
X133833728Y-42717338D01*
X134018039Y-42754000D01*
X134205961Y-42754000D01*
X134390272Y-42717338D01*
X134563888Y-42645424D01*
X134720140Y-42541020D01*
X134853020Y-42408140D01*
X134957424Y-42251888D01*
X135029338Y-42078272D01*
X135066000Y-41893961D01*
X135066000Y-41706039D01*
X135029338Y-41521728D01*
X134957424Y-41348112D01*
X134853020Y-41191860D01*
X134720140Y-41058980D01*
X134563888Y-40954576D01*
X134390272Y-40882662D01*
X134205961Y-40846000D01*
X134018039Y-40846000D01*
X133833728Y-40882662D01*
X133660112Y-40954576D01*
X133503860Y-41058980D01*
X133370980Y-41191860D01*
X133266576Y-41348112D01*
X133194662Y-41521728D01*
X133158000Y-41706039D01*
X132566529Y-41706039D01*
X132610272Y-41697338D01*
X132783888Y-41625424D01*
X132940140Y-41521020D01*
X133073020Y-41388140D01*
X133177424Y-41231888D01*
X133249338Y-41058272D01*
X133286000Y-40873961D01*
X133286000Y-40686039D01*
X133249338Y-40501728D01*
X133177424Y-40328112D01*
X133073020Y-40171860D01*
X132940140Y-40038980D01*
X132783888Y-39934576D01*
X132610272Y-39862662D01*
X132425961Y-39826000D01*
X132238039Y-39826000D01*
X132053728Y-39862662D01*
X131880112Y-39934576D01*
X131723860Y-40038980D01*
X131590980Y-40171860D01*
X131486576Y-40328112D01*
X131414662Y-40501728D01*
X131378000Y-40686039D01*
X122809000Y-40686039D01*
X122809000Y-40280475D01*
X122858320Y-40231155D01*
X122918949Y-40140418D01*
X122960711Y-40039596D01*
X122982000Y-39932564D01*
X122982000Y-39823436D01*
X122960711Y-39716404D01*
X122918949Y-39615582D01*
X122858320Y-39524845D01*
X122781155Y-39447680D01*
X122690418Y-39387051D01*
X122589596Y-39345289D01*
X122482564Y-39324000D01*
X122373436Y-39324000D01*
X122266404Y-39345289D01*
X122165582Y-39387051D01*
X122074845Y-39447680D01*
X121997680Y-39524845D01*
X121937051Y-39615582D01*
X121895289Y-39716404D01*
X121874000Y-39823436D01*
X121874000Y-39932564D01*
X121895289Y-40039596D01*
X121937051Y-40140418D01*
X121997680Y-40231155D01*
X122047000Y-40280475D01*
X122047001Y-45063524D01*
X121997680Y-45112845D01*
X121937051Y-45203582D01*
X121895289Y-45304404D01*
X121874000Y-45411436D01*
X121874000Y-45520564D01*
X121895289Y-45627596D01*
X121937051Y-45728418D01*
X121997680Y-45819155D01*
X122047000Y-45868475D01*
X122047001Y-46587524D01*
X121997680Y-46636845D01*
X121937051Y-46727582D01*
X121895289Y-46828404D01*
X121874000Y-46935436D01*
X121874000Y-47044564D01*
X121895289Y-47151596D01*
X121937051Y-47252418D01*
X121997680Y-47343155D01*
X122047001Y-47392476D01*
X122047000Y-52928185D01*
X120988136Y-53987050D01*
X116078000Y-53975303D01*
X116078000Y-38299436D01*
X122890000Y-38299436D01*
X122890000Y-38408564D01*
X122911289Y-38515596D01*
X122953051Y-38616418D01*
X123013680Y-38707155D01*
X123090845Y-38784320D01*
X123181582Y-38844949D01*
X123282404Y-38886711D01*
X123389436Y-38908000D01*
X123498564Y-38908000D01*
X123605596Y-38886711D01*
X123706418Y-38844949D01*
X123797155Y-38784320D01*
X123874320Y-38707155D01*
X123915156Y-38646039D01*
X131378000Y-38646039D01*
X131378000Y-38833961D01*
X131414662Y-39018272D01*
X131486576Y-39191888D01*
X131590980Y-39348140D01*
X131723860Y-39481020D01*
X131880112Y-39585424D01*
X132053728Y-39657338D01*
X132238039Y-39694000D01*
X132425961Y-39694000D01*
X132566529Y-39666039D01*
X133158000Y-39666039D01*
X133158000Y-39853961D01*
X133194662Y-40038272D01*
X133266576Y-40211888D01*
X133370980Y-40368140D01*
X133503860Y-40501020D01*
X133660112Y-40605424D01*
X133833728Y-40677338D01*
X134018039Y-40714000D01*
X134205961Y-40714000D01*
X134390272Y-40677338D01*
X134563888Y-40605424D01*
X134720140Y-40501020D01*
X134853020Y-40368140D01*
X134957424Y-40211888D01*
X135029338Y-40038272D01*
X135066000Y-39853961D01*
X135066000Y-39666039D01*
X135029338Y-39481728D01*
X134957424Y-39308112D01*
X134853020Y-39151860D01*
X134720140Y-39018980D01*
X134563888Y-38914576D01*
X134390272Y-38842662D01*
X134205961Y-38806000D01*
X134018039Y-38806000D01*
X133833728Y-38842662D01*
X133660112Y-38914576D01*
X133503860Y-39018980D01*
X133370980Y-39151860D01*
X133266576Y-39308112D01*
X133194662Y-39481728D01*
X133158000Y-39666039D01*
X132566529Y-39666039D01*
X132610272Y-39657338D01*
X132783888Y-39585424D01*
X132940140Y-39481020D01*
X133073020Y-39348140D01*
X133177424Y-39191888D01*
X133249338Y-39018272D01*
X133286000Y-38833961D01*
X133286000Y-38646039D01*
X133249338Y-38461728D01*
X133177424Y-38288112D01*
X133073020Y-38131860D01*
X132940140Y-37998980D01*
X132783888Y-37894576D01*
X132610272Y-37822662D01*
X132425961Y-37786000D01*
X132238039Y-37786000D01*
X132053728Y-37822662D01*
X131880112Y-37894576D01*
X131723860Y-37998980D01*
X131590980Y-38131860D01*
X131486576Y-38288112D01*
X131414662Y-38461728D01*
X131378000Y-38646039D01*
X123915156Y-38646039D01*
X123934949Y-38616418D01*
X123976711Y-38515596D01*
X123998000Y-38408564D01*
X123998000Y-38299436D01*
X123976711Y-38192404D01*
X123934949Y-38091582D01*
X123874320Y-38000845D01*
X123825000Y-37951525D01*
X123825000Y-37523814D01*
X124742775Y-36606039D01*
X131378000Y-36606039D01*
X131378000Y-36793961D01*
X131414662Y-36978272D01*
X131486576Y-37151888D01*
X131590980Y-37308140D01*
X131723860Y-37441020D01*
X131880112Y-37545424D01*
X132053728Y-37617338D01*
X132238039Y-37654000D01*
X132425961Y-37654000D01*
X132566529Y-37626039D01*
X133158000Y-37626039D01*
X133158000Y-37813961D01*
X133194662Y-37998272D01*
X133266576Y-38171888D01*
X133370980Y-38328140D01*
X133503860Y-38461020D01*
X133660112Y-38565424D01*
X133833728Y-38637338D01*
X134018039Y-38674000D01*
X134205961Y-38674000D01*
X134390272Y-38637338D01*
X134563888Y-38565424D01*
X134720140Y-38461020D01*
X134853020Y-38328140D01*
X134957424Y-38171888D01*
X135029338Y-37998272D01*
X135066000Y-37813961D01*
X135066000Y-37626039D01*
X135029338Y-37441728D01*
X134957424Y-37268112D01*
X134853020Y-37111860D01*
X134720140Y-36978980D01*
X134563888Y-36874576D01*
X134390272Y-36802662D01*
X134205961Y-36766000D01*
X134018039Y-36766000D01*
X133833728Y-36802662D01*
X133660112Y-36874576D01*
X133503860Y-36978980D01*
X133370980Y-37111860D01*
X133266576Y-37268112D01*
X133194662Y-37441728D01*
X133158000Y-37626039D01*
X132566529Y-37626039D01*
X132610272Y-37617338D01*
X132783888Y-37545424D01*
X132940140Y-37441020D01*
X133073020Y-37308140D01*
X133177424Y-37151888D01*
X133249338Y-36978272D01*
X133286000Y-36793961D01*
X133286000Y-36606039D01*
X133249338Y-36421728D01*
X133177424Y-36248112D01*
X133073020Y-36091860D01*
X132940140Y-35958980D01*
X132783888Y-35854576D01*
X132610272Y-35782662D01*
X132425961Y-35746000D01*
X132238039Y-35746000D01*
X132053728Y-35782662D01*
X131880112Y-35854576D01*
X131723860Y-35958980D01*
X131590980Y-36091860D01*
X131486576Y-36248112D01*
X131414662Y-36421728D01*
X131378000Y-36606039D01*
X124742775Y-36606039D01*
X126287816Y-35061000D01*
X126657213Y-35061000D01*
X126686576Y-35131888D01*
X126790980Y-35288140D01*
X126923860Y-35421020D01*
X127080112Y-35525424D01*
X127253728Y-35597338D01*
X127438039Y-35634000D01*
X127625961Y-35634000D01*
X127810272Y-35597338D01*
X127837550Y-35586039D01*
X133158000Y-35586039D01*
X133158000Y-35773961D01*
X133194662Y-35958272D01*
X133266576Y-36131888D01*
X133370980Y-36288140D01*
X133503860Y-36421020D01*
X133660112Y-36525424D01*
X133833728Y-36597338D01*
X134018039Y-36634000D01*
X134205961Y-36634000D01*
X134390272Y-36597338D01*
X134563888Y-36525424D01*
X134720140Y-36421020D01*
X134853020Y-36288140D01*
X134957424Y-36131888D01*
X135029338Y-35958272D01*
X135066000Y-35773961D01*
X135066000Y-35586039D01*
X135029338Y-35401728D01*
X134957424Y-35228112D01*
X134853020Y-35071860D01*
X134720140Y-34938980D01*
X134563888Y-34834576D01*
X134390272Y-34762662D01*
X134205961Y-34726000D01*
X134018039Y-34726000D01*
X133833728Y-34762662D01*
X133660112Y-34834576D01*
X133503860Y-34938980D01*
X133370980Y-35071860D01*
X133266576Y-35228112D01*
X133194662Y-35401728D01*
X133158000Y-35586039D01*
X127837550Y-35586039D01*
X127983888Y-35525424D01*
X128140140Y-35421020D01*
X128273020Y-35288140D01*
X128377424Y-35131888D01*
X128449338Y-34958272D01*
X128486000Y-34773961D01*
X128486000Y-34586039D01*
X128449338Y-34401728D01*
X128377424Y-34228112D01*
X128273020Y-34071860D01*
X128140140Y-33938980D01*
X127983888Y-33834576D01*
X127810272Y-33762662D01*
X127625961Y-33726000D01*
X127438039Y-33726000D01*
X127253728Y-33762662D01*
X127080112Y-33834576D01*
X126923860Y-33938980D01*
X126790980Y-34071860D01*
X126686576Y-34228112D01*
X126657213Y-34299000D01*
X126148710Y-34299000D01*
X126130000Y-34297157D01*
X126111290Y-34299000D01*
X126111287Y-34299000D01*
X126055311Y-34304513D01*
X125983492Y-34326299D01*
X125917303Y-34361678D01*
X125873824Y-34397360D01*
X125873821Y-34397363D01*
X125859289Y-34409289D01*
X125847363Y-34423821D01*
X123187832Y-37083354D01*
X123173289Y-37095289D01*
X123141666Y-37133823D01*
X123125678Y-37153304D01*
X123090300Y-37219492D01*
X123090299Y-37219493D01*
X123068513Y-37291312D01*
X123066856Y-37308140D01*
X123061157Y-37366000D01*
X123063000Y-37384710D01*
X123063001Y-37951524D01*
X123013680Y-38000845D01*
X122953051Y-38091582D01*
X122911289Y-38192404D01*
X122890000Y-38299436D01*
X116078000Y-38299436D01*
X116078000Y-32296039D01*
X126578000Y-32296039D01*
X126578000Y-32483961D01*
X126614662Y-32668272D01*
X126686576Y-32841888D01*
X126790980Y-32998140D01*
X126923860Y-33131020D01*
X127080112Y-33235424D01*
X127253728Y-33307338D01*
X127438039Y-33344000D01*
X127625961Y-33344000D01*
X127810272Y-33307338D01*
X127983888Y-33235424D01*
X128140140Y-33131020D01*
X128273020Y-32998140D01*
X128377424Y-32841888D01*
X128449338Y-32668272D01*
X128486000Y-32483961D01*
X128486000Y-32363605D01*
X131958000Y-32363605D01*
X132083914Y-32653577D01*
X132416126Y-32819433D01*
X132774312Y-32917290D01*
X133144706Y-32943389D01*
X133513075Y-32896725D01*
X133865262Y-32779094D01*
X133980688Y-32717397D01*
X134798000Y-32717397D01*
X134798000Y-33082603D01*
X134869248Y-33440792D01*
X135009006Y-33778198D01*
X135211904Y-34081856D01*
X135470144Y-34340096D01*
X135773802Y-34542994D01*
X136111208Y-34682752D01*
X136469397Y-34754000D01*
X136834603Y-34754000D01*
X137192792Y-34682752D01*
X137530198Y-34542994D01*
X137833856Y-34340096D01*
X138092096Y-34081856D01*
X138294994Y-33778198D01*
X138434752Y-33440792D01*
X138506000Y-33082603D01*
X138506000Y-32717397D01*
X138434752Y-32359208D01*
X138294994Y-32021802D01*
X138092096Y-31718144D01*
X137833856Y-31459904D01*
X137530198Y-31257006D01*
X137192792Y-31117248D01*
X136834603Y-31046000D01*
X136469397Y-31046000D01*
X136111208Y-31117248D01*
X135773802Y-31257006D01*
X135470144Y-31459904D01*
X135211904Y-31718144D01*
X135009006Y-32021802D01*
X134869248Y-32359208D01*
X134798000Y-32717397D01*
X133980688Y-32717397D01*
X134100086Y-32653577D01*
X134226000Y-32363605D01*
X133092000Y-31229605D01*
X131958000Y-32363605D01*
X128486000Y-32363605D01*
X128486000Y-32296039D01*
X128449338Y-32111728D01*
X128377424Y-31938112D01*
X128273020Y-31781860D01*
X128140140Y-31648980D01*
X127983888Y-31544576D01*
X127810272Y-31472662D01*
X127625961Y-31436000D01*
X127438039Y-31436000D01*
X127253728Y-31472662D01*
X127080112Y-31544576D01*
X126923860Y-31648980D01*
X126790980Y-31781860D01*
X126686576Y-31938112D01*
X126614662Y-32111728D01*
X126578000Y-32296039D01*
X116078000Y-32296039D01*
X116078000Y-31102706D01*
X131198611Y-31102706D01*
X131245275Y-31471075D01*
X131362906Y-31823262D01*
X131488423Y-32058086D01*
X131778395Y-32184000D01*
X132912395Y-31050000D01*
X133271605Y-31050000D01*
X134405605Y-32184000D01*
X134695577Y-32058086D01*
X134861433Y-31725874D01*
X134959290Y-31367688D01*
X134985389Y-30997294D01*
X134938725Y-30628925D01*
X134821094Y-30276738D01*
X134695577Y-30041914D01*
X134405605Y-29916000D01*
X133271605Y-31050000D01*
X132912395Y-31050000D01*
X131778395Y-29916000D01*
X131488423Y-30041914D01*
X131322567Y-30374126D01*
X131224710Y-30732312D01*
X131198611Y-31102706D01*
X116078000Y-31102706D01*
X116078000Y-29736395D01*
X131958000Y-29736395D01*
X133092000Y-30870395D01*
X134226000Y-29736395D01*
X134100086Y-29446423D01*
X133767874Y-29280567D01*
X133409688Y-29182710D01*
X133039294Y-29156611D01*
X132670925Y-29203275D01*
X132318738Y-29320906D01*
X132083914Y-29446423D01*
X131958000Y-29736395D01*
X116078000Y-29736395D01*
X116078000Y-26588252D01*
X138489000Y-26588252D01*
X138489000Y-26751748D01*
X138520896Y-26912102D01*
X138583464Y-27063152D01*
X138674297Y-27199094D01*
X138789906Y-27314703D01*
X138925848Y-27405536D01*
X139076898Y-27468104D01*
X139237252Y-27500000D01*
X139400748Y-27500000D01*
X139561102Y-27468104D01*
X139712152Y-27405536D01*
X139848094Y-27314703D01*
X139963703Y-27199094D01*
X140054536Y-27063152D01*
X140117104Y-26912102D01*
X140149000Y-26751748D01*
X140149000Y-26588252D01*
X140117104Y-26427898D01*
X140054536Y-26276848D01*
X139963703Y-26140906D01*
X139848094Y-26025297D01*
X139712152Y-25934464D01*
X139561102Y-25871896D01*
X139400748Y-25840000D01*
X139237252Y-25840000D01*
X139076898Y-25871896D01*
X138925848Y-25934464D01*
X138789906Y-26025297D01*
X138674297Y-26140906D01*
X138583464Y-26276848D01*
X138520896Y-26427898D01*
X138489000Y-26588252D01*
X116078000Y-26588252D01*
X116078000Y-25146305D01*
X140030285Y-25203607D01*
G37*
X140030285Y-25203607D02*
X140249757Y-25357283D01*
X140847517Y-25955043D01*
X141332403Y-26647531D01*
X141689667Y-27413689D01*
X141908465Y-28230254D01*
X141984652Y-29101074D01*
X141985000Y-29103048D01*
X141985001Y-54037281D01*
X122063193Y-53989622D01*
X122684175Y-53368640D01*
X122698711Y-53356711D01*
X122722250Y-53328028D01*
X122746322Y-53298697D01*
X122758645Y-53275641D01*
X122781701Y-53232508D01*
X122803487Y-53160689D01*
X122809000Y-53104713D01*
X122809000Y-53104704D01*
X122810842Y-53086001D01*
X122809000Y-53067298D01*
X122809000Y-48763605D01*
X131958000Y-48763605D01*
X132083914Y-49053577D01*
X132416126Y-49219433D01*
X132774312Y-49317290D01*
X133144706Y-49343389D01*
X133513075Y-49296725D01*
X133865262Y-49179094D01*
X134100086Y-49053577D01*
X134226000Y-48763605D01*
X133092000Y-47629605D01*
X131958000Y-48763605D01*
X122809000Y-48763605D01*
X122809000Y-47502706D01*
X131198611Y-47502706D01*
X131245275Y-47871075D01*
X131362906Y-48223262D01*
X131488423Y-48458086D01*
X131778395Y-48584000D01*
X132912395Y-47450000D01*
X133271605Y-47450000D01*
X134405605Y-48584000D01*
X134695577Y-48458086D01*
X134861433Y-48125874D01*
X134959290Y-47767688D01*
X134985389Y-47397294D01*
X134938725Y-47028925D01*
X134821094Y-46676738D01*
X134695577Y-46441914D01*
X134405605Y-46316000D01*
X133271605Y-47450000D01*
X132912395Y-47450000D01*
X131778395Y-46316000D01*
X131488423Y-46441914D01*
X131322567Y-46774126D01*
X131224710Y-47132312D01*
X131198611Y-47502706D01*
X122809000Y-47502706D01*
X122809000Y-47392475D01*
X122858320Y-47343155D01*
X122918949Y-47252418D01*
X122960711Y-47151596D01*
X122982000Y-47044564D01*
X122982000Y-46935436D01*
X122960711Y-46828404D01*
X122918949Y-46727582D01*
X122858320Y-46636845D01*
X122809000Y-46587525D01*
X122809000Y-46016039D01*
X126578000Y-46016039D01*
X126578000Y-46203961D01*
X126614662Y-46388272D01*
X126686576Y-46561888D01*
X126790980Y-46718140D01*
X126923860Y-46851020D01*
X127080112Y-46955424D01*
X127253728Y-47027338D01*
X127438039Y-47064000D01*
X127625961Y-47064000D01*
X127810272Y-47027338D01*
X127983888Y-46955424D01*
X128140140Y-46851020D01*
X128273020Y-46718140D01*
X128377424Y-46561888D01*
X128449338Y-46388272D01*
X128486000Y-46203961D01*
X128486000Y-46136395D01*
X131958000Y-46136395D01*
X133092000Y-47270395D01*
X134226000Y-46136395D01*
X134100086Y-45846423D01*
X133767874Y-45680567D01*
X133409688Y-45582710D01*
X133039294Y-45556611D01*
X132670925Y-45603275D01*
X132318738Y-45720906D01*
X132083914Y-45846423D01*
X131958000Y-46136395D01*
X128486000Y-46136395D01*
X128486000Y-46016039D01*
X128449338Y-45831728D01*
X128377424Y-45658112D01*
X128273020Y-45501860D01*
X128188557Y-45417397D01*
X134798000Y-45417397D01*
X134798000Y-45782603D01*
X134869248Y-46140792D01*
X135009006Y-46478198D01*
X135211904Y-46781856D01*
X135470144Y-47040096D01*
X135773802Y-47242994D01*
X136111208Y-47382752D01*
X136469397Y-47454000D01*
X136834603Y-47454000D01*
X137192792Y-47382752D01*
X137530198Y-47242994D01*
X137833856Y-47040096D01*
X138092096Y-46781856D01*
X138294994Y-46478198D01*
X138434752Y-46140792D01*
X138506000Y-45782603D01*
X138506000Y-45417397D01*
X138434752Y-45059208D01*
X138294994Y-44721802D01*
X138092096Y-44418144D01*
X137833856Y-44159904D01*
X137530198Y-43957006D01*
X137192792Y-43817248D01*
X136834603Y-43746000D01*
X136469397Y-43746000D01*
X136111208Y-43817248D01*
X135773802Y-43957006D01*
X135470144Y-44159904D01*
X135211904Y-44418144D01*
X135009006Y-44721802D01*
X134869248Y-45059208D01*
X134798000Y-45417397D01*
X128188557Y-45417397D01*
X128140140Y-45368980D01*
X127983888Y-45264576D01*
X127810272Y-45192662D01*
X127625961Y-45156000D01*
X127438039Y-45156000D01*
X127253728Y-45192662D01*
X127080112Y-45264576D01*
X126923860Y-45368980D01*
X126790980Y-45501860D01*
X126686576Y-45658112D01*
X126614662Y-45831728D01*
X126578000Y-46016039D01*
X122809000Y-46016039D01*
X122809000Y-45868475D01*
X122858320Y-45819155D01*
X122918949Y-45728418D01*
X122960711Y-45627596D01*
X122982000Y-45520564D01*
X122982000Y-45411436D01*
X122960711Y-45304404D01*
X122918949Y-45203582D01*
X122858320Y-45112845D01*
X122809000Y-45063525D01*
X122809000Y-43726039D01*
X126578000Y-43726039D01*
X126578000Y-43913961D01*
X126614662Y-44098272D01*
X126686576Y-44271888D01*
X126790980Y-44428140D01*
X126923860Y-44561020D01*
X127080112Y-44665424D01*
X127253728Y-44737338D01*
X127438039Y-44774000D01*
X127625961Y-44774000D01*
X127810272Y-44737338D01*
X127983888Y-44665424D01*
X128140140Y-44561020D01*
X128273020Y-44428140D01*
X128377424Y-44271888D01*
X128449338Y-44098272D01*
X128486000Y-43913961D01*
X128486000Y-43726039D01*
X128449338Y-43541728D01*
X128377424Y-43368112D01*
X128273020Y-43211860D01*
X128140140Y-43078980D01*
X127983888Y-42974576D01*
X127810272Y-42902662D01*
X127625961Y-42866000D01*
X127438039Y-42866000D01*
X127253728Y-42902662D01*
X127080112Y-42974576D01*
X126923860Y-43078980D01*
X126790980Y-43211860D01*
X126686576Y-43368112D01*
X126614662Y-43541728D01*
X126578000Y-43726039D01*
X122809000Y-43726039D01*
X122809000Y-42726039D01*
X131378000Y-42726039D01*
X131378000Y-42913961D01*
X131414662Y-43098272D01*
X131486576Y-43271888D01*
X131590980Y-43428140D01*
X131723860Y-43561020D01*
X131880112Y-43665424D01*
X132053728Y-43737338D01*
X132238039Y-43774000D01*
X132425961Y-43774000D01*
X132610272Y-43737338D01*
X132783888Y-43665424D01*
X132940140Y-43561020D01*
X133073020Y-43428140D01*
X133177424Y-43271888D01*
X133249338Y-43098272D01*
X133286000Y-42913961D01*
X133286000Y-42726039D01*
X133249338Y-42541728D01*
X133177424Y-42368112D01*
X133073020Y-42211860D01*
X132940140Y-42078980D01*
X132783888Y-41974576D01*
X132610272Y-41902662D01*
X132425961Y-41866000D01*
X132238039Y-41866000D01*
X132053728Y-41902662D01*
X131880112Y-41974576D01*
X131723860Y-42078980D01*
X131590980Y-42211860D01*
X131486576Y-42368112D01*
X131414662Y-42541728D01*
X131378000Y-42726039D01*
X122809000Y-42726039D01*
X122809000Y-40686039D01*
X131378000Y-40686039D01*
X131378000Y-40873961D01*
X131414662Y-41058272D01*
X131486576Y-41231888D01*
X131590980Y-41388140D01*
X131723860Y-41521020D01*
X131880112Y-41625424D01*
X132053728Y-41697338D01*
X132238039Y-41734000D01*
X132425961Y-41734000D01*
X132566529Y-41706039D01*
X133158000Y-41706039D01*
X133158000Y-41893961D01*
X133194662Y-42078272D01*
X133266576Y-42251888D01*
X133370980Y-42408140D01*
X133503860Y-42541020D01*
X133660112Y-42645424D01*
X133833728Y-42717338D01*
X134018039Y-42754000D01*
X134205961Y-42754000D01*
X134390272Y-42717338D01*
X134563888Y-42645424D01*
X134720140Y-42541020D01*
X134853020Y-42408140D01*
X134957424Y-42251888D01*
X135029338Y-42078272D01*
X135066000Y-41893961D01*
X135066000Y-41706039D01*
X135029338Y-41521728D01*
X134957424Y-41348112D01*
X134853020Y-41191860D01*
X134720140Y-41058980D01*
X134563888Y-40954576D01*
X134390272Y-40882662D01*
X134205961Y-40846000D01*
X134018039Y-40846000D01*
X133833728Y-40882662D01*
X133660112Y-40954576D01*
X133503860Y-41058980D01*
X133370980Y-41191860D01*
X133266576Y-41348112D01*
X133194662Y-41521728D01*
X133158000Y-41706039D01*
X132566529Y-41706039D01*
X132610272Y-41697338D01*
X132783888Y-41625424D01*
X132940140Y-41521020D01*
X133073020Y-41388140D01*
X133177424Y-41231888D01*
X133249338Y-41058272D01*
X133286000Y-40873961D01*
X133286000Y-40686039D01*
X133249338Y-40501728D01*
X133177424Y-40328112D01*
X133073020Y-40171860D01*
X132940140Y-40038980D01*
X132783888Y-39934576D01*
X132610272Y-39862662D01*
X132425961Y-39826000D01*
X132238039Y-39826000D01*
X132053728Y-39862662D01*
X131880112Y-39934576D01*
X131723860Y-40038980D01*
X131590980Y-40171860D01*
X131486576Y-40328112D01*
X131414662Y-40501728D01*
X131378000Y-40686039D01*
X122809000Y-40686039D01*
X122809000Y-40280475D01*
X122858320Y-40231155D01*
X122918949Y-40140418D01*
X122960711Y-40039596D01*
X122982000Y-39932564D01*
X122982000Y-39823436D01*
X122960711Y-39716404D01*
X122918949Y-39615582D01*
X122858320Y-39524845D01*
X122781155Y-39447680D01*
X122690418Y-39387051D01*
X122589596Y-39345289D01*
X122482564Y-39324000D01*
X122373436Y-39324000D01*
X122266404Y-39345289D01*
X122165582Y-39387051D01*
X122074845Y-39447680D01*
X121997680Y-39524845D01*
X121937051Y-39615582D01*
X121895289Y-39716404D01*
X121874000Y-39823436D01*
X121874000Y-39932564D01*
X121895289Y-40039596D01*
X121937051Y-40140418D01*
X121997680Y-40231155D01*
X122047000Y-40280475D01*
X122047001Y-45063524D01*
X121997680Y-45112845D01*
X121937051Y-45203582D01*
X121895289Y-45304404D01*
X121874000Y-45411436D01*
X121874000Y-45520564D01*
X121895289Y-45627596D01*
X121937051Y-45728418D01*
X121997680Y-45819155D01*
X122047000Y-45868475D01*
X122047001Y-46587524D01*
X121997680Y-46636845D01*
X121937051Y-46727582D01*
X121895289Y-46828404D01*
X121874000Y-46935436D01*
X121874000Y-47044564D01*
X121895289Y-47151596D01*
X121937051Y-47252418D01*
X121997680Y-47343155D01*
X122047001Y-47392476D01*
X122047000Y-52928185D01*
X120988136Y-53987050D01*
X116078000Y-53975303D01*
X116078000Y-38299436D01*
X122890000Y-38299436D01*
X122890000Y-38408564D01*
X122911289Y-38515596D01*
X122953051Y-38616418D01*
X123013680Y-38707155D01*
X123090845Y-38784320D01*
X123181582Y-38844949D01*
X123282404Y-38886711D01*
X123389436Y-38908000D01*
X123498564Y-38908000D01*
X123605596Y-38886711D01*
X123706418Y-38844949D01*
X123797155Y-38784320D01*
X123874320Y-38707155D01*
X123915156Y-38646039D01*
X131378000Y-38646039D01*
X131378000Y-38833961D01*
X131414662Y-39018272D01*
X131486576Y-39191888D01*
X131590980Y-39348140D01*
X131723860Y-39481020D01*
X131880112Y-39585424D01*
X132053728Y-39657338D01*
X132238039Y-39694000D01*
X132425961Y-39694000D01*
X132566529Y-39666039D01*
X133158000Y-39666039D01*
X133158000Y-39853961D01*
X133194662Y-40038272D01*
X133266576Y-40211888D01*
X133370980Y-40368140D01*
X133503860Y-40501020D01*
X133660112Y-40605424D01*
X133833728Y-40677338D01*
X134018039Y-40714000D01*
X134205961Y-40714000D01*
X134390272Y-40677338D01*
X134563888Y-40605424D01*
X134720140Y-40501020D01*
X134853020Y-40368140D01*
X134957424Y-40211888D01*
X135029338Y-40038272D01*
X135066000Y-39853961D01*
X135066000Y-39666039D01*
X135029338Y-39481728D01*
X134957424Y-39308112D01*
X134853020Y-39151860D01*
X134720140Y-39018980D01*
X134563888Y-38914576D01*
X134390272Y-38842662D01*
X134205961Y-38806000D01*
X134018039Y-38806000D01*
X133833728Y-38842662D01*
X133660112Y-38914576D01*
X133503860Y-39018980D01*
X133370980Y-39151860D01*
X133266576Y-39308112D01*
X133194662Y-39481728D01*
X133158000Y-39666039D01*
X132566529Y-39666039D01*
X132610272Y-39657338D01*
X132783888Y-39585424D01*
X132940140Y-39481020D01*
X133073020Y-39348140D01*
X133177424Y-39191888D01*
X133249338Y-39018272D01*
X133286000Y-38833961D01*
X133286000Y-38646039D01*
X133249338Y-38461728D01*
X133177424Y-38288112D01*
X133073020Y-38131860D01*
X132940140Y-37998980D01*
X132783888Y-37894576D01*
X132610272Y-37822662D01*
X132425961Y-37786000D01*
X132238039Y-37786000D01*
X132053728Y-37822662D01*
X131880112Y-37894576D01*
X131723860Y-37998980D01*
X131590980Y-38131860D01*
X131486576Y-38288112D01*
X131414662Y-38461728D01*
X131378000Y-38646039D01*
X123915156Y-38646039D01*
X123934949Y-38616418D01*
X123976711Y-38515596D01*
X123998000Y-38408564D01*
X123998000Y-38299436D01*
X123976711Y-38192404D01*
X123934949Y-38091582D01*
X123874320Y-38000845D01*
X123825000Y-37951525D01*
X123825000Y-37523814D01*
X124742775Y-36606039D01*
X131378000Y-36606039D01*
X131378000Y-36793961D01*
X131414662Y-36978272D01*
X131486576Y-37151888D01*
X131590980Y-37308140D01*
X131723860Y-37441020D01*
X131880112Y-37545424D01*
X132053728Y-37617338D01*
X132238039Y-37654000D01*
X132425961Y-37654000D01*
X132566529Y-37626039D01*
X133158000Y-37626039D01*
X133158000Y-37813961D01*
X133194662Y-37998272D01*
X133266576Y-38171888D01*
X133370980Y-38328140D01*
X133503860Y-38461020D01*
X133660112Y-38565424D01*
X133833728Y-38637338D01*
X134018039Y-38674000D01*
X134205961Y-38674000D01*
X134390272Y-38637338D01*
X134563888Y-38565424D01*
X134720140Y-38461020D01*
X134853020Y-38328140D01*
X134957424Y-38171888D01*
X135029338Y-37998272D01*
X135066000Y-37813961D01*
X135066000Y-37626039D01*
X135029338Y-37441728D01*
X134957424Y-37268112D01*
X134853020Y-37111860D01*
X134720140Y-36978980D01*
X134563888Y-36874576D01*
X134390272Y-36802662D01*
X134205961Y-36766000D01*
X134018039Y-36766000D01*
X133833728Y-36802662D01*
X133660112Y-36874576D01*
X133503860Y-36978980D01*
X133370980Y-37111860D01*
X133266576Y-37268112D01*
X133194662Y-37441728D01*
X133158000Y-37626039D01*
X132566529Y-37626039D01*
X132610272Y-37617338D01*
X132783888Y-37545424D01*
X132940140Y-37441020D01*
X133073020Y-37308140D01*
X133177424Y-37151888D01*
X133249338Y-36978272D01*
X133286000Y-36793961D01*
X133286000Y-36606039D01*
X133249338Y-36421728D01*
X133177424Y-36248112D01*
X133073020Y-36091860D01*
X132940140Y-35958980D01*
X132783888Y-35854576D01*
X132610272Y-35782662D01*
X132425961Y-35746000D01*
X132238039Y-35746000D01*
X132053728Y-35782662D01*
X131880112Y-35854576D01*
X131723860Y-35958980D01*
X131590980Y-36091860D01*
X131486576Y-36248112D01*
X131414662Y-36421728D01*
X131378000Y-36606039D01*
X124742775Y-36606039D01*
X126287816Y-35061000D01*
X126657213Y-35061000D01*
X126686576Y-35131888D01*
X126790980Y-35288140D01*
X126923860Y-35421020D01*
X127080112Y-35525424D01*
X127253728Y-35597338D01*
X127438039Y-35634000D01*
X127625961Y-35634000D01*
X127810272Y-35597338D01*
X127837550Y-35586039D01*
X133158000Y-35586039D01*
X133158000Y-35773961D01*
X133194662Y-35958272D01*
X133266576Y-36131888D01*
X133370980Y-36288140D01*
X133503860Y-36421020D01*
X133660112Y-36525424D01*
X133833728Y-36597338D01*
X134018039Y-36634000D01*
X134205961Y-36634000D01*
X134390272Y-36597338D01*
X134563888Y-36525424D01*
X134720140Y-36421020D01*
X134853020Y-36288140D01*
X134957424Y-36131888D01*
X135029338Y-35958272D01*
X135066000Y-35773961D01*
X135066000Y-35586039D01*
X135029338Y-35401728D01*
X134957424Y-35228112D01*
X134853020Y-35071860D01*
X134720140Y-34938980D01*
X134563888Y-34834576D01*
X134390272Y-34762662D01*
X134205961Y-34726000D01*
X134018039Y-34726000D01*
X133833728Y-34762662D01*
X133660112Y-34834576D01*
X133503860Y-34938980D01*
X133370980Y-35071860D01*
X133266576Y-35228112D01*
X133194662Y-35401728D01*
X133158000Y-35586039D01*
X127837550Y-35586039D01*
X127983888Y-35525424D01*
X128140140Y-35421020D01*
X128273020Y-35288140D01*
X128377424Y-35131888D01*
X128449338Y-34958272D01*
X128486000Y-34773961D01*
X128486000Y-34586039D01*
X128449338Y-34401728D01*
X128377424Y-34228112D01*
X128273020Y-34071860D01*
X128140140Y-33938980D01*
X127983888Y-33834576D01*
X127810272Y-33762662D01*
X127625961Y-33726000D01*
X127438039Y-33726000D01*
X127253728Y-33762662D01*
X127080112Y-33834576D01*
X126923860Y-33938980D01*
X126790980Y-34071860D01*
X126686576Y-34228112D01*
X126657213Y-34299000D01*
X126148710Y-34299000D01*
X126130000Y-34297157D01*
X126111290Y-34299000D01*
X126111287Y-34299000D01*
X126055311Y-34304513D01*
X125983492Y-34326299D01*
X125917303Y-34361678D01*
X125873824Y-34397360D01*
X125873821Y-34397363D01*
X125859289Y-34409289D01*
X125847363Y-34423821D01*
X123187832Y-37083354D01*
X123173289Y-37095289D01*
X123141666Y-37133823D01*
X123125678Y-37153304D01*
X123090300Y-37219492D01*
X123090299Y-37219493D01*
X123068513Y-37291312D01*
X123066856Y-37308140D01*
X123061157Y-37366000D01*
X123063000Y-37384710D01*
X123063001Y-37951524D01*
X123013680Y-38000845D01*
X122953051Y-38091582D01*
X122911289Y-38192404D01*
X122890000Y-38299436D01*
X116078000Y-38299436D01*
X116078000Y-32296039D01*
X126578000Y-32296039D01*
X126578000Y-32483961D01*
X126614662Y-32668272D01*
X126686576Y-32841888D01*
X126790980Y-32998140D01*
X126923860Y-33131020D01*
X127080112Y-33235424D01*
X127253728Y-33307338D01*
X127438039Y-33344000D01*
X127625961Y-33344000D01*
X127810272Y-33307338D01*
X127983888Y-33235424D01*
X128140140Y-33131020D01*
X128273020Y-32998140D01*
X128377424Y-32841888D01*
X128449338Y-32668272D01*
X128486000Y-32483961D01*
X128486000Y-32363605D01*
X131958000Y-32363605D01*
X132083914Y-32653577D01*
X132416126Y-32819433D01*
X132774312Y-32917290D01*
X133144706Y-32943389D01*
X133513075Y-32896725D01*
X133865262Y-32779094D01*
X133980688Y-32717397D01*
X134798000Y-32717397D01*
X134798000Y-33082603D01*
X134869248Y-33440792D01*
X135009006Y-33778198D01*
X135211904Y-34081856D01*
X135470144Y-34340096D01*
X135773802Y-34542994D01*
X136111208Y-34682752D01*
X136469397Y-34754000D01*
X136834603Y-34754000D01*
X137192792Y-34682752D01*
X137530198Y-34542994D01*
X137833856Y-34340096D01*
X138092096Y-34081856D01*
X138294994Y-33778198D01*
X138434752Y-33440792D01*
X138506000Y-33082603D01*
X138506000Y-32717397D01*
X138434752Y-32359208D01*
X138294994Y-32021802D01*
X138092096Y-31718144D01*
X137833856Y-31459904D01*
X137530198Y-31257006D01*
X137192792Y-31117248D01*
X136834603Y-31046000D01*
X136469397Y-31046000D01*
X136111208Y-31117248D01*
X135773802Y-31257006D01*
X135470144Y-31459904D01*
X135211904Y-31718144D01*
X135009006Y-32021802D01*
X134869248Y-32359208D01*
X134798000Y-32717397D01*
X133980688Y-32717397D01*
X134100086Y-32653577D01*
X134226000Y-32363605D01*
X133092000Y-31229605D01*
X131958000Y-32363605D01*
X128486000Y-32363605D01*
X128486000Y-32296039D01*
X128449338Y-32111728D01*
X128377424Y-31938112D01*
X128273020Y-31781860D01*
X128140140Y-31648980D01*
X127983888Y-31544576D01*
X127810272Y-31472662D01*
X127625961Y-31436000D01*
X127438039Y-31436000D01*
X127253728Y-31472662D01*
X127080112Y-31544576D01*
X126923860Y-31648980D01*
X126790980Y-31781860D01*
X126686576Y-31938112D01*
X126614662Y-32111728D01*
X126578000Y-32296039D01*
X116078000Y-32296039D01*
X116078000Y-31102706D01*
X131198611Y-31102706D01*
X131245275Y-31471075D01*
X131362906Y-31823262D01*
X131488423Y-32058086D01*
X131778395Y-32184000D01*
X132912395Y-31050000D01*
X133271605Y-31050000D01*
X134405605Y-32184000D01*
X134695577Y-32058086D01*
X134861433Y-31725874D01*
X134959290Y-31367688D01*
X134985389Y-30997294D01*
X134938725Y-30628925D01*
X134821094Y-30276738D01*
X134695577Y-30041914D01*
X134405605Y-29916000D01*
X133271605Y-31050000D01*
X132912395Y-31050000D01*
X131778395Y-29916000D01*
X131488423Y-30041914D01*
X131322567Y-30374126D01*
X131224710Y-30732312D01*
X131198611Y-31102706D01*
X116078000Y-31102706D01*
X116078000Y-29736395D01*
X131958000Y-29736395D01*
X133092000Y-30870395D01*
X134226000Y-29736395D01*
X134100086Y-29446423D01*
X133767874Y-29280567D01*
X133409688Y-29182710D01*
X133039294Y-29156611D01*
X132670925Y-29203275D01*
X132318738Y-29320906D01*
X132083914Y-29446423D01*
X131958000Y-29736395D01*
X116078000Y-29736395D01*
X116078000Y-26588252D01*
X138489000Y-26588252D01*
X138489000Y-26751748D01*
X138520896Y-26912102D01*
X138583464Y-27063152D01*
X138674297Y-27199094D01*
X138789906Y-27314703D01*
X138925848Y-27405536D01*
X139076898Y-27468104D01*
X139237252Y-27500000D01*
X139400748Y-27500000D01*
X139561102Y-27468104D01*
X139712152Y-27405536D01*
X139848094Y-27314703D01*
X139963703Y-27199094D01*
X140054536Y-27063152D01*
X140117104Y-26912102D01*
X140149000Y-26751748D01*
X140149000Y-26588252D01*
X140117104Y-26427898D01*
X140054536Y-26276848D01*
X139963703Y-26140906D01*
X139848094Y-26025297D01*
X139712152Y-25934464D01*
X139561102Y-25871896D01*
X139400748Y-25840000D01*
X139237252Y-25840000D01*
X139076898Y-25871896D01*
X138925848Y-25934464D01*
X138789906Y-26025297D01*
X138674297Y-26140906D01*
X138583464Y-26276848D01*
X138520896Y-26427898D01*
X138489000Y-26588252D01*
X116078000Y-26588252D01*
X116078000Y-25146305D01*
X140030285Y-25203607D01*
%TD*%
M02*
